<svg width="1920" height="1080" viewBox="0 0 1920 1080" fill="none" xmlns="http://www.w3.org/2000/svg">
<rect width="1920" height="1080" fill="black"/>
<g filter="url(#filter0_if_1_5)">
<ellipse cx="953" cy="545" rx="98" ry="232" fill="#D9D9D9" fill-opacity="0.57"/>
<path d="M1048.5 545C1048.5 608.814 1037.57 666.468 1019.99 708.076C1011.2 728.885 1000.8 745.563 989.377 757.002C977.963 768.431 965.673 774.5 953 774.5C940.327 774.5 928.037 768.431 916.623 757.002C905.199 745.563 894.796 728.885 886.007 708.076C868.431 666.468 857.5 608.814 857.5 545C857.5 481.186 868.431 423.532 886.007 381.924C894.796 361.115 905.199 344.437 916.623 332.998C928.037 321.569 940.327 315.5 953 315.5C965.673 315.5 977.963 321.569 989.377 332.998C1000.8 344.437 1011.2 361.115 1019.99 381.924C1037.57 423.532 1048.5 481.186 1048.5 545Z" stroke="white" stroke-width="5"/>
</g>
<defs>
<filter id="filter0_if_1_5" x="555" y="13" width="796" height="1064" filterUnits="userSpaceOnUse" color-interpolation-filters="sRGB">
<feFlood flood-opacity="0" result="BackgroundImageFix"/>
<feBlend mode="normal" in="SourceGraphic" in2="BackgroundImageFix" result="shape"/>
<feColorMatrix in="SourceAlpha" type="matrix" values="0 0 0 0 0 0 0 0 0 0 0 0 0 0 0 0 0 0 127 0" result="hardAlpha"/>
<feOffset dy="4"/>
<feGaussianBlur stdDeviation="2"/>
<feComposite in2="hardAlpha" operator="arithmetic" k2="-1" k3="1"/>
<feColorMatrix type="matrix" values="0 0 0 0 0 0 0 0 0 0 0 0 0 0 0 0 0 0 1 0"/>
<feBlend mode="normal" in2="shape" result="effect1_innerShadow_1_5"/>
<feGaussianBlur stdDeviation="150" result="effect2_foregroundBlur_1_5"/>
</filter>
</defs>
</svg>
