<svg width="170" height="240" viewBox="0 0 170 240" fill="none" xmlns="http://www.w3.org/2000/svg">
<g clip-path="url(#clip0_0_1)">
<rect width="170" height="240" fill="white"/>
<path d="M9.92898 22.0795C9.68371 22.0795 9.47325 21.9917 9.29759 21.8161C9.12192 21.6404 9.03409 21.4299 9.03409 21.1847C9.03409 20.9394 9.12192 20.7289 9.29759 20.5533C9.47325 20.3776 9.68371 20.2898 9.92898 20.2898C10.1742 20.2898 10.3847 20.3776 10.5604 20.5533C10.736 20.7289 10.8239 20.9394 10.8239 21.1847C10.8239 21.3471 10.7824 21.4962 10.6996 21.6321C10.62 21.768 10.5123 21.8774 10.3764 21.9602C10.2438 22.0398 10.0947 22.0795 9.92898 22.0795ZM13.0884 22V11.8182H14.2617V15.5767H14.3612C14.4473 15.4441 14.5666 15.2751 14.7191 15.0696C14.8749 14.8608 15.0969 14.6752 15.3853 14.5128C15.677 14.3471 16.0714 14.2642 16.5685 14.2642C17.2115 14.2642 17.7783 14.425 18.2688 14.7464C18.7594 15.0679 19.1422 15.5237 19.4173 16.1136C19.6924 16.7036 19.8299 17.3996 19.8299 18.2017C19.8299 19.0104 19.6924 19.7114 19.4173 20.3047C19.1422 20.8946 18.761 21.352 18.2738 21.6768C17.7866 21.9983 17.2248 22.1591 16.5884 22.1591C16.0979 22.1591 15.7051 22.0779 15.4102 21.9155C15.1152 21.7498 14.8881 21.5625 14.729 21.3537C14.57 21.1416 14.4473 20.9659 14.3612 20.8267H14.2219V22H13.0884ZM14.2418 18.1818C14.2418 18.7585 14.3263 19.2673 14.4954 19.7081C14.6644 20.1456 14.9113 20.4886 15.2362 20.7372C15.561 20.9825 15.9587 21.1051 16.4293 21.1051C16.9199 21.1051 17.3292 20.9759 17.6573 20.7173C17.9888 20.4555 18.2373 20.1042 18.4031 19.6634C18.5721 19.2192 18.6566 18.7254 18.6566 18.1818C18.6566 17.6449 18.5737 17.161 18.408 16.7301C18.2456 16.2959 17.9987 15.9529 17.6673 15.701C17.3391 15.4458 16.9265 15.3182 16.4293 15.3182C15.9521 15.3182 15.551 15.4392 15.2262 15.6811C14.9014 15.9197 14.6561 16.2545 14.4904 16.6854C14.3247 17.1129 14.2418 17.6117 14.2418 18.1818ZM26.4371 18.8778V14.3636H27.6104V22H26.4371V20.7074H26.3576C26.1786 21.0952 25.9002 21.425 25.5224 21.6967C25.1445 21.9652 24.6673 22.0994 24.0906 22.0994C23.6133 22.0994 23.189 21.995 22.8178 21.7862C22.4466 21.5741 22.1549 21.2559 21.9428 20.8317C21.7307 20.4041 21.6246 19.8655 21.6246 19.2159V14.3636H22.7979V19.1364C22.7979 19.6932 22.9537 20.1373 23.2653 20.4688C23.5801 20.8002 23.9812 20.9659 24.4684 20.9659C24.7601 20.9659 25.0567 20.8913 25.3583 20.7422C25.6632 20.593 25.9184 20.3643 26.1239 20.0561C26.3327 19.7479 26.4371 19.3551 26.4371 18.8778ZM32.8418 25.0227C32.275 25.0227 31.7878 24.9498 31.3801 24.804C30.9725 24.6615 30.6328 24.4725 30.361 24.2372C30.0925 24.0052 29.8787 23.7566 29.7196 23.4915L30.6543 22.8352C30.7604 22.9744 30.8946 23.1335 31.057 23.3125C31.2194 23.4948 31.4415 23.6522 31.7232 23.7848C32.0082 23.9207 32.3811 23.9886 32.8418 23.9886C33.4583 23.9886 33.967 23.8395 34.3681 23.5412C34.7691 23.2429 34.9696 22.7756 34.9696 22.1392V20.5881H34.8702C34.784 20.7273 34.6614 20.8996 34.5023 21.1051C34.3465 21.3073 34.1212 21.4879 33.8262 21.647C33.5345 21.8028 33.1401 21.8807 32.6429 21.8807C32.0265 21.8807 31.473 21.7348 30.9824 21.4432C30.4952 21.1515 30.1091 20.7273 29.824 20.1705C29.5423 19.6136 29.4015 18.9375 29.4015 18.142C29.4015 17.3598 29.539 16.6787 29.8141 16.0987C30.0892 15.5154 30.472 15.0646 30.9625 14.7464C31.4531 14.425 32.0198 14.2642 32.6628 14.2642C33.16 14.2642 33.5544 14.3471 33.8461 14.5128C34.141 14.6752 34.3664 14.8608 34.5222 15.0696C34.6813 15.2751 34.8039 15.4441 34.8901 15.5767H35.0094V14.3636H36.1429V22.2188C36.1429 22.875 35.9938 23.4086 35.6955 23.8196C35.4005 24.2339 35.0028 24.5372 34.5023 24.7294C34.0051 24.925 33.4516 25.0227 32.8418 25.0227ZM32.802 20.8267C33.2727 20.8267 33.6704 20.719 33.9952 20.5036C34.32 20.2881 34.5669 19.9782 34.736 19.5739C34.905 19.1695 34.9895 18.6856 34.9895 18.1222C34.9895 17.572 34.9067 17.0864 34.7409 16.6655C34.5752 16.2446 34.33 15.9148 34.0051 15.6761C33.6803 15.4375 33.2793 15.3182 32.802 15.3182C32.3049 15.3182 31.8906 15.4441 31.5591 15.696C31.231 15.9479 30.9841 16.286 30.8184 16.7102C30.656 17.1345 30.5748 17.6051 30.5748 18.1222C30.5748 18.6525 30.6576 19.1214 30.8233 19.5291C30.9924 19.9335 31.2409 20.2517 31.5691 20.4837C31.9005 20.7124 32.3115 20.8267 32.802 20.8267ZM42.6657 17.0881V18.1818H38.2111V17.0881H42.6657ZM47.8324 22.1591C47.1165 22.1591 46.5 21.9901 45.983 21.652C45.4659 21.3139 45.0682 20.8482 44.7898 20.255C44.5114 19.6617 44.3722 18.9839 44.3722 18.2216C44.3722 17.446 44.5147 16.7616 44.7997 16.1683C45.0881 15.5717 45.4891 15.1061 46.0028 14.7713C46.5199 14.4332 47.1231 14.2642 47.8125 14.2642C48.3494 14.2642 48.8333 14.3636 49.2642 14.5625C49.6951 14.7614 50.0481 15.0398 50.3232 15.3977C50.5982 15.7557 50.7689 16.1733 50.8352 16.6506H49.6619C49.5724 16.3026 49.3736 15.9943 49.0653 15.7259C48.7604 15.4541 48.3494 15.3182 47.8324 15.3182C47.375 15.3182 46.974 15.4375 46.6293 15.6761C46.2879 15.9115 46.0211 16.2446 45.8288 16.6754C45.6399 17.103 45.5455 17.6051 45.5455 18.1818C45.5455 18.7718 45.6383 19.2855 45.8239 19.723C46.0128 20.1605 46.2779 20.5002 46.6193 20.7422C46.964 20.9841 47.3684 21.1051 47.8324 21.1051C48.1373 21.1051 48.4141 21.0521 48.6626 20.946C48.9112 20.84 49.1217 20.6875 49.294 20.4886C49.4664 20.2898 49.589 20.0511 49.6619 19.7727H50.8352C50.7689 20.2235 50.6049 20.6295 50.343 20.9908C50.0845 21.3487 49.7415 21.6338 49.3139 21.8459C48.8897 22.0547 48.3958 22.1591 47.8324 22.1591ZM55.6527 22.1591C54.9633 22.1591 54.3584 21.995 53.8381 21.6669C53.321 21.3388 52.9167 20.8797 52.625 20.2898C52.3366 19.6998 52.1925 19.0104 52.1925 18.2216C52.1925 17.4261 52.3366 16.7318 52.625 16.1385C52.9167 15.5452 53.321 15.0845 53.8381 14.7564C54.3584 14.4283 54.9633 14.2642 55.6527 14.2642C56.3421 14.2642 56.9453 14.4283 57.4624 14.7564C57.9827 15.0845 58.3871 15.5452 58.6754 16.1385C58.9671 16.7318 59.1129 17.4261 59.1129 18.2216C59.1129 19.0104 58.9671 19.6998 58.6754 20.2898C58.3871 20.8797 57.9827 21.3388 57.4624 21.6669C56.9453 21.995 56.3421 22.1591 55.6527 22.1591ZM55.6527 21.1051C56.1764 21.1051 56.6072 20.9709 56.9453 20.7024C57.2834 20.4339 57.5336 20.081 57.696 19.6435C57.8584 19.206 57.9396 18.732 57.9396 18.2216C57.9396 17.7112 57.8584 17.2356 57.696 16.7947C57.5336 16.3539 57.2834 15.9976 56.9453 15.7259C56.6072 15.4541 56.1764 15.3182 55.6527 15.3182C55.129 15.3182 54.6982 15.4541 54.3601 15.7259C54.022 15.9976 53.7718 16.3539 53.6094 16.7947C53.447 17.2356 53.3658 17.7112 53.3658 18.2216C53.3658 18.732 53.447 19.206 53.6094 19.6435C53.7718 20.081 54.022 20.4339 54.3601 20.7024C54.6982 20.9709 55.129 21.1051 55.6527 21.1051ZM62.0772 17.4062V22H60.9039V14.3636H62.0375V15.5568H62.1369C62.3159 15.169 62.5877 14.8575 62.9522 14.6222C63.3168 14.3835 63.7875 14.2642 64.3642 14.2642C64.8812 14.2642 65.3336 14.3703 65.7214 14.5824C66.1092 14.7912 66.4108 15.1094 66.6262 15.5369C66.8417 15.9612 66.9494 16.4981 66.9494 17.1477V22H65.7761V17.2273C65.7761 16.6274 65.6203 16.16 65.3088 15.8253C64.9972 15.4872 64.5697 15.3182 64.0261 15.3182C63.6516 15.3182 63.3168 15.3994 63.0218 15.5618C62.7302 15.7242 62.4998 15.9612 62.3308 16.2727C62.1618 16.5843 62.0772 16.9621 62.0772 17.4062ZM72.4144 14.3636V15.358H68.457V14.3636H72.4144ZM69.6104 12.5341H70.7837V19.8125C70.7837 20.1439 70.8318 20.3925 70.9279 20.5582C71.0273 20.7206 71.1533 20.83 71.3058 20.8864C71.4615 20.9394 71.6256 20.9659 71.7979 20.9659C71.9272 20.9659 72.0333 20.9593 72.1161 20.946C72.199 20.9295 72.2653 20.9162 72.315 20.9062L72.5536 21.9602C72.4741 21.9901 72.363 22.0199 72.2205 22.0497C72.078 22.0829 71.8974 22.0994 71.6786 22.0994C71.3472 22.0994 71.0224 22.0282 70.7042 21.8857C70.3893 21.7431 70.1275 21.526 69.9187 21.2344C69.7132 20.9427 69.6104 20.5748 69.6104 20.1307V12.5341ZM76.4265 22.179C75.9426 22.179 75.5034 22.0878 75.109 21.9055C74.7146 21.7199 74.4014 21.4531 74.1694 21.1051C73.9374 20.7538 73.8214 20.3295 73.8214 19.8324C73.8214 19.3949 73.9076 19.0402 74.0799 18.7685C74.2522 18.4934 74.4826 18.2779 74.771 18.1222C75.0593 17.9664 75.3775 17.8504 75.7255 17.7741C76.0768 17.6946 76.4298 17.6316 76.7844 17.5852C77.2485 17.5256 77.6246 17.4808 77.913 17.451C78.2047 17.4179 78.4168 17.3632 78.5494 17.2869C78.6853 17.2107 78.7532 17.0781 78.7532 16.8892V16.8494C78.7532 16.3589 78.619 15.9777 78.3505 15.706C78.0853 15.4342 77.6826 15.2983 77.1424 15.2983C76.5823 15.2983 76.1431 15.4209 75.8249 15.6662C75.5067 15.9115 75.283 16.1733 75.1538 16.4517L74.0401 16.054C74.239 15.59 74.5041 15.2287 74.8356 14.9702C75.1703 14.7083 75.5349 14.526 75.9293 14.4233C76.3271 14.3172 76.7182 14.2642 77.1026 14.2642C77.3479 14.2642 77.6296 14.294 77.9478 14.3537C78.2693 14.41 78.5792 14.5277 78.8775 14.7067C79.1791 14.8857 79.4293 15.1558 79.6282 15.517C79.8271 15.8783 79.9265 16.3622 79.9265 16.9688V22H78.7532V20.9659H78.6935C78.614 21.1316 78.4814 21.3089 78.2958 21.4979C78.1102 21.6868 77.8633 21.8475 77.555 21.9801C77.2468 22.1127 76.8706 22.179 76.4265 22.179ZM76.6055 21.125C77.0695 21.125 77.4606 21.0339 77.7788 20.8516C78.1003 20.6693 78.3422 20.4339 78.5046 20.1456C78.6703 19.8572 78.7532 19.554 78.7532 19.2358V18.1619C78.7035 18.2216 78.5941 18.2763 78.4251 18.326C78.2594 18.3724 78.0671 18.4138 77.8484 18.4503C77.6329 18.4834 77.4225 18.5133 77.217 18.5398C77.0148 18.563 76.8507 18.5829 76.7248 18.5994C76.4199 18.6392 76.1348 18.7038 75.8697 18.7933C75.6078 18.8795 75.3957 19.0104 75.2333 19.1861C75.0742 19.3584 74.9947 19.5937 74.9947 19.892C74.9947 20.2997 75.1455 20.608 75.4471 20.8168C75.752 21.0223 76.1381 21.125 76.6055 21.125ZM82.068 22V14.3636H83.2413V22H82.068ZM82.6646 13.0909C82.4359 13.0909 82.2387 13.013 82.073 12.8572C81.9106 12.7015 81.8294 12.5142 81.8294 12.2955C81.8294 12.0767 81.9106 11.8894 82.073 11.7337C82.2387 11.5779 82.4359 11.5 82.6646 11.5C82.8933 11.5 83.0888 11.5779 83.2512 11.7337C83.417 11.8894 83.4998 12.0767 83.4998 12.2955C83.4998 12.5142 83.417 12.7015 83.2512 12.8572C83.0888 13.013 82.8933 13.0909 82.6646 13.0909ZM86.5636 17.4062V22H85.3903V14.3636H86.5238V15.5568H86.6232C86.8022 15.169 87.074 14.8575 87.4386 14.6222C87.8031 14.3835 88.2738 14.2642 88.8505 14.2642C89.3675 14.2642 89.82 14.3703 90.2077 14.5824C90.5955 14.7912 90.8971 15.1094 91.1126 15.5369C91.328 15.9612 91.4357 16.4981 91.4357 17.1477V22H90.2624V17.2273C90.2624 16.6274 90.1067 16.16 89.7951 15.8253C89.4835 15.4872 89.056 15.3182 88.5124 15.3182C88.1379 15.3182 87.8031 15.3994 87.5082 15.5618C87.2165 15.7242 86.9862 15.9612 86.8171 16.2727C86.6481 16.5843 86.5636 16.9621 86.5636 17.4062ZM96.7814 22.1591C96.0456 22.1591 95.4109 21.9967 94.8773 21.6719C94.347 21.3438 93.9377 20.8864 93.6493 20.2997C93.3643 19.7098 93.2218 19.0237 93.2218 18.2415C93.2218 17.4593 93.3643 16.7699 93.6493 16.1733C93.9377 15.5734 94.3387 15.1061 94.8525 14.7713C95.3695 14.4332 95.9727 14.2642 96.6621 14.2642C97.0598 14.2642 97.4526 14.3305 97.8404 14.4631C98.2282 14.5956 98.5811 14.8111 98.8993 15.1094C99.2175 15.4044 99.4711 15.7955 99.66 16.2827C99.8489 16.7699 99.9434 17.3698 99.9434 18.0824V18.5795H94.057V17.5653H98.7502C98.7502 17.1345 98.664 16.75 98.4917 16.4119C98.3226 16.0739 98.0807 15.8071 97.7658 15.6115C97.4542 15.416 97.0864 15.3182 96.6621 15.3182C96.1948 15.3182 95.7904 15.4342 95.449 15.6662C95.111 15.8949 94.8508 16.1932 94.6685 16.5611C94.4862 16.929 94.3951 17.3234 94.3951 17.7443V18.4205C94.3951 18.9972 94.4945 19.486 94.6934 19.8871C94.8955 20.2848 95.1756 20.5881 95.5336 20.7969C95.8915 21.0024 96.3075 21.1051 96.7814 21.1051C97.0897 21.1051 97.3681 21.062 97.6167 20.9759C97.8685 20.8864 98.0856 20.7538 98.2679 20.5781C98.4502 20.3991 98.5911 20.1771 98.6905 19.9119L99.824 20.2301C99.7047 20.6146 99.5042 20.9527 99.2225 21.2443C98.9408 21.5327 98.5927 21.758 98.1784 21.9205C97.7641 22.0795 97.2985 22.1591 96.7814 22.1591ZM101.728 22V14.3636H102.862V15.517H102.941C103.08 15.1392 103.332 14.8326 103.697 14.5973C104.061 14.362 104.472 14.2443 104.93 14.2443C105.016 14.2443 105.124 14.246 105.253 14.2493C105.382 14.2526 105.48 14.2576 105.546 14.2642V15.4574C105.507 15.4474 105.415 15.4325 105.273 15.4126C105.134 15.3894 104.986 15.3778 104.83 15.3778C104.459 15.3778 104.128 15.4557 103.836 15.6115C103.548 15.764 103.319 15.9761 103.15 16.2479C102.984 16.5163 102.901 16.8229 102.901 17.1676V22H101.728ZM110.318 17.7244V17.108C110.871 17.108 111.257 16.992 111.476 16.7599C111.698 16.5279 111.809 16.1402 111.809 15.5966V14.0057C111.809 13.5483 111.852 13.1522 111.939 12.8175C112.028 12.4827 112.172 12.206 112.371 11.9872C112.57 11.7685 112.835 11.6061 113.167 11.5C113.498 11.3939 113.907 11.3409 114.395 11.3409V12.3153C114.01 12.3153 113.707 12.375 113.485 12.4943C113.266 12.6136 113.11 12.7992 113.017 13.0511C112.928 13.2997 112.883 13.6179 112.883 14.0057V15.9943C112.883 16.2528 112.848 16.4882 112.779 16.7003C112.712 16.9124 112.588 17.0947 112.406 17.2472C112.224 17.3996 111.963 17.5173 111.625 17.6001C111.291 17.683 110.855 17.7244 110.318 17.7244ZM114.395 24.0682C113.907 24.0682 113.498 24.0152 113.167 23.9091C112.835 23.803 112.57 23.6406 112.371 23.4219C112.172 23.2031 112.028 22.9264 111.939 22.5916C111.852 22.2569 111.809 21.8608 111.809 21.4034V19.8125C111.809 19.2689 111.698 18.8812 111.476 18.6491C111.257 18.4171 110.871 18.3011 110.318 18.3011V17.6847C110.855 17.6847 111.291 17.7261 111.625 17.8089C111.963 17.8918 112.224 18.0095 112.406 18.1619C112.588 18.3144 112.712 18.4967 112.779 18.7088C112.848 18.9209 112.883 19.1562 112.883 19.4148V21.4034C112.883 21.7912 112.928 22.1094 113.017 22.358C113.11 22.6065 113.266 22.7905 113.485 22.9098C113.707 23.0324 114.01 23.0938 114.395 23.0938V24.0682ZM110.318 18.3011V17.108H111.491V18.3011H110.318ZM9.23295 39V28.8182H10.4062V32.5767H10.5057C10.5919 32.4441 10.7112 32.2751 10.8636 32.0696C11.0194 31.8608 11.2415 31.6752 11.5298 31.5128C11.8215 31.3471 12.2159 31.2642 12.7131 31.2642C13.3561 31.2642 13.9228 31.425 14.4134 31.7464C14.9039 32.0679 15.2867 32.5237 15.5618 33.1136C15.8369 33.7036 15.9744 34.3996 15.9744 35.2017C15.9744 36.0104 15.8369 36.7114 15.5618 37.3047C15.2867 37.8946 14.9055 38.352 14.4183 38.6768C13.9311 38.9983 13.3693 39.1591 12.733 39.1591C12.2424 39.1591 11.8497 39.0779 11.5547 38.9155C11.2597 38.7498 11.0327 38.5625 10.8736 38.3537C10.7145 38.1416 10.5919 37.9659 10.5057 37.8267H10.3665V39H9.23295ZM10.3864 35.1818C10.3864 35.7585 10.4709 36.2673 10.6399 36.7081C10.8089 37.1456 11.0559 37.4886 11.3807 37.7372C11.7055 37.9825 12.1032 38.1051 12.5739 38.1051C13.0644 38.1051 13.4737 37.9759 13.8018 37.7173C14.1333 37.4555 14.3819 37.1042 14.5476 36.6634C14.7166 36.2192 14.8011 35.7254 14.8011 35.1818C14.8011 34.6449 14.7183 34.161 14.5526 33.7301C14.3902 33.2959 14.1432 32.9529 13.8118 32.701C13.4837 32.4458 13.071 32.3182 12.5739 32.3182C12.0966 32.3182 11.6955 32.4392 11.3707 32.6811C11.0459 32.9197 10.8007 33.2545 10.6349 33.6854C10.4692 34.1129 10.3864 34.6117 10.3864 35.1818ZM20.0163 39.179C19.5324 39.179 19.0933 39.0878 18.6989 38.9055C18.3045 38.7199 17.9912 38.4531 17.7592 38.1051C17.5272 37.7538 17.4112 37.3295 17.4112 36.8324C17.4112 36.3949 17.4974 36.0402 17.6697 35.7685C17.8421 35.4934 18.0724 35.2779 18.3608 35.1222C18.6491 34.9664 18.9673 34.8504 19.3153 34.7741C19.6667 34.6946 20.0196 34.6316 20.3743 34.5852C20.8383 34.5256 21.2145 34.4808 21.5028 34.451C21.7945 34.4179 22.0066 34.3632 22.1392 34.2869C22.2751 34.2107 22.343 34.0781 22.343 33.8892V33.8494C22.343 33.3589 22.2088 32.9777 21.9403 32.706C21.6752 32.4342 21.2725 32.2983 20.7322 32.2983C20.1721 32.2983 19.733 32.4209 19.4148 32.6662C19.0966 32.9115 18.8729 33.1733 18.7436 33.4517L17.63 33.054C17.8288 32.59 18.094 32.2287 18.4254 31.9702C18.7602 31.7083 19.1248 31.526 19.5192 31.4233C19.9169 31.3172 20.308 31.2642 20.6925 31.2642C20.9377 31.2642 21.2195 31.294 21.5376 31.3537C21.8591 31.41 22.169 31.5277 22.4673 31.7067C22.7689 31.8857 23.0192 32.1558 23.218 32.517C23.4169 32.8783 23.5163 33.3622 23.5163 33.9688V39H22.343V37.9659H22.2834C22.2038 38.1316 22.0713 38.3089 21.8857 38.4979C21.7 38.6868 21.4531 38.8475 21.1449 38.9801C20.8366 39.1127 20.4605 39.179 20.0163 39.179ZM20.1953 38.125C20.6593 38.125 21.0504 38.0339 21.3686 37.8516C21.6901 37.6693 21.9321 37.4339 22.0945 37.1456C22.2602 36.8572 22.343 36.554 22.343 36.2358V35.1619C22.2933 35.2216 22.1839 35.2763 22.0149 35.326C21.8492 35.3724 21.657 35.4138 21.4382 35.4503C21.2228 35.4834 21.0123 35.5133 20.8068 35.5398C20.6046 35.563 20.4406 35.5829 20.3146 35.5994C20.0097 35.6392 19.7247 35.7038 19.4595 35.7933C19.1977 35.8795 18.9856 36.0104 18.8232 36.1861C18.6641 36.3584 18.5845 36.5937 18.5845 36.892C18.5845 37.2997 18.7353 37.608 19.0369 37.8168C19.3419 38.0223 19.728 38.125 20.1953 38.125ZM28.7601 39.1591C28.0442 39.1591 27.4277 38.9901 26.9107 38.652C26.3936 38.3139 25.9959 37.8482 25.7175 37.255C25.4391 36.6617 25.2999 35.9839 25.2999 35.2216C25.2999 34.446 25.4424 33.7616 25.7275 33.1683C26.0158 32.5717 26.4168 32.1061 26.9306 31.7713C27.4476 31.4332 28.0508 31.2642 28.7402 31.2642C29.2772 31.2642 29.7611 31.3636 30.1919 31.5625C30.6228 31.7614 30.9758 32.0398 31.2509 32.3977C31.526 32.7557 31.6967 33.1733 31.763 33.6506H30.5897C30.5002 33.3026 30.3013 32.9943 29.9931 32.7259C29.6882 32.4541 29.2772 32.3182 28.7601 32.3182C28.3027 32.3182 27.9017 32.4375 27.557 32.6761C27.2156 32.9115 26.9488 33.2446 26.7566 33.6754C26.5676 34.103 26.4732 34.6051 26.4732 35.1818C26.4732 35.7718 26.566 36.2855 26.7516 36.723C26.9405 37.1605 27.2057 37.5002 27.5471 37.7422C27.8917 37.9841 28.2961 38.1051 28.7601 38.1051C29.065 38.1051 29.3418 38.0521 29.5904 37.946C29.839 37.84 30.0494 37.6875 30.2218 37.4886C30.3941 37.2898 30.5167 37.0511 30.5897 36.7727H31.763C31.6967 37.2235 31.5326 37.6295 31.2708 37.9908C31.0123 38.3487 30.6692 38.6338 30.2417 38.8459C29.8174 39.0547 29.3236 39.1591 28.7601 39.1591ZM34.5719 36.2159L34.552 34.7642H34.7907L38.1316 31.3636H39.5833L36.0236 34.9631H35.9242L34.5719 36.2159ZM33.4782 39V28.8182H34.6515V39H33.4782ZM38.3304 39L35.3475 35.2216L36.1827 34.4062L39.8219 39H38.3304ZM43.8613 42.0227C43.2946 42.0227 42.8074 41.9498 42.3997 41.804C41.992 41.6615 41.6523 41.4725 41.3805 41.2372C41.112 41.0052 40.8983 40.7566 40.7392 40.4915L41.6738 39.8352C41.7799 39.9744 41.9141 40.1335 42.0765 40.3125C42.2389 40.4948 42.461 40.6522 42.7427 40.7848C43.0278 40.9207 43.4006 40.9886 43.8613 40.9886C44.4778 40.9886 44.9866 40.8395 45.3876 40.5412C45.7886 40.2429 45.9892 39.7756 45.9892 39.1392V37.5881H45.8897C45.8036 37.7273 45.6809 37.8996 45.5218 38.1051C45.3661 38.3073 45.1407 38.4879 44.8457 38.647C44.554 38.8028 44.1596 38.8807 43.6625 38.8807C43.046 38.8807 42.4925 38.7348 42.002 38.4432C41.5147 38.1515 41.1286 37.7273 40.8436 37.1705C40.5618 36.6136 40.421 35.9375 40.421 35.142C40.421 34.3598 40.5585 33.6787 40.8336 33.0987C41.1087 32.5154 41.4915 32.0646 41.9821 31.7464C42.4726 31.425 43.0394 31.2642 43.6824 31.2642C44.1795 31.2642 44.5739 31.3471 44.8656 31.5128C45.1606 31.6752 45.3859 31.8608 45.5417 32.0696C45.7008 32.2751 45.8234 32.4441 45.9096 32.5767H46.0289V31.3636H47.1625V39.2188C47.1625 39.875 47.0133 40.4086 46.715 40.8196C46.42 41.2339 46.0223 41.5372 45.5218 41.7294C45.0247 41.925 44.4712 42.0227 43.8613 42.0227ZM43.8216 37.8267C44.2922 37.8267 44.6899 37.719 45.0147 37.5036C45.3395 37.2881 45.5865 36.9782 45.7555 36.5739C45.9245 36.1695 46.0091 35.6856 46.0091 35.1222C46.0091 34.572 45.9262 34.0864 45.7605 33.6655C45.5948 33.2446 45.3495 32.9148 45.0247 32.6761C44.6999 32.4375 44.2988 32.3182 43.8216 32.3182C43.3244 32.3182 42.9101 32.4441 42.5787 32.696C42.2505 32.9479 42.0036 33.286 41.8379 33.7102C41.6755 34.1345 41.5943 34.6051 41.5943 35.1222C41.5943 35.6525 41.6771 36.1214 41.8429 36.5291C42.0119 36.9335 42.2605 37.2517 42.5886 37.4837C42.92 37.7124 43.331 37.8267 43.8216 37.8267ZM49.3102 39V31.3636H50.4437V32.517H50.5233C50.6625 32.1392 50.9144 31.8326 51.2789 31.5973C51.6435 31.362 52.0545 31.2443 52.5119 31.2443C52.5981 31.2443 52.7058 31.246 52.835 31.2493C52.9643 31.2526 53.0621 31.2576 53.1284 31.2642V32.4574C53.0886 32.4474 52.9975 32.4325 52.8549 32.4126C52.7157 32.3894 52.5682 32.3778 52.4125 32.3778C52.0413 32.3778 51.7098 32.4557 51.4181 32.6115C51.1298 32.764 50.9011 32.9761 50.7321 33.2479C50.5663 33.5163 50.4835 33.8229 50.4835 34.1676V39H49.3102ZM57.389 39.1591C56.6996 39.1591 56.0948 38.995 55.5744 38.6669C55.0574 38.3388 54.653 37.8797 54.3613 37.2898C54.073 36.6998 53.9288 36.0104 53.9288 35.2216C53.9288 34.4261 54.073 33.7318 54.3613 33.1385C54.653 32.5452 55.0574 32.0845 55.5744 31.7564C56.0948 31.4283 56.6996 31.2642 57.389 31.2642C58.0784 31.2642 58.6816 31.4283 59.1987 31.7564C59.719 32.0845 60.1234 32.5452 60.4118 33.1385C60.7034 33.7318 60.8493 34.4261 60.8493 35.2216C60.8493 36.0104 60.7034 36.6998 60.4118 37.2898C60.1234 37.8797 59.719 38.3388 59.1987 38.6669C58.6816 38.995 58.0784 39.1591 57.389 39.1591ZM57.389 38.1051C57.9127 38.1051 58.3436 37.9709 58.6816 37.7024C59.0197 37.4339 59.2699 37.081 59.4324 36.6435C59.5948 36.206 59.676 35.732 59.676 35.2216C59.676 34.7112 59.5948 34.2356 59.4324 33.7947C59.2699 33.3539 59.0197 32.9976 58.6816 32.7259C58.3436 32.4541 57.9127 32.3182 57.389 32.3182C56.8654 32.3182 56.4345 32.4541 56.0964 32.7259C55.7583 32.9976 55.5081 33.3539 55.3457 33.7947C55.1833 34.2356 55.1021 34.7112 55.1021 35.2216C55.1021 35.732 55.1833 36.206 55.3457 36.6435C55.5081 37.081 55.7583 37.4339 56.0964 37.7024C56.4345 37.9709 56.8654 38.1051 57.389 38.1051ZM67.4528 35.8778V31.3636H68.6261V39H67.4528V37.7074H67.3732C67.1942 38.0952 66.9158 38.425 66.538 38.6967C66.1602 38.9652 65.6829 39.0994 65.1062 39.0994C64.6289 39.0994 64.2047 38.995 63.8335 38.7862C63.4622 38.5741 63.1706 38.2559 62.9585 37.8317C62.7463 37.4041 62.6403 36.8655 62.6403 36.2159V31.3636H63.8136V36.1364C63.8136 36.6932 63.9693 37.1373 64.2809 37.4688C64.5958 37.8002 64.9968 37.9659 65.484 37.9659C65.7757 37.9659 66.0723 37.8913 66.3739 37.7422C66.6789 37.593 66.9341 37.3643 67.1396 37.0561C67.3484 36.7479 67.4528 36.3551 67.4528 35.8778ZM71.9483 34.4062V39H70.775V31.3636H71.9086V32.5568H72.008C72.187 32.169 72.4587 31.8575 72.8233 31.6222C73.1879 31.3835 73.6586 31.2642 74.2353 31.2642C74.7523 31.2642 75.2047 31.3703 75.5925 31.5824C75.9803 31.7912 76.2819 32.1094 76.4973 32.5369C76.7128 32.9612 76.8205 33.4981 76.8205 34.1477V39H75.6472V34.2273C75.6472 33.6274 75.4914 33.16 75.1799 32.8253C74.8683 32.4872 74.4408 32.3182 73.8972 32.3182C73.5227 32.3182 73.1879 32.3994 72.8929 32.5618C72.6013 32.7242 72.3709 32.9612 72.2019 33.2727C72.0328 33.5843 71.9483 33.9621 71.9483 34.4062ZM81.848 39.1591C81.2116 39.1591 80.6499 38.9983 80.1626 38.6768C79.6754 38.352 79.2943 37.8946 79.0192 37.3047C78.7441 36.7114 78.6065 36.0104 78.6065 35.2017C78.6065 34.3996 78.7441 33.7036 79.0192 33.1136C79.2943 32.5237 79.6771 32.0679 80.1676 31.7464C80.6581 31.425 81.2249 31.2642 81.8679 31.2642C82.3651 31.2642 82.7578 31.3471 83.0462 31.5128C83.3378 31.6752 83.5599 31.8608 83.7124 32.0696C83.8681 32.2751 83.9891 32.4441 84.0753 32.5767H84.1747V28.8182H85.348V39H84.2145V37.8267H84.0753C83.9891 37.9659 83.8665 38.1416 83.7074 38.3537C83.5483 38.5625 83.3213 38.7498 83.0263 38.9155C82.7313 39.0779 82.3385 39.1591 81.848 39.1591ZM82.0071 38.1051C82.4777 38.1051 82.8755 37.9825 83.2003 37.7372C83.5251 37.4886 83.772 37.1456 83.9411 36.7081C84.1101 36.2673 84.1946 35.7585 84.1946 35.1818C84.1946 34.6117 84.1117 34.1129 83.946 33.6854C83.7803 33.2545 83.535 32.9197 83.2102 32.6811C82.8854 32.4392 82.4844 32.3182 82.0071 32.3182C81.5099 32.3182 81.0956 32.4458 80.7642 32.701C80.4361 32.9529 80.1892 33.2959 80.0234 33.7301C79.861 34.161 79.7798 34.6449 79.7798 35.1818C79.7798 35.7254 79.8627 36.2192 80.0284 36.6634C80.1974 37.1042 80.446 37.4555 80.7741 37.7173C81.1056 37.9759 81.5166 38.1051 82.0071 38.1051ZM88.5149 39.0795C88.2696 39.0795 88.0592 38.9917 87.8835 38.8161C87.7079 38.6404 87.62 38.4299 87.62 38.1847C87.62 37.9394 87.7079 37.7289 87.8835 37.5533C88.0592 37.3776 88.2696 37.2898 88.5149 37.2898C88.7602 37.2898 88.9706 37.3776 89.1463 37.5533C89.322 37.7289 89.4098 37.9394 89.4098 38.1847C89.4098 38.3471 89.3684 38.4962 89.2855 38.6321C89.206 38.768 89.0982 38.8774 88.9624 38.9602C88.8298 39.0398 88.6806 39.0795 88.5149 39.0795ZM88.5149 33.4119C88.2696 33.4119 88.0592 33.3241 87.8835 33.1484C87.7079 32.9728 87.62 32.7623 87.62 32.517C87.62 32.2718 87.7079 32.0613 87.8835 31.8857C88.0592 31.71 88.2696 31.6222 88.5149 31.6222C88.7602 31.6222 88.9706 31.71 89.1463 31.8857C89.322 32.0613 89.4098 32.2718 89.4098 32.517C89.4098 32.6795 89.3684 32.8286 89.2855 32.9645C89.206 33.1004 89.0982 33.2098 88.9624 33.2926C88.8298 33.3722 88.6806 33.4119 88.5149 33.4119ZM97.1829 39L94.8562 31.3636H96.0891L97.7397 37.2102H97.8192L99.4499 31.3636H100.703L102.314 37.1903H102.393L104.044 31.3636H105.277L102.95 39H101.797L100.126 33.1335H100.007L98.3363 39H97.1829ZM108.001 34.4062V39H106.828V28.8182H108.001V32.5568H108.1C108.279 32.1624 108.548 31.8492 108.906 31.6172C109.267 31.3819 109.748 31.2642 110.348 31.2642C110.868 31.2642 111.324 31.3686 111.715 31.5774C112.106 31.7829 112.409 32.0994 112.625 32.527C112.843 32.9512 112.953 33.4915 112.953 34.1477V39H111.779V34.2273C111.779 33.6207 111.622 33.1518 111.307 32.8203C110.996 32.4856 110.563 32.3182 110.01 32.3182C109.625 32.3182 109.28 32.3994 108.975 32.5618C108.674 32.7242 108.435 32.9612 108.26 33.2727C108.087 33.5843 108.001 33.9621 108.001 34.4062ZM115.099 39V31.3636H116.273V39H115.099ZM115.696 30.0909C115.467 30.0909 115.27 30.013 115.104 29.8572C114.942 29.7015 114.861 29.5142 114.861 29.2955C114.861 29.0767 114.942 28.8894 115.104 28.7337C115.27 28.5779 115.467 28.5 115.696 28.5C115.925 28.5 116.12 28.5779 116.282 28.7337C116.448 28.8894 116.531 29.0767 116.531 29.2955C116.531 29.5142 116.448 29.7015 116.282 29.8572C116.12 30.013 115.925 30.0909 115.696 30.0909ZM121.743 31.3636V32.358H117.785V31.3636H121.743ZM118.939 29.5341H120.112V36.8125C120.112 37.1439 120.16 37.3925 120.256 37.5582C120.355 37.7206 120.481 37.83 120.634 37.8864C120.79 37.9394 120.954 37.9659 121.126 37.9659C121.255 37.9659 121.361 37.9593 121.444 37.946C121.527 37.9295 121.593 37.9162 121.643 37.9062L121.882 38.9602C121.802 38.9901 121.691 39.0199 121.549 39.0497C121.406 39.0829 121.225 39.0994 121.007 39.0994C120.675 39.0994 120.35 39.0282 120.032 38.8857C119.717 38.7431 119.456 38.526 119.247 38.2344C119.041 37.9427 118.939 37.5748 118.939 37.1307V29.5341ZM126.627 39.1591C125.891 39.1591 125.257 38.9967 124.723 38.6719C124.193 38.3438 123.783 37.8864 123.495 37.2997C123.21 36.7098 123.067 36.0237 123.067 35.2415C123.067 34.4593 123.21 33.7699 123.495 33.1733C123.783 32.5734 124.184 32.1061 124.698 31.7713C125.215 31.4332 125.818 31.2642 126.508 31.2642C126.906 31.2642 127.298 31.3305 127.686 31.4631C128.074 31.5956 128.427 31.8111 128.745 32.1094C129.063 32.4044 129.317 32.7955 129.506 33.2827C129.695 33.7699 129.789 34.3698 129.789 35.0824V35.5795H123.903V34.5653H128.596C128.596 34.1345 128.51 33.75 128.337 33.4119C128.168 33.0739 127.926 32.8071 127.612 32.6115C127.3 32.416 126.932 32.3182 126.508 32.3182C126.04 32.3182 125.636 32.4342 125.295 32.6662C124.957 32.8949 124.696 33.1932 124.514 33.5611C124.332 33.929 124.241 34.3234 124.241 34.7443V35.4205C124.241 35.9972 124.34 36.486 124.539 36.8871C124.741 37.2848 125.021 37.5881 125.379 37.7969C125.737 38.0024 126.153 38.1051 126.627 38.1051C126.935 38.1051 127.214 38.062 127.462 37.9759C127.714 37.8864 127.931 37.7538 128.114 37.5781C128.296 37.3991 128.437 37.1771 128.536 36.9119L129.67 37.2301C129.55 37.6146 129.35 37.9527 129.068 38.2443C128.786 38.5327 128.438 38.758 128.024 38.9205C127.61 39.0795 127.144 39.1591 126.627 39.1591ZM133.324 37.608L133.244 38.1449C133.188 38.5227 133.102 38.9271 132.986 39.358C132.873 39.7888 132.755 40.1948 132.633 40.576C132.51 40.9571 132.409 41.2604 132.33 41.4858H131.435C131.478 41.2737 131.534 40.9936 131.604 40.6456C131.673 40.2976 131.743 39.9081 131.812 39.4773C131.885 39.0497 131.945 38.6122 131.991 38.1648L132.051 37.608H133.324ZM132.608 33.4119C132.363 33.4119 132.152 33.3241 131.977 33.1484C131.801 32.9728 131.713 32.7623 131.713 32.517C131.713 32.2718 131.801 32.0613 131.977 31.8857C132.152 31.71 132.363 31.6222 132.608 31.6222C132.853 31.6222 133.064 31.71 133.239 31.8857C133.415 32.0613 133.503 32.2718 133.503 32.517C133.503 32.6795 133.461 32.8286 133.379 32.9645C133.299 33.1004 133.191 33.2098 133.055 33.2926C132.923 33.3722 132.774 33.4119 132.608 33.4119ZM9.23295 56V45.8182H10.4062V49.5767H10.5057C10.5919 49.4441 10.7112 49.2751 10.8636 49.0696C11.0194 48.8608 11.2415 48.6752 11.5298 48.5128C11.8215 48.3471 12.2159 48.2642 12.7131 48.2642C13.3561 48.2642 13.9228 48.425 14.4134 48.7464C14.9039 49.0679 15.2867 49.5237 15.5618 50.1136C15.8369 50.7036 15.9744 51.3996 15.9744 52.2017C15.9744 53.0104 15.8369 53.7114 15.5618 54.3047C15.2867 54.8946 14.9055 55.352 14.4183 55.6768C13.9311 55.9983 13.3693 56.1591 12.733 56.1591C12.2424 56.1591 11.8497 56.0779 11.5547 55.9155C11.2597 55.7498 11.0327 55.5625 10.8736 55.3537C10.7145 55.1416 10.5919 54.9659 10.5057 54.8267H10.3665V56H9.23295ZM10.3864 52.1818C10.3864 52.7585 10.4709 53.2673 10.6399 53.7081C10.8089 54.1456 11.0559 54.4886 11.3807 54.7372C11.7055 54.9825 12.1032 55.1051 12.5739 55.1051C13.0644 55.1051 13.4737 54.9759 13.8018 54.7173C14.1333 54.4555 14.3819 54.1042 14.5476 53.6634C14.7166 53.2192 14.8011 52.7254 14.8011 52.1818C14.8011 51.6449 14.7183 51.161 14.5526 50.7301C14.3902 50.2959 14.1432 49.9529 13.8118 49.701C13.4837 49.4458 13.071 49.3182 12.5739 49.3182C12.0966 49.3182 11.6955 49.4392 11.3707 49.6811C11.0459 49.9197 10.8007 50.2545 10.6349 50.6854C10.4692 51.1129 10.3864 51.6117 10.3864 52.1818ZM20.8714 56.1591C20.1821 56.1591 19.5772 55.995 19.0568 55.6669C18.5398 55.3388 18.1354 54.8797 17.8438 54.2898C17.5554 53.6998 17.4112 53.0104 17.4112 52.2216C17.4112 51.4261 17.5554 50.7318 17.8438 50.1385C18.1354 49.5452 18.5398 49.0845 19.0568 48.7564C19.5772 48.4283 20.1821 48.2642 20.8714 48.2642C21.5608 48.2642 22.1641 48.4283 22.6811 48.7564C23.2015 49.0845 23.6058 49.5452 23.8942 50.1385C24.1858 50.7318 24.3317 51.4261 24.3317 52.2216C24.3317 53.0104 24.1858 53.6998 23.8942 54.2898C23.6058 54.8797 23.2015 55.3388 22.6811 55.6669C22.1641 55.995 21.5608 56.1591 20.8714 56.1591ZM20.8714 55.1051C21.3951 55.1051 21.826 54.9709 22.1641 54.7024C22.5021 54.4339 22.7524 54.081 22.9148 53.6435C23.0772 53.206 23.1584 52.732 23.1584 52.2216C23.1584 51.7112 23.0772 51.2356 22.9148 50.7947C22.7524 50.3539 22.5021 49.9976 22.1641 49.7259C21.826 49.4541 21.3951 49.3182 20.8714 49.3182C20.3478 49.3182 19.9169 49.4541 19.5788 49.7259C19.2408 49.9976 18.9905 50.3539 18.8281 50.7947C18.6657 51.2356 18.5845 51.7112 18.5845 52.2216C18.5845 52.732 18.6657 53.206 18.8281 53.6435C18.9905 54.081 19.2408 54.4339 19.5788 54.7024C19.9169 54.9709 20.3478 55.1051 20.8714 55.1051ZM26.1227 56V48.3636H27.2562V49.517H27.3358C27.475 49.1392 27.7269 48.8326 28.0914 48.5973C28.456 48.362 28.867 48.2443 29.3244 48.2443C29.4106 48.2443 29.5183 48.246 29.6475 48.2493C29.7768 48.2526 29.8746 48.2576 29.9409 48.2642V49.4574C29.9011 49.4474 29.81 49.4325 29.6674 49.4126C29.5282 49.3894 29.3807 49.3778 29.225 49.3778C28.8538 49.3778 28.5223 49.4557 28.2306 49.6115C27.9423 49.764 27.7136 49.9761 27.5446 50.2479C27.3788 50.5163 27.296 50.8229 27.296 51.1676V56H26.1227ZM33.9828 56.1591C33.3464 56.1591 32.7846 55.9983 32.2974 55.6768C31.8102 55.352 31.429 54.8946 31.1539 54.3047C30.8788 53.7114 30.7413 53.0104 30.7413 52.2017C30.7413 51.3996 30.8788 50.7036 31.1539 50.1136C31.429 49.5237 31.8118 49.0679 32.3024 48.7464C32.7929 48.425 33.3597 48.2642 34.0027 48.2642C34.4998 48.2642 34.8926 48.3471 35.1809 48.5128C35.4726 48.6752 35.6947 48.8608 35.8471 49.0696C36.0029 49.2751 36.1239 49.4441 36.21 49.5767H36.3095V45.8182H37.4828V56H36.3493V54.8267H36.21C36.1239 54.9659 36.0012 55.1416 35.8422 55.3537C35.6831 55.5625 35.456 55.7498 35.161 55.9155C34.8661 56.0779 34.4733 56.1591 33.9828 56.1591ZM34.1419 55.1051C34.6125 55.1051 35.0102 54.9825 35.335 54.7372C35.6599 54.4886 35.9068 54.1456 36.0758 53.7081C36.2449 53.2673 36.3294 52.7585 36.3294 52.1818C36.3294 51.6117 36.2465 51.1129 36.0808 50.6854C35.9151 50.2545 35.6698 49.9197 35.345 49.6811C35.0202 49.4392 34.6191 49.3182 34.1419 49.3182C33.6447 49.3182 33.2304 49.4458 32.899 49.701C32.5708 49.9529 32.3239 50.2959 32.1582 50.7301C31.9958 51.161 31.9146 51.6449 31.9146 52.1818C31.9146 52.7254 31.9975 53.2192 32.1632 53.6634C32.3322 54.1042 32.5808 54.4555 32.9089 54.7173C33.2404 54.9759 33.6513 55.1051 34.1419 55.1051ZM42.9963 56.1591C42.2605 56.1591 41.6258 55.9967 41.0922 55.6719C40.5618 55.3438 40.1525 54.8864 39.8642 54.2997C39.5791 53.7098 39.4366 53.0237 39.4366 52.2415C39.4366 51.4593 39.5791 50.7699 39.8642 50.1733C40.1525 49.5734 40.5536 49.1061 41.0673 48.7713C41.5843 48.4332 42.1876 48.2642 42.877 48.2642C43.2747 48.2642 43.6674 48.3305 44.0552 48.4631C44.443 48.5956 44.796 48.8111 45.1142 49.1094C45.4324 49.4044 45.6859 49.7955 45.8748 50.2827C46.0637 50.7699 46.1582 51.3698 46.1582 52.0824V52.5795H40.2718V51.5653H44.965C44.965 51.1345 44.8788 50.75 44.7065 50.4119C44.5375 50.0739 44.2955 49.8071 43.9806 49.6115C43.6691 49.416 43.3012 49.3182 42.877 49.3182C42.4096 49.3182 42.0053 49.4342 41.6639 49.6662C41.3258 49.8949 41.0656 50.1932 40.8833 50.5611C40.7011 50.929 40.6099 51.3234 40.6099 51.7443V52.4205C40.6099 52.9972 40.7093 53.486 40.9082 53.8871C41.1104 54.2848 41.3904 54.5881 41.7484 54.7969C42.1064 55.0024 42.5223 55.1051 42.9963 55.1051C43.3045 55.1051 43.5829 55.062 43.8315 54.9759C44.0834 54.8864 44.3005 54.7538 44.4828 54.5781C44.6651 54.3991 44.8059 54.1771 44.9054 53.9119L46.0389 54.2301C45.9196 54.6146 45.719 54.9527 45.4373 55.2443C45.1556 55.5327 44.8076 55.758 44.3933 55.9205C43.979 56.0795 43.5133 56.1591 42.9963 56.1591ZM47.943 56V48.3636H49.0765V49.517H49.1561C49.2953 49.1392 49.5472 48.8326 49.9118 48.5973C50.2763 48.362 50.6873 48.2443 51.1447 48.2443C51.2309 48.2443 51.3386 48.246 51.4679 48.2493C51.5971 48.2526 51.6949 48.2576 51.7612 48.2642V49.4574C51.7214 49.4474 51.6303 49.4325 51.4877 49.4126C51.3485 49.3894 51.2011 49.3778 51.0453 49.3778C50.6741 49.3778 50.3426 49.4557 50.051 49.6115C49.7626 49.764 49.5339 49.9761 49.3649 50.2479C49.1992 50.5163 49.1163 50.8229 49.1163 51.1676V56H47.943ZM56.9664 51.0881V52.1818H52.5119V51.0881H56.9664ZM59.0309 56V48.3636H60.1644V49.517H60.244C60.3832 49.1392 60.6351 48.8326 60.9996 48.5973C61.3642 48.362 61.7752 48.2443 62.2326 48.2443C62.3188 48.2443 62.4265 48.246 62.5558 48.2493C62.685 48.2526 62.7828 48.2576 62.8491 48.2642V49.4574C62.8093 49.4474 62.7182 49.4325 62.5756 49.4126C62.4364 49.3894 62.2889 49.3778 62.1332 49.3778C61.762 49.3778 61.4305 49.4557 61.1388 49.6115C60.8505 49.764 60.6218 49.9761 60.4528 50.2479C60.2871 50.5163 60.2042 50.8229 60.2042 51.1676V56H59.0309ZM66.487 56.179C66.0031 56.179 65.564 56.0878 65.1696 55.9055C64.7752 55.7199 64.4619 55.4531 64.2299 55.1051C63.9979 54.7538 63.8819 54.3295 63.8819 53.8324C63.8819 53.3949 63.9681 53.0402 64.1404 52.7685C64.3128 52.4934 64.5431 52.2779 64.8315 52.1222C65.1199 51.9664 65.438 51.8504 65.786 51.7741C66.1374 51.6946 66.4904 51.6316 66.845 51.5852C67.309 51.5256 67.6852 51.4808 67.9735 51.451C68.2652 51.4179 68.4773 51.3632 68.6099 51.2869C68.7458 51.2107 68.8137 51.0781 68.8137 50.8892V50.8494C68.8137 50.3589 68.6795 49.9777 68.411 49.706C68.1459 49.4342 67.7432 49.2983 67.2029 49.2983C66.6428 49.2983 66.2037 49.4209 65.8855 49.6662C65.5673 49.9115 65.3436 50.1733 65.2143 50.4517L64.1007 50.054C64.2995 49.59 64.5647 49.2287 64.8961 48.9702C65.2309 48.7083 65.5955 48.526 65.9899 48.4233C66.3876 48.3172 66.7787 48.2642 67.1632 48.2642C67.4084 48.2642 67.6902 48.294 68.0083 48.3537C68.3298 48.41 68.6397 48.5277 68.938 48.7067C69.2396 48.8857 69.4899 49.1558 69.6887 49.517C69.8876 49.8783 69.987 50.3622 69.987 50.9688V56H68.8137V54.9659H68.7541C68.6745 55.1316 68.542 55.3089 68.3564 55.4979C68.1708 55.6868 67.9238 55.8475 67.6156 55.9801C67.3074 56.1127 66.9312 56.179 66.487 56.179ZM66.666 55.125C67.13 55.125 67.5211 55.0339 67.8393 54.8516C68.1608 54.6693 68.4028 54.4339 68.5652 54.1456C68.7309 53.8572 68.8137 53.554 68.8137 53.2358V52.1619C68.764 52.2216 68.6547 52.2763 68.4856 52.326C68.3199 52.3724 68.1277 52.4138 67.9089 52.4503C67.6935 52.4834 67.483 52.5133 67.2775 52.5398C67.0753 52.563 66.9113 52.5829 66.7853 52.5994C66.4804 52.6392 66.1954 52.7038 65.9302 52.7933C65.6684 52.8795 65.4563 53.0104 65.2939 53.1861C65.1348 53.3584 65.0552 53.5937 65.0552 53.892C65.0552 54.2997 65.206 54.608 65.5076 54.8168C65.8126 55.0223 66.1987 55.125 66.666 55.125ZM75.0121 56.1591C74.3757 56.1591 73.8139 55.9983 73.3267 55.6768C72.8395 55.352 72.4583 54.8946 72.1832 54.3047C71.9081 53.7114 71.7706 53.0104 71.7706 52.2017C71.7706 51.3996 71.9081 50.7036 72.1832 50.1136C72.4583 49.5237 72.8411 49.0679 73.3317 48.7464C73.8222 48.425 74.389 48.2642 75.032 48.2642C75.5291 48.2642 75.9219 48.3471 76.2102 48.5128C76.5019 48.6752 76.724 48.8608 76.8764 49.0696C77.0322 49.2751 77.1532 49.4441 77.2393 49.5767H77.3388V45.8182H78.5121V56H77.3786V54.8267H77.2393C77.1532 54.9659 77.0305 55.1416 76.8714 55.3537C76.7124 55.5625 76.4853 55.7498 76.1903 55.9155C75.8954 56.0779 75.5026 56.1591 75.0121 56.1591ZM75.1712 55.1051C75.6418 55.1051 76.0395 54.9825 76.3643 54.7372C76.6892 54.4886 76.9361 54.1456 77.1051 53.7081C77.2741 53.2673 77.3587 52.7585 77.3587 52.1818C77.3587 51.6117 77.2758 51.1129 77.1101 50.6854C76.9444 50.2545 76.6991 49.9197 76.3743 49.6811C76.0495 49.4392 75.6484 49.3182 75.1712 49.3182C74.674 49.3182 74.2597 49.4458 73.9283 49.701C73.6001 49.9529 73.3532 50.2959 73.1875 50.7301C73.0251 51.161 72.9439 51.6449 72.9439 52.1818C72.9439 52.7254 73.0268 53.2192 73.1925 53.6634C73.3615 54.1042 73.6101 54.4555 73.9382 54.7173C74.2696 54.9759 74.6806 55.1051 75.1712 55.1051ZM80.8239 56V48.3636H81.9972V56H80.8239ZM81.4205 47.0909C81.1918 47.0909 80.9946 47.013 80.8288 46.8572C80.6664 46.7015 80.5852 46.5142 80.5852 46.2955C80.5852 46.0767 80.6664 45.8894 80.8288 45.7337C80.9946 45.5779 81.1918 45.5 81.4205 45.5C81.6491 45.5 81.8447 45.5779 82.0071 45.7337C82.1728 45.8894 82.2557 46.0767 82.2557 46.2955C82.2557 46.5142 82.1728 46.7015 82.0071 46.8572C81.8447 47.013 81.6491 47.0909 81.4205 47.0909ZM88.9586 52.8778V48.3636H90.1319V56H88.9586V54.7074H88.8791C88.7001 55.0952 88.4217 55.425 88.0439 55.6967C87.666 55.9652 87.1887 56.0994 86.612 56.0994C86.1348 56.0994 85.7105 55.995 85.3393 55.7862C84.9681 55.5741 84.6764 55.2559 84.4643 54.8317C84.2522 54.4041 84.1461 53.8655 84.1461 53.2159V48.3636H85.3194V53.1364C85.3194 53.6932 85.4752 54.1373 85.7868 54.4688C86.1016 54.8002 86.5027 54.9659 86.9899 54.9659C87.2815 54.9659 87.5782 54.8913 87.8798 54.7422C88.1847 54.593 88.4399 54.3643 88.6454 54.0561C88.8542 53.7479 88.9586 53.3551 88.9586 52.8778ZM97.69 50.0739L96.636 50.3722C96.5697 50.1965 96.4719 50.0258 96.3427 49.8601C96.2167 49.6911 96.0444 49.5518 95.8256 49.4425C95.6069 49.3331 95.3268 49.2784 94.9854 49.2784C94.5181 49.2784 94.1287 49.3861 93.8171 49.6016C93.5089 49.8137 93.3548 50.0838 93.3548 50.4119C93.3548 50.7036 93.4608 50.9339 93.6729 51.103C93.8851 51.272 94.2165 51.4129 94.6673 51.5256L95.8008 51.804C96.4835 51.9697 96.9923 52.2232 97.3271 52.5646C97.6618 52.9027 97.8292 53.3385 97.8292 53.8722C97.8292 54.3097 97.7032 54.7008 97.4513 55.0455C97.2028 55.3902 96.8548 55.6619 96.4073 55.8608C95.9599 56.0597 95.4395 56.1591 94.8462 56.1591C94.0674 56.1591 93.4227 55.9901 92.9123 55.652C92.4019 55.3139 92.0787 54.8201 91.9428 54.1705L93.0565 53.892C93.1625 54.303 93.363 54.6113 93.658 54.8168C93.9563 55.0223 94.3458 55.125 94.8263 55.125C95.3732 55.125 95.8074 55.009 96.1289 54.777C96.4537 54.5417 96.6161 54.2599 96.6161 53.9318C96.6161 53.6667 96.5233 53.4446 96.3377 53.2656C96.1521 53.0833 95.8671 52.9474 95.4826 52.858L94.2099 52.5597C93.5105 52.3939 92.9968 52.1371 92.6687 51.7891C92.3439 51.4377 92.1815 50.9986 92.1815 50.4716C92.1815 50.0407 92.3024 49.6596 92.5444 49.3281C92.7897 48.9967 93.1228 48.7365 93.5437 48.5476C93.9679 48.3587 94.4485 48.2642 94.9854 48.2642C95.7411 48.2642 96.3344 48.4299 96.7653 48.7614C97.1995 49.0928 97.5077 49.5303 97.69 50.0739ZM100.45 56.0795C100.205 56.0795 99.9947 55.9917 99.8191 55.8161C99.6434 55.6404 99.5556 55.4299 99.5556 55.1847C99.5556 54.9394 99.6434 54.7289 99.8191 54.5533C99.9947 54.3776 100.205 54.2898 100.45 54.2898C100.696 54.2898 100.906 54.3776 101.082 54.5533C101.258 54.7289 101.345 54.9394 101.345 55.1847C101.345 55.3471 101.304 55.4962 101.221 55.6321C101.142 55.768 101.034 55.8774 100.898 55.9602C100.765 56.0398 100.616 56.0795 100.45 56.0795ZM100.45 50.4119C100.205 50.4119 99.9947 50.3241 99.8191 50.1484C99.6434 49.9728 99.5556 49.7623 99.5556 49.517C99.5556 49.2718 99.6434 49.0613 99.8191 48.8857C99.9947 48.71 100.205 48.6222 100.45 48.6222C100.696 48.6222 100.906 48.71 101.082 48.8857C101.258 49.0613 101.345 49.2718 101.345 49.517C101.345 49.6795 101.304 49.8286 101.221 49.9645C101.142 50.1004 101.034 50.2098 100.898 50.2926C100.765 50.3722 100.616 50.4119 100.45 50.4119ZM110.948 45.8182V56H109.715V47.1108H109.655L107.17 48.7614V47.5085L109.715 45.8182H110.948ZM117.197 56.1392C116.448 56.1392 115.81 55.9354 115.283 55.5277C114.756 55.1167 114.354 54.5218 114.075 53.7429C113.797 52.9607 113.657 52.0161 113.657 50.9091C113.657 49.8087 113.797 48.8691 114.075 48.0902C114.357 47.308 114.761 46.7114 115.288 46.3004C115.818 45.8861 116.455 45.679 117.197 45.679C117.94 45.679 118.574 45.8861 119.101 46.3004C119.632 46.7114 120.036 47.308 120.314 48.0902C120.596 48.8691 120.737 49.8087 120.737 50.9091C120.737 52.0161 120.598 52.9607 120.319 53.7429C120.041 54.5218 119.638 55.1167 119.111 55.5277C118.584 55.9354 117.946 56.1392 117.197 56.1392ZM117.197 55.0455C117.94 55.0455 118.516 54.6875 118.927 53.9716C119.338 53.2557 119.544 52.2348 119.544 50.9091C119.544 50.0275 119.449 49.2768 119.26 48.657C119.075 48.0372 118.806 47.5649 118.455 47.2401C118.107 46.9152 117.688 46.7528 117.197 46.7528C116.461 46.7528 115.886 47.1158 115.472 47.8416C115.058 48.5642 114.851 49.5866 114.851 50.9091C114.851 51.7907 114.943 52.5398 115.129 53.1562C115.315 53.7727 115.581 54.2417 115.93 54.5632C116.281 54.8847 116.703 55.0455 117.197 55.0455ZM122.646 58.8636V48.3636H123.78V49.5767H123.919C124.005 49.4441 124.124 49.2751 124.277 49.0696C124.433 48.8608 124.655 48.6752 124.943 48.5128C125.235 48.3471 125.629 48.2642 126.126 48.2642C126.769 48.2642 127.336 48.425 127.827 48.7464C128.317 49.0679 128.7 49.5237 128.975 50.1136C129.25 50.7036 129.388 51.3996 129.388 52.2017C129.388 53.0104 129.25 53.7114 128.975 54.3047C128.7 54.8946 128.319 55.352 127.831 55.6768C127.344 55.9983 126.782 56.1591 126.146 56.1591C125.656 56.1591 125.263 56.0779 124.968 55.9155C124.673 55.7498 124.446 55.5625 124.287 55.3537C124.128 55.1416 124.005 54.9659 123.919 54.8267H123.819V58.8636H122.646ZM123.8 52.1818C123.8 52.7585 123.884 53.2673 124.053 53.7081C124.222 54.1456 124.469 54.4886 124.794 54.7372C125.119 54.9825 125.516 55.1051 125.987 55.1051C126.478 55.1051 126.887 54.9759 127.215 54.7173C127.546 54.4555 127.795 54.1042 127.961 53.6634C128.13 53.2192 128.214 52.7254 128.214 52.1818C128.214 51.6449 128.131 51.161 127.966 50.7301C127.803 50.2959 127.556 49.9529 127.225 49.701C126.897 49.4458 126.484 49.3182 125.987 49.3182C125.51 49.3182 125.109 49.4392 124.784 49.6811C124.459 49.9197 124.214 50.2545 124.048 50.6854C123.882 51.1129 123.8 51.6117 123.8 52.1818ZM131.738 48.3636L133.567 51.4858L135.397 48.3636H136.749L134.283 52.1818L136.749 56H135.397L133.567 53.0369L131.738 56H130.386L132.812 52.1818L130.386 48.3636H131.738ZM140.173 54.608L140.094 55.1449C140.038 55.5227 139.951 55.9271 139.835 56.358C139.723 56.7888 139.605 57.1948 139.482 57.576C139.36 57.9571 139.259 58.2604 139.179 58.4858H138.284C138.327 58.2737 138.384 57.9936 138.453 57.6456C138.523 57.2976 138.593 56.9081 138.662 56.4773C138.735 56.0497 138.795 55.6122 138.841 55.1648L138.901 54.608H140.173ZM139.458 50.4119C139.212 50.4119 139.002 50.3241 138.826 50.1484C138.651 49.9728 138.563 49.7623 138.563 49.517C138.563 49.2718 138.651 49.0613 138.826 48.8857C139.002 48.71 139.212 48.6222 139.458 48.6222C139.703 48.6222 139.913 48.71 140.089 48.8857C140.265 49.0613 140.352 49.2718 140.352 49.517C140.352 49.6795 140.311 49.8286 140.228 49.9645C140.149 50.1004 140.041 50.2098 139.905 50.2926C139.772 50.3722 139.623 50.4119 139.458 50.4119ZM9.07386 73V65.3636H10.2074V66.5568H10.3068C10.4659 66.1491 10.7228 65.8326 11.0774 65.6072C11.4321 65.3786 11.858 65.2642 12.3551 65.2642C12.8589 65.2642 13.2782 65.3786 13.6129 65.6072C13.951 65.8326 14.2145 66.1491 14.4034 66.5568H14.483C14.6785 66.1624 14.9718 65.8492 15.3629 65.6172C15.754 65.3819 16.223 65.2642 16.7699 65.2642C17.4527 65.2642 18.0111 65.478 18.4453 65.9055C18.8795 66.3298 19.0966 66.991 19.0966 67.8892V73H17.9233V67.8892C17.9233 67.3258 17.7692 66.9231 17.4609 66.6811C17.1527 66.4392 16.7898 66.3182 16.3722 66.3182C15.8352 66.3182 15.4193 66.4806 15.1243 66.8054C14.8293 67.1269 14.6818 67.5346 14.6818 68.0284V73H13.4886V67.7699C13.4886 67.3357 13.3478 66.986 13.0661 66.7209C12.7843 66.4524 12.4214 66.3182 11.9773 66.3182C11.6723 66.3182 11.3873 66.3994 11.1222 66.5618C10.8603 66.7242 10.6482 66.9496 10.4858 67.2379C10.3267 67.523 10.2472 67.8527 10.2472 68.2273V73H9.07386ZM23.489 73.179C23.0051 73.179 22.5659 73.0878 22.1715 72.9055C21.7771 72.7199 21.4639 72.4531 21.2319 72.1051C20.9999 71.7538 20.8839 71.3295 20.8839 70.8324C20.8839 70.3949 20.9701 70.0402 21.1424 69.7685C21.3147 69.4934 21.5451 69.2779 21.8335 69.1222C22.1218 68.9664 22.44 68.8504 22.788 68.7741C23.1393 68.6946 23.4923 68.6316 23.8469 68.5852C24.311 68.5256 24.6871 68.4808 24.9755 68.451C25.2672 68.4179 25.4793 68.3632 25.6119 68.2869C25.7478 68.2107 25.8157 68.0781 25.8157 67.8892V67.8494C25.8157 67.3589 25.6815 66.9777 25.413 66.706C25.1478 66.4342 24.7451 66.2983 24.2049 66.2983C23.6448 66.2983 23.2056 66.4209 22.8874 66.6662C22.5692 66.9115 22.3455 67.1733 22.2163 67.4517L21.1026 67.054C21.3015 66.59 21.5666 66.2287 21.8981 65.9702C22.2328 65.7083 22.5974 65.526 22.9918 65.4233C23.3896 65.3172 23.7807 65.2642 24.1651 65.2642C24.4104 65.2642 24.6921 65.294 25.0103 65.3537C25.3318 65.41 25.6417 65.5277 25.94 65.7067C26.2416 65.8857 26.4918 66.1558 26.6907 66.517C26.8896 66.8783 26.989 67.3622 26.989 67.9688V73H25.8157V71.9659H25.756C25.6765 72.1316 25.5439 72.3089 25.3583 72.4979C25.1727 72.6868 24.9258 72.8475 24.6175 72.9801C24.3093 73.1127 23.9331 73.179 23.489 73.179ZM23.668 72.125C24.132 72.125 24.5231 72.0339 24.8413 71.8516C25.1628 71.6693 25.4047 71.4339 25.5671 71.1456C25.7328 70.8572 25.8157 70.554 25.8157 70.2358V69.1619C25.766 69.2216 25.6566 69.2763 25.4876 69.326C25.3219 69.3724 25.1296 69.4138 24.9109 69.4503C24.6954 69.4834 24.485 69.5133 24.2795 69.5398C24.0773 69.563 23.9132 69.5829 23.7873 69.5994C23.4824 69.6392 23.1973 69.7038 22.9322 69.7933C22.6703 69.8795 22.4582 70.0104 22.2958 70.1861C22.1367 70.3584 22.0572 70.5937 22.0572 70.892C22.0572 71.2997 22.208 71.608 22.5096 71.8168C22.8145 72.0223 23.2006 72.125 23.668 72.125ZM29.1305 73V65.3636H30.264V66.517H30.3436C30.4828 66.1392 30.7347 65.8326 31.0993 65.5973C31.4638 65.362 31.8748 65.2443 32.3322 65.2443C32.4184 65.2443 32.5261 65.246 32.6554 65.2493C32.7846 65.2526 32.8824 65.2576 32.9487 65.2642V66.4574C32.9089 66.4474 32.8178 66.4325 32.6752 66.4126C32.536 66.3894 32.3886 66.3778 32.2328 66.3778C31.8616 66.3778 31.5301 66.4557 31.2385 66.6115C30.9501 66.764 30.7214 66.9761 30.5524 67.2479C30.3867 67.5163 30.3038 67.8229 30.3038 68.1676V73H29.1305ZM37.1895 76.0227C36.6227 76.0227 36.1355 75.9498 35.7278 75.804C35.3201 75.6615 34.9804 75.4725 34.7086 75.2372C34.4402 75.0052 34.2264 74.7566 34.0673 74.4915L35.002 73.8352C35.108 73.9744 35.2422 74.1335 35.4047 74.3125C35.5671 74.4948 35.7891 74.6522 36.0708 74.7848C36.3559 74.9207 36.7288 74.9886 37.1895 74.9886C37.8059 74.9886 38.3147 74.8395 38.7157 74.5412C39.1168 74.2429 39.3173 73.7756 39.3173 73.1392V71.5881H39.2179C39.1317 71.7273 39.0091 71.8996 38.85 72.1051C38.6942 72.3073 38.4688 72.4879 38.1738 72.647C37.8822 72.8028 37.4877 72.8807 36.9906 72.8807C36.3741 72.8807 35.8206 72.7348 35.3301 72.4432C34.8429 72.1515 34.4567 71.7273 34.1717 71.1705C33.89 70.6136 33.7491 69.9375 33.7491 69.142C33.7491 68.3598 33.8867 67.6787 34.1618 67.0987C34.4368 66.5154 34.8197 66.0646 35.3102 65.7464C35.8007 65.425 36.3675 65.2642 37.0105 65.2642C37.5076 65.2642 37.902 65.3471 38.1937 65.5128C38.4887 65.6752 38.7141 65.8608 38.8699 66.0696C39.0289 66.2751 39.1516 66.4441 39.2377 66.5767H39.3571V65.3636H40.4906V73.2188C40.4906 73.875 40.3414 74.4086 40.0431 74.8196C39.7482 75.2339 39.3504 75.5372 38.85 75.7294C38.3528 75.925 37.7993 76.0227 37.1895 76.0227ZM37.1497 71.8267C37.6203 71.8267 38.0181 71.719 38.3429 71.5036C38.6677 71.2881 38.9146 70.9782 39.0836 70.5739C39.2527 70.1695 39.3372 69.6856 39.3372 69.1222C39.3372 68.572 39.2543 68.0864 39.0886 67.6655C38.9229 67.2446 38.6776 66.9148 38.3528 66.6761C38.028 66.4375 37.627 66.3182 37.1497 66.3182C36.6525 66.3182 36.2382 66.4441 35.9068 66.696C35.5787 66.9479 35.3317 67.286 35.166 67.7102C35.0036 68.1345 34.9224 68.6051 34.9224 69.1222C34.9224 69.6525 35.0053 70.1214 35.171 70.5291C35.34 70.9335 35.5886 71.2517 35.9167 71.4837C36.2482 71.7124 36.6592 71.8267 37.1497 71.8267ZM42.6383 73V65.3636H43.8116V73H42.6383ZM43.2349 64.0909C43.0062 64.0909 42.809 64.013 42.6433 63.8572C42.4809 63.7015 42.3997 63.5142 42.3997 63.2955C42.3997 63.0767 42.4809 62.8894 42.6433 62.7337C42.809 62.5779 43.0062 62.5 43.2349 62.5C43.4636 62.5 43.6592 62.5779 43.8216 62.7337C43.9873 62.8894 44.0701 63.0767 44.0701 63.2955C44.0701 63.5142 43.9873 63.7015 43.8216 63.8572C43.6592 64.013 43.4636 64.0909 43.2349 64.0909ZM47.1339 68.4062V73H45.9606V65.3636H47.0941V66.5568H47.1935C47.3725 66.169 47.6443 65.8575 48.0089 65.6222C48.3735 65.3835 48.8441 65.2642 49.4208 65.2642C49.9379 65.2642 50.3903 65.3703 50.7781 65.5824C51.1658 65.7912 51.4674 66.1094 51.6829 66.5369C51.8983 66.9612 52.006 67.4981 52.006 68.1477V73H50.8327V68.2273C50.8327 67.6274 50.677 67.16 50.3654 66.8253C50.0539 66.4872 49.6263 66.3182 49.0827 66.3182C48.7082 66.3182 48.3735 66.3994 48.0785 66.5618C47.7868 66.7242 47.5565 66.9612 47.3874 67.2727C47.2184 67.5843 47.1339 67.9621 47.1339 68.4062ZM55.0051 73.0795C54.7599 73.0795 54.5494 72.9917 54.3738 72.8161C54.1981 72.6404 54.1103 72.4299 54.1103 72.1847C54.1103 71.9394 54.1981 71.7289 54.3738 71.5533C54.5494 71.3776 54.7599 71.2898 55.0051 71.2898C55.2504 71.2898 55.4609 71.3776 55.6365 71.5533C55.8122 71.7289 55.9 71.9394 55.9 72.1847C55.9 72.3471 55.8586 72.4962 55.7757 72.6321C55.6962 72.768 55.5885 72.8774 55.4526 72.9602C55.32 73.0398 55.1709 73.0795 55.0051 73.0795ZM55.0051 67.4119C54.7599 67.4119 54.5494 67.3241 54.3738 67.1484C54.1981 66.9728 54.1103 66.7623 54.1103 66.517C54.1103 66.2718 54.1981 66.0613 54.3738 65.8857C54.5494 65.71 54.7599 65.6222 55.0051 65.6222C55.2504 65.6222 55.4609 65.71 55.6365 65.8857C55.8122 66.0613 55.9 66.2718 55.9 66.517C55.9 66.6795 55.8586 66.8286 55.7757 66.9645C55.6962 67.1004 55.5885 67.2098 55.4526 67.2926C55.32 67.3722 55.1709 67.4119 55.0051 67.4119ZM64.1902 73.179C63.7063 73.179 63.2671 73.0878 62.8727 72.9055C62.4783 72.7199 62.1651 72.4531 61.9331 72.1051C61.7011 71.7538 61.585 71.3295 61.585 70.8324C61.585 70.3949 61.6712 70.0402 61.8436 69.7685C62.0159 69.4934 62.2463 69.2779 62.5346 69.1222C62.823 68.9664 63.1412 68.8504 63.4892 68.7741C63.8405 68.6946 64.1935 68.6316 64.5481 68.5852C65.0121 68.5256 65.3883 68.4808 65.6767 68.451C65.9683 68.4179 66.1805 68.3632 66.313 68.2869C66.4489 68.2107 66.5169 68.0781 66.5169 67.8892V67.8494C66.5169 67.3589 66.3826 66.9777 66.1142 66.706C65.849 66.4342 65.4463 66.2983 64.9061 66.2983C64.3459 66.2983 63.9068 66.4209 63.5886 66.6662C63.2704 66.9115 63.0467 67.1733 62.9174 67.4517L61.8038 67.054C62.0027 66.59 62.2678 66.2287 62.5993 65.9702C62.934 65.7083 63.2986 65.526 63.693 65.4233C64.0907 65.3172 64.4818 65.2642 64.8663 65.2642C65.1116 65.2642 65.3933 65.294 65.7115 65.3537C66.033 65.41 66.3429 65.5277 66.6412 65.7067C66.9428 65.8857 67.193 66.1558 67.3919 66.517C67.5907 66.8783 67.6902 67.3622 67.6902 67.9688V73H66.5169V71.9659H66.4572C66.3777 72.1316 66.2451 72.3089 66.0595 72.4979C65.8739 72.6868 65.627 72.8475 65.3187 72.9801C65.0105 73.1127 64.6343 73.179 64.1902 73.179ZM64.3691 72.125C64.8332 72.125 65.2243 72.0339 65.5424 71.8516C65.8639 71.6693 66.1059 71.4339 66.2683 71.1456C66.434 70.8572 66.5169 70.554 66.5169 70.2358V69.1619C66.4672 69.2216 66.3578 69.2763 66.1887 69.326C66.023 69.3724 65.8308 69.4138 65.612 69.4503C65.3966 69.4834 65.1861 69.5133 64.9806 69.5398C64.7785 69.563 64.6144 69.5829 64.4885 69.5994C64.1835 69.6392 63.8985 69.7038 63.6333 69.7933C63.3715 69.8795 63.1594 70.0104 62.997 70.1861C62.8379 70.3584 62.7583 70.5937 62.7583 70.892C62.7583 71.2997 62.9092 71.608 63.2108 71.8168C63.5157 72.0223 63.9018 72.125 64.3691 72.125ZM74.6442 69.8778V65.3636H75.8175V73H74.6442V71.7074H74.5646C74.3857 72.0952 74.1072 72.425 73.7294 72.6967C73.3516 72.9652 72.8743 73.0994 72.2976 73.0994C71.8203 73.0994 71.3961 72.995 71.0249 72.7862C70.6536 72.5741 70.362 72.2559 70.1499 71.8317C69.9377 71.4041 69.8317 70.8655 69.8317 70.2159V65.3636H71.005V70.1364C71.005 70.6932 71.1607 71.1373 71.4723 71.4688C71.7872 71.8002 72.1882 71.9659 72.6754 71.9659C72.9671 71.9659 73.2637 71.8913 73.5653 71.7422C73.8703 71.593 74.1255 71.3643 74.331 71.0561C74.5398 70.7479 74.6442 70.3551 74.6442 69.8778ZM81.2875 65.3636V66.358H77.3301V65.3636H81.2875ZM78.4835 63.5341H79.6568V70.8125C79.6568 71.1439 79.7048 71.3925 79.801 71.5582C79.9004 71.7206 80.0263 71.83 80.1788 71.8864C80.3346 71.9394 80.4986 71.9659 80.671 71.9659C80.8002 71.9659 80.9063 71.9593 80.9892 71.946C81.072 71.9295 81.1383 71.9162 81.188 71.9062L81.4267 72.9602C81.3471 72.9901 81.2361 73.0199 81.0936 73.0497C80.9511 73.0829 80.7704 73.0994 80.5517 73.0994C80.2202 73.0994 79.8954 73.0282 79.5772 72.8857C79.2624 72.7431 79.0005 72.526 78.7917 72.2344C78.5862 71.9427 78.4835 71.5748 78.4835 71.1307V63.5341ZM86.0726 73.1591C85.3832 73.1591 84.7784 72.995 84.258 72.6669C83.7409 72.3388 83.3366 71.8797 83.0449 71.2898C82.7566 70.6998 82.6124 70.0104 82.6124 69.2216C82.6124 68.4261 82.7566 67.7318 83.0449 67.1385C83.3366 66.5452 83.7409 66.0845 84.258 65.7564C84.7784 65.4283 85.3832 65.2642 86.0726 65.2642C86.762 65.2642 87.3652 65.4283 87.8823 65.7564C88.4026 66.0845 88.807 66.5452 89.0953 67.1385C89.387 67.7318 89.5328 68.4261 89.5328 69.2216C89.5328 70.0104 89.387 70.6998 89.0953 71.2898C88.807 71.8797 88.4026 72.3388 87.8823 72.6669C87.3652 72.995 86.762 73.1591 86.0726 73.1591ZM86.0726 72.1051C86.5963 72.1051 87.0272 71.9709 87.3652 71.7024C87.7033 71.4339 87.9535 71.081 88.1159 70.6435C88.2784 70.206 88.3596 69.732 88.3596 69.2216C88.3596 68.7112 88.2784 68.2356 88.1159 67.7947C87.9535 67.3539 87.7033 66.9976 87.3652 66.7259C87.0272 66.4541 86.5963 66.3182 86.0726 66.3182C85.5489 66.3182 85.1181 66.4541 84.78 66.7259C84.4419 66.9976 84.1917 67.3539 84.0293 67.7947C83.8669 68.2356 83.7857 68.7112 83.7857 69.2216C83.7857 69.732 83.8669 70.206 84.0293 70.6435C84.1917 71.081 84.4419 71.4339 84.78 71.7024C85.1181 71.9709 85.5489 72.1051 86.0726 72.1051ZM93.0739 71.608L92.9943 72.1449C92.938 72.5227 92.8518 72.9271 92.7358 73.358C92.6231 73.7888 92.5054 74.1948 92.3828 74.576C92.2602 74.9571 92.1591 75.2604 92.0795 75.4858H91.1847C91.2277 75.2737 91.2841 74.9936 91.3537 74.6456C91.4233 74.2976 91.4929 73.9081 91.5625 73.4773C91.6354 73.0497 91.6951 72.6122 91.7415 72.1648L91.8011 71.608H93.0739ZM92.358 67.4119C92.1127 67.4119 91.9022 67.3241 91.7266 67.1484C91.5509 66.9728 91.4631 66.7623 91.4631 66.517C91.4631 66.2718 91.5509 66.0613 91.7266 65.8857C91.9022 65.71 92.1127 65.6222 92.358 65.6222C92.6032 65.6222 92.8137 65.71 92.9893 65.8857C93.165 66.0613 93.2528 66.2718 93.2528 66.517C93.2528 66.6795 93.2114 66.8286 93.1286 66.9645C93.049 67.1004 92.9413 67.2098 92.8054 67.2926C92.6728 67.3722 92.5237 67.4119 92.358 67.4119ZM12.1761 90.1591C11.4602 90.1591 10.8438 89.9901 10.3267 89.652C9.80966 89.3139 9.41193 88.8482 9.13352 88.255C8.85511 87.6617 8.71591 86.9839 8.71591 86.2216C8.71591 85.446 8.85843 84.7616 9.14347 84.1683C9.43182 83.5717 9.83286 83.1061 10.3466 82.7713C10.8636 82.4332 11.4669 82.2642 12.1562 82.2642C12.6932 82.2642 13.1771 82.3636 13.608 82.5625C14.0388 82.7614 14.3918 83.0398 14.6669 83.3977C14.942 83.7557 15.1127 84.1733 15.179 84.6506H14.0057C13.9162 84.3026 13.7173 83.9943 13.4091 83.7259C13.1042 83.4541 12.6932 83.3182 12.1761 83.3182C11.7188 83.3182 11.3177 83.4375 10.973 83.6761C10.6316 83.9115 10.3648 84.2446 10.1726 84.6754C9.98366 85.103 9.8892 85.6051 9.8892 86.1818C9.8892 86.7718 9.98201 87.2855 10.1676 87.723C10.3565 88.1605 10.6217 88.5002 10.9631 88.7422C11.3078 88.9841 11.7121 89.1051 12.1761 89.1051C12.4811 89.1051 12.7578 89.0521 13.0064 88.946C13.255 88.84 13.4654 88.6875 13.6378 88.4886C13.8101 88.2898 13.9328 88.0511 14.0057 87.7727H15.179C15.1127 88.2235 14.9486 88.6295 14.6868 88.9908C14.4283 89.3487 14.0852 89.6338 13.6577 89.8459C13.2334 90.0547 12.7396 90.1591 12.1761 90.1591ZM19.9964 90.1591C19.3071 90.1591 18.7022 89.995 18.1818 89.6669C17.6648 89.3388 17.2604 88.8797 16.9688 88.2898C16.6804 87.6998 16.5362 87.0104 16.5362 86.2216C16.5362 85.4261 16.6804 84.7318 16.9688 84.1385C17.2604 83.5452 17.6648 83.0845 18.1818 82.7564C18.7022 82.4283 19.3071 82.2642 19.9964 82.2642C20.6858 82.2642 21.2891 82.4283 21.8061 82.7564C22.3265 83.0845 22.7308 83.5452 23.0192 84.1385C23.3108 84.7318 23.4567 85.4261 23.4567 86.2216C23.4567 87.0104 23.3108 87.6998 23.0192 88.2898C22.7308 88.8797 22.3265 89.3388 21.8061 89.6669C21.2891 89.995 20.6858 90.1591 19.9964 90.1591ZM19.9964 89.1051C20.5201 89.1051 20.951 88.9709 21.2891 88.7024C21.6271 88.4339 21.8774 88.081 22.0398 87.6435C22.2022 87.206 22.2834 86.732 22.2834 86.2216C22.2834 85.7112 22.2022 85.2356 22.0398 84.7947C21.8774 84.3539 21.6271 83.9976 21.2891 83.7259C20.951 83.4541 20.5201 83.3182 19.9964 83.3182C19.4728 83.3182 19.0419 83.4541 18.7038 83.7259C18.3658 83.9976 18.1155 84.3539 17.9531 84.7947C17.7907 85.2356 17.7095 85.7112 17.7095 86.2216C17.7095 86.732 17.7907 87.206 17.9531 87.6435C18.1155 88.081 18.3658 88.4339 18.7038 88.7024C19.0419 88.9709 19.4728 89.1051 19.9964 89.1051ZM26.421 79.8182V90H25.2477V79.8182H26.421ZM31.6722 90.1591C30.9828 90.1591 30.378 89.995 29.8576 89.6669C29.3406 89.3388 28.9362 88.8797 28.6445 88.2898C28.3562 87.6998 28.212 87.0104 28.212 86.2216C28.212 85.4261 28.3562 84.7318 28.6445 84.1385C28.9362 83.5452 29.3406 83.0845 29.8576 82.7564C30.378 82.4283 30.9828 82.2642 31.6722 82.2642C32.3616 82.2642 32.9648 82.4283 33.4819 82.7564C34.0022 83.0845 34.4066 83.5452 34.695 84.1385C34.9866 84.7318 35.1325 85.4261 35.1325 86.2216C35.1325 87.0104 34.9866 87.6998 34.695 88.2898C34.4066 88.8797 34.0022 89.3388 33.4819 89.6669C32.9648 89.995 32.3616 90.1591 31.6722 90.1591ZM31.6722 89.1051C32.1959 89.1051 32.6268 88.9709 32.9648 88.7024C33.3029 88.4339 33.5531 88.081 33.7156 87.6435C33.878 87.206 33.9592 86.732 33.9592 86.2216C33.9592 85.7112 33.878 85.2356 33.7156 84.7947C33.5531 84.3539 33.3029 83.9976 32.9648 83.7259C32.6268 83.4541 32.1959 83.3182 31.6722 83.3182C31.1486 83.3182 30.7177 83.4541 30.3796 83.7259C30.0415 83.9976 29.7913 84.3539 29.6289 84.7947C29.4665 85.2356 29.3853 85.7112 29.3853 86.2216C29.3853 86.732 29.4665 87.206 29.6289 87.6435C29.7913 88.081 30.0415 88.4339 30.3796 88.7024C30.7177 88.9709 31.1486 89.1051 31.6722 89.1051ZM36.9235 90V82.3636H38.057V83.517H38.1365C38.2757 83.1392 38.5276 82.8326 38.8922 82.5973C39.2568 82.362 39.6678 82.2443 40.1252 82.2443C40.2114 82.2443 40.3191 82.246 40.4483 82.2493C40.5776 82.2526 40.6754 82.2576 40.7417 82.2642V83.4574C40.7019 83.4474 40.6107 83.4325 40.4682 83.4126C40.329 83.3894 40.1815 83.3778 40.0257 83.3778C39.6545 83.3778 39.3231 83.4557 39.0314 83.6115C38.7431 83.764 38.5144 83.9761 38.3453 84.2479C38.1796 84.5163 38.0968 84.8229 38.0968 85.1676V90H36.9235ZM42.9876 90.0795C42.7423 90.0795 42.5318 89.9917 42.3562 89.8161C42.1805 89.6404 42.0927 89.4299 42.0927 89.1847C42.0927 88.9394 42.1805 88.7289 42.3562 88.5533C42.5318 88.3776 42.7423 88.2898 42.9876 88.2898C43.2328 88.2898 43.4433 88.3776 43.619 88.5533C43.7946 88.7289 43.8825 88.9394 43.8825 89.1847C43.8825 89.3471 43.841 89.4962 43.7582 89.6321C43.6786 89.768 43.5709 89.8774 43.435 89.9602C43.3024 90.0398 43.1533 90.0795 42.9876 90.0795ZM42.9876 84.4119C42.7423 84.4119 42.5318 84.3241 42.3562 84.1484C42.1805 83.9728 42.0927 83.7623 42.0927 83.517C42.0927 83.2718 42.1805 83.0613 42.3562 82.8857C42.5318 82.71 42.7423 82.6222 42.9876 82.6222C43.2328 82.6222 43.4433 82.71 43.619 82.8857C43.7946 83.0613 43.8825 83.2718 43.8825 83.517C43.8825 83.6795 43.841 83.8286 43.7582 83.9645C43.6786 84.1004 43.5709 84.2098 43.435 84.2926C43.3024 84.3722 43.1533 84.4119 42.9876 84.4119ZM50.0845 90V79.8182H51.2578V83.5767H51.3572C51.4434 83.4441 51.5627 83.2751 51.7152 83.0696C51.871 82.8608 52.093 82.6752 52.3814 82.5128C52.6731 82.3471 53.0675 82.2642 53.5646 82.2642C54.2076 82.2642 54.7744 82.425 55.2649 82.7464C55.7554 83.0679 56.1383 83.5237 56.4134 84.1136C56.6884 84.7036 56.826 85.3996 56.826 86.2017C56.826 87.0104 56.6884 87.7114 56.4134 88.3047C56.1383 88.8946 55.7571 89.352 55.2699 89.6768C54.7827 89.9983 54.2209 90.1591 53.5845 90.1591C53.094 90.1591 52.7012 90.0779 52.4062 89.9155C52.1113 89.7498 51.8842 89.5625 51.7251 89.3537C51.5661 89.1416 51.4434 88.9659 51.3572 88.8267H51.218V90H50.0845ZM51.2379 86.1818C51.2379 86.7585 51.3224 87.2673 51.4915 87.7081C51.6605 88.1456 51.9074 88.4886 52.2322 88.7372C52.5571 88.9825 52.9548 89.1051 53.4254 89.1051C53.916 89.1051 54.3253 88.9759 54.6534 88.7173C54.9848 88.4555 55.2334 88.1042 55.3991 87.6634C55.5682 87.2192 55.6527 86.7254 55.6527 86.1818C55.6527 85.6449 55.5698 85.161 55.4041 84.7301C55.2417 84.2959 54.9948 83.9529 54.6634 83.701C54.3352 83.4458 53.9226 83.3182 53.4254 83.3182C52.9482 83.3182 52.5471 83.4392 52.2223 83.6811C51.8975 83.9197 51.6522 84.2545 51.4865 84.6854C51.3208 85.1129 51.2379 85.6117 51.2379 86.1818ZM59.794 79.8182V90H58.6207V79.8182H59.794ZM64.1902 90.179C63.7063 90.179 63.2671 90.0878 62.8727 89.9055C62.4783 89.7199 62.1651 89.4531 61.9331 89.1051C61.7011 88.7538 61.585 88.3295 61.585 87.8324C61.585 87.3949 61.6712 87.0402 61.8436 86.7685C62.0159 86.4934 62.2463 86.2779 62.5346 86.1222C62.823 85.9664 63.1412 85.8504 63.4892 85.7741C63.8405 85.6946 64.1935 85.6316 64.5481 85.5852C65.0121 85.5256 65.3883 85.4808 65.6767 85.451C65.9683 85.4179 66.1805 85.3632 66.313 85.2869C66.4489 85.2107 66.5169 85.0781 66.5169 84.8892V84.8494C66.5169 84.3589 66.3826 83.9777 66.1142 83.706C65.849 83.4342 65.4463 83.2983 64.9061 83.2983C64.3459 83.2983 63.9068 83.4209 63.5886 83.6662C63.2704 83.9115 63.0467 84.1733 62.9174 84.4517L61.8038 84.054C62.0027 83.59 62.2678 83.2287 62.5993 82.9702C62.934 82.7083 63.2986 82.526 63.693 82.4233C64.0907 82.3172 64.4818 82.2642 64.8663 82.2642C65.1116 82.2642 65.3933 82.294 65.7115 82.3537C66.033 82.41 66.3429 82.5277 66.6412 82.7067C66.9428 82.8857 67.193 83.1558 67.3919 83.517C67.5907 83.8783 67.6902 84.3622 67.6902 84.9688V90H66.5169V88.9659H66.4572C66.3777 89.1316 66.2451 89.3089 66.0595 89.4979C65.8739 89.6868 65.627 89.8475 65.3187 89.9801C65.0105 90.1127 64.6343 90.179 64.1902 90.179ZM64.3691 89.125C64.8332 89.125 65.2243 89.0339 65.5424 88.8516C65.8639 88.6693 66.1059 88.4339 66.2683 88.1456C66.434 87.8572 66.5169 87.554 66.5169 87.2358V86.1619C66.4672 86.2216 66.3578 86.2763 66.1887 86.326C66.023 86.3724 65.8308 86.4138 65.612 86.4503C65.3966 86.4834 65.1861 86.5133 64.9806 86.5398C64.7785 86.563 64.6144 86.5829 64.4885 86.5994C64.1835 86.6392 63.8985 86.7038 63.6333 86.7933C63.3715 86.8795 63.1594 87.0104 62.997 87.1861C62.8379 87.3584 62.7583 87.5937 62.7583 87.892C62.7583 88.2997 62.9092 88.608 63.2108 88.8168C63.5157 89.0223 63.9018 89.125 64.3691 89.125ZM72.9339 90.1591C72.218 90.1591 71.6016 89.9901 71.0845 89.652C70.5675 89.3139 70.1697 88.8482 69.8913 88.255C69.6129 87.6617 69.4737 86.9839 69.4737 86.2216C69.4737 85.446 69.6162 84.7616 69.9013 84.1683C70.1896 83.5717 70.5907 83.1061 71.1044 82.7713C71.6214 82.4332 72.2247 82.2642 72.9141 82.2642C73.451 82.2642 73.9349 82.3636 74.3658 82.5625C74.7966 82.7614 75.1496 83.0398 75.4247 83.3977C75.6998 83.7557 75.8705 84.1733 75.9368 84.6506H74.7635C74.674 84.3026 74.4751 83.9943 74.1669 83.7259C73.862 83.4541 73.451 83.3182 72.9339 83.3182C72.4766 83.3182 72.0755 83.4375 71.7308 83.6761C71.3894 83.9115 71.1226 84.2446 70.9304 84.6754C70.7415 85.103 70.647 85.6051 70.647 86.1818C70.647 86.7718 70.7398 87.2855 70.9254 87.723C71.1143 88.1605 71.3795 88.5002 71.7209 88.7422C72.0656 88.9841 72.4699 89.1051 72.9339 89.1051C73.2389 89.1051 73.5156 89.0521 73.7642 88.946C74.0128 88.84 74.2232 88.6875 74.3956 88.4886C74.5679 88.2898 74.6906 88.0511 74.7635 87.7727H75.9368C75.8705 88.2235 75.7064 88.6295 75.4446 88.9908C75.1861 89.3487 74.843 89.6338 74.4155 89.8459C73.9912 90.0547 73.4974 90.1591 72.9339 90.1591ZM78.7457 87.2159L78.7259 85.7642H78.9645L82.3054 82.3636H83.7571L80.1974 85.9631H80.098L78.7457 87.2159ZM77.652 90V79.8182H78.8253V90H77.652ZM82.5043 90L79.5213 86.2216L80.3565 85.4062L83.9957 90H82.5043ZM87.0172 88.608L86.9377 89.1449C86.8813 89.5227 86.7952 89.9271 86.6792 90.358C86.5665 90.7888 86.4488 91.1948 86.3262 91.576C86.2035 91.9571 86.1025 92.2604 86.0229 92.4858H85.128C85.1711 92.2737 85.2275 91.9936 85.2971 91.6456C85.3667 91.2976 85.4363 90.9081 85.5059 90.4773C85.5788 90.0497 85.6384 89.6122 85.6848 89.1648L85.7445 88.608H87.0172ZM86.3013 84.4119C86.056 84.4119 85.8456 84.3241 85.6699 84.1484C85.4943 83.9728 85.4064 83.7623 85.4064 83.517C85.4064 83.2718 85.4943 83.0613 85.6699 82.8857C85.8456 82.71 86.056 82.6222 86.3013 82.6222C86.5466 82.6222 86.757 82.71 86.9327 82.8857C87.1084 83.0613 87.1962 83.2718 87.1962 83.517C87.1962 83.6795 87.1548 83.8286 87.0719 83.9645C86.9924 84.1004 86.8846 84.2098 86.7488 84.2926C86.6162 84.3722 86.467 84.4119 86.3013 84.4119ZM12.554 102.685V103.301C12.0005 103.301 11.6127 103.417 11.3906 103.649C11.1719 103.881 11.0625 104.269 11.0625 104.812V106.403C11.0625 106.861 11.0178 107.257 10.9283 107.592C10.8421 107.926 10.6996 108.203 10.5007 108.422C10.3018 108.641 10.0367 108.803 9.70526 108.909C9.37382 109.015 8.96449 109.068 8.47727 109.068V108.094C8.86174 108.094 9.16335 108.032 9.3821 107.91C9.60417 107.79 9.75994 107.607 9.84943 107.358C9.94223 107.109 9.98864 106.791 9.98864 106.403V104.415C9.98864 104.156 10.0218 103.921 10.0881 103.709C10.1577 103.497 10.2836 103.314 10.4659 103.162C10.6482 103.009 10.9067 102.892 11.2415 102.809C11.5795 102.726 12.017 102.685 12.554 102.685ZM8.47727 96.3409C8.96449 96.3409 9.37382 96.3939 9.70526 96.5C10.0367 96.6061 10.3018 96.7685 10.5007 96.9872C10.6996 97.206 10.8421 97.4827 10.9283 97.8175C11.0178 98.1522 11.0625 98.5483 11.0625 99.0057V100.597C11.0625 101.14 11.1719 101.528 11.3906 101.76C11.6127 101.992 12.0005 102.108 12.554 102.108V102.724C12.017 102.724 11.5795 102.683 11.2415 102.6C10.9067 102.517 10.6482 102.4 10.4659 102.247C10.2836 102.095 10.1577 101.912 10.0881 101.7C10.0218 101.488 9.98864 101.253 9.98864 100.994V99.0057C9.98864 98.6179 9.94223 98.2997 9.84943 98.0511C9.75994 97.7992 9.60417 97.6136 9.3821 97.4943C9.16335 97.375 8.86174 97.3153 8.47727 97.3153V96.3409ZM12.554 102.108V103.301H11.3807V102.108H12.554Z" fill="black"/>
</g>
<defs>
<clipPath id="clip0_0_1">
<rect width="170" height="240" fill="white"/>
</clipPath>
</defs>
</svg>
