<svg width="260" height="260" viewBox="0 0 260 260" fill="none" xmlns="http://www.w3.org/2000/svg">
<circle cx="130.5" cy="135.5" r="110.5" fill="black"/>
<ellipse cx="130.5" cy="201.5" rx="69.5" ry="53.5" fill="#D9D9D9"/>
<circle cx="130.5" cy="113.5" r="34.5" fill="#D9D9D9"/>
<circle cx="130.5" cy="130.5" r="115.5" stroke="black" stroke-width="20"/>
<path d="M124.276 198.647V197.741C124.293 194.634 124.569 192.157 125.101 190.311C125.652 188.464 126.451 186.973 127.498 185.836C128.546 184.7 129.806 183.67 131.28 182.747C132.381 182.037 133.366 181.3 134.237 180.536C135.107 179.773 135.799 178.929 136.314 178.006C136.829 177.065 137.086 176.017 137.086 174.863C137.086 173.638 136.793 172.564 136.207 171.641C135.621 170.717 134.831 170.007 133.837 169.51C132.86 169.013 131.777 168.764 130.588 168.764C129.434 168.764 128.342 169.022 127.312 169.537C126.282 170.034 125.439 170.779 124.782 171.774C124.125 172.75 123.77 173.967 123.716 175.423H112.85C112.939 171.871 113.791 168.942 115.407 166.634C117.022 164.308 119.162 162.576 121.825 161.44C124.489 160.286 127.427 159.709 130.641 159.709C134.174 159.709 137.299 160.295 140.016 161.467C142.733 162.621 144.863 164.299 146.408 166.5C147.953 168.702 148.725 171.357 148.725 174.464C148.725 176.541 148.379 178.388 147.686 180.004C147.012 181.602 146.062 183.022 144.837 184.265C143.612 185.49 142.164 186.6 140.495 187.594C139.093 188.429 137.939 189.299 137.033 190.204C136.145 191.11 135.479 192.157 135.036 193.347C134.609 194.537 134.387 196.001 134.37 197.741V198.647H124.276ZM129.549 215.692C127.773 215.692 126.255 215.071 124.995 213.828C123.752 212.567 123.139 211.058 123.157 209.3C123.139 207.56 123.752 206.069 124.995 204.826C126.255 203.583 127.773 202.962 129.549 202.962C131.236 202.962 132.718 203.583 133.997 204.826C135.275 206.069 135.923 207.56 135.941 209.3C135.923 210.472 135.613 211.547 135.009 212.523C134.423 213.482 133.651 214.254 132.692 214.84C131.733 215.408 130.685 215.692 129.549 215.692Z" fill="black"/>
</svg>
