<svg width="170" height="240" viewBox="0 0 170 240" fill="none" xmlns="http://www.w3.org/2000/svg">
<rect width="170" height="240" rx="10" fill="#BD0078"/>
<path d="M36.7784 191H32.1378V177.909H36.8168C38.1335 177.909 39.267 178.171 40.2173 178.695C41.1676 179.215 41.8984 179.963 42.4098 180.939C42.9254 181.915 43.1832 183.082 43.1832 184.442C43.1832 185.805 42.9254 186.977 42.4098 187.957C41.8984 188.937 41.1634 189.69 40.2045 190.214C39.25 190.738 38.108 191 36.7784 191ZM34.9055 188.629H36.6634C37.4815 188.629 38.1697 188.484 38.728 188.194C39.2905 187.9 39.7124 187.446 39.9936 186.832C40.2791 186.214 40.4219 185.418 40.4219 184.442C40.4219 183.474 40.2791 182.684 39.9936 182.07C39.7124 181.457 39.2926 181.005 38.7344 180.715C38.1761 180.425 37.4879 180.281 36.6697 180.281H34.9055V188.629ZM49.6184 191.192C48.6255 191.192 47.7669 190.981 47.0424 190.559C46.3223 190.133 45.7662 189.54 45.3741 188.782C44.9821 188.019 44.786 187.135 44.786 186.129C44.786 185.115 44.9821 184.229 45.3741 183.47C45.7662 182.707 46.3223 182.115 47.0424 181.693C47.7669 181.267 48.6255 181.054 49.6184 181.054C50.6113 181.054 51.4679 181.267 52.188 181.693C52.9125 182.115 53.4707 182.707 53.8627 183.47C54.2548 184.229 54.4508 185.115 54.4508 186.129C54.4508 187.135 54.2548 188.019 53.8627 188.782C53.4707 189.54 52.9125 190.133 52.188 190.559C51.4679 190.981 50.6113 191.192 49.6184 191.192ZM49.6312 189.082C50.0829 189.082 50.46 188.955 50.7626 188.699C51.0652 188.439 51.2931 188.085 51.4466 187.638C51.6042 187.19 51.6831 186.681 51.6831 186.11C51.6831 185.539 51.6042 185.03 51.4466 184.582C51.2931 184.135 51.0652 183.781 50.7626 183.521C50.46 183.261 50.0829 183.131 49.6312 183.131C49.1752 183.131 48.7917 183.261 48.4806 183.521C48.1738 183.781 47.9416 184.135 47.7839 184.582C47.6305 185.03 47.5538 185.539 47.5538 186.11C47.5538 186.681 47.6305 187.19 47.7839 187.638C47.9416 188.085 48.1738 188.439 48.4806 188.699C48.7917 188.955 49.1752 189.082 49.6312 189.082ZM58.9444 185.324V191H56.2214V181.182H58.8166V182.914H58.9316C59.149 182.343 59.5133 181.891 60.0247 181.559C60.536 181.222 61.1561 181.054 61.8848 181.054C62.5666 181.054 63.161 181.203 63.6681 181.501C64.1752 181.8 64.5694 182.226 64.8507 182.78C65.1319 183.33 65.2726 183.986 65.2726 184.749V191H62.5495V185.234C62.5538 184.634 62.4004 184.165 62.0893 183.828C61.7782 183.487 61.35 183.317 60.8045 183.317C60.438 183.317 60.1142 183.396 59.8329 183.553C59.5559 183.711 59.3386 183.941 59.1809 184.244C59.0275 184.542 58.9487 184.902 58.9444 185.324ZM72.641 181.182V183.227H66.7283V181.182H72.641ZM68.0707 178.83H70.7937V187.983C70.7937 188.234 70.832 188.43 70.9087 188.571C70.9854 188.707 71.092 188.803 71.2283 188.859C71.369 188.914 71.5309 188.942 71.7141 188.942C71.842 188.942 71.9698 188.931 72.0977 188.91C72.2255 188.884 72.3235 188.865 72.3917 188.852L72.82 190.879C72.6836 190.921 72.4918 190.97 72.2447 191.026C71.9975 191.085 71.6971 191.121 71.3434 191.134C70.6871 191.16 70.1119 191.072 69.6175 190.872C69.1275 190.672 68.7461 190.361 68.4734 189.939C68.2006 189.517 68.0664 188.984 68.0707 188.341V178.83ZM81.9126 191V193.065H73.3153V191H81.9126ZM84.9297 191L82.2578 181.182H85.0128L86.5341 187.778H86.6236L88.2088 181.182H90.9126L92.5234 187.74H92.6065L94.1023 181.182H96.8509L94.1854 191H91.3026L89.6151 184.825H89.4936L87.8061 191H84.9297ZM103.411 191.288C102.311 191.283 101.365 191.013 100.573 190.476C99.7843 189.939 99.177 189.161 98.7509 188.143C98.329 187.124 98.1202 185.899 98.1245 184.467C98.1245 183.04 98.3354 181.823 98.7573 180.817C99.1834 179.812 99.7907 179.047 100.579 178.523C101.372 177.994 102.316 177.73 103.411 177.73C104.506 177.73 105.448 177.994 106.236 178.523C107.029 179.051 107.638 179.818 108.064 180.824C108.49 181.825 108.701 183.04 108.697 184.467C108.697 185.903 108.484 187.131 108.058 188.149C107.636 189.168 107.031 189.945 106.242 190.482C105.454 191.019 104.51 191.288 103.411 191.288ZM103.411 188.993C104.161 188.993 104.759 188.616 105.207 187.862C105.654 187.107 105.876 185.976 105.872 184.467C105.872 183.474 105.769 182.648 105.565 181.987C105.365 181.327 105.079 180.83 104.708 180.498C104.342 180.165 103.909 179.999 103.411 179.999C102.665 179.999 102.068 180.372 101.621 181.118C101.173 181.864 100.948 182.98 100.943 184.467C100.943 185.473 101.044 186.312 101.244 186.986C101.448 187.655 101.736 188.158 102.107 188.494C102.477 188.827 102.912 188.993 103.411 188.993ZM110.696 191V181.182H113.336V182.895H113.438C113.617 182.286 113.918 181.825 114.339 181.514C114.761 181.199 115.247 181.041 115.797 181.041C115.933 181.041 116.08 181.05 116.238 181.067C116.396 181.084 116.534 181.107 116.653 181.137V183.553C116.526 183.515 116.349 183.481 116.123 183.451C115.897 183.421 115.69 183.406 115.503 183.406C115.102 183.406 114.744 183.494 114.429 183.668C114.118 183.839 113.871 184.077 113.688 184.384C113.509 184.691 113.419 185.045 113.419 185.445V191H110.696ZM118.061 191V181.182H120.701V182.895H120.803C120.982 182.286 121.283 181.825 121.705 181.514C122.127 181.199 122.612 181.041 123.162 181.041C123.298 181.041 123.445 181.05 123.603 181.067C123.761 181.084 123.899 181.107 124.019 181.137V183.553C123.891 183.515 123.714 183.481 123.488 183.451C123.262 183.421 123.056 183.406 122.868 183.406C122.468 183.406 122.11 183.494 121.794 183.668C121.483 183.839 121.236 184.077 121.053 184.384C120.874 184.691 120.784 185.045 120.784 185.445V191H118.061ZM127.406 194.682C127.061 194.682 126.737 194.654 126.435 194.599C126.137 194.548 125.889 194.482 125.693 194.401L126.307 192.368C126.627 192.466 126.914 192.519 127.17 192.528C127.43 192.536 127.654 192.477 127.841 192.349C128.033 192.221 128.188 192.004 128.308 191.697L128.468 191.281L124.945 181.182H127.809L129.842 188.392H129.944L131.996 181.182H134.879L131.063 192.061C130.879 192.589 130.63 193.05 130.315 193.442C130.004 193.838 129.61 194.143 129.132 194.356C128.655 194.573 128.08 194.682 127.406 194.682ZM142.346 191V193.065H133.749V191H142.346Z" fill="white"/>
<path d="M131.093 93.2053L113.822 108.974H96.5283L81.3962 122.772V108.974H61.9407V49.8845H131.093V93.2053ZM57.6172 42L36 61.6893V132.606H61.9407V152.295L83.5579 132.606H100.852L139.74 97.1475V42H57.6172ZM118.146 64.2955H109.499V87.927H118.146V64.2955ZM85.7196 64.186H94.3665V87.8175H85.7196V64.186Z" fill="white"/>
</svg>
