<?xml version="1.0" encoding="UTF-8"?>
<!DOCTYPE svg PUBLIC "-//W3C//DTD SVG 1.1//EN" "http://www.w3.org/Graphics/SVG/1.1/DTD/svg11.dtd">
<svg version="1.1" xmlns="http://www.w3.org/2000/svg" xmlns:xlink="http://www.w3.org/1999/xlink" x="0" y="0" width="236" height="358" viewBox="0, 0, 236, 358">
  <g id="Layer_1">
    <path d="M115.863,242.161 L115.879,241.556 C115.868,241.557 115.858,241.557 115.847,241.557 L115.863,242.161 z M98.994,201.936 L96.886,200.816 L94.793,199.672 L92.712,198.507 L90.643,197.323 L86.562,194.935 C86.236,194.744 85.919,194.545 85.557,194.357 L85.294,194.212 L85.228,194.177 L85.196,194.159 C85.257,194.185 85.208,194.163 85.219,194.168 L85.213,194.166 L85.198,194.16 L85.084,194.107 C84.932,194.035 84.78,193.973 84.627,193.915 C84.019,193.678 83.392,193.582 82.893,193.664 C82.396,193.754 82.068,193.983 81.885,194.492 C81.714,195.007 81.808,195.729 82.052,196.404 C82.288,197.093 82.662,197.774 83.1,198.419 C83.374,198.824 83.675,199.215 83.989,199.604 C87.673,201.43 94.265,201.734 99.669,202.285 L98.994,201.936 z M161.79,188.621 C161.789,188.564 161.779,188.511 161.776,188.456 L159.082,194.241 C159.175,194.417 159.217,194.584 159.266,194.769 C159.329,194.97 159.346,195.16 159.361,195.359 C159.381,195.559 159.4,195.77 159.383,195.967 C159.372,196.167 159.36,196.377 159.349,196.594 C159.318,196.798 159.285,197.011 159.252,197.229 C159.201,197.67 159.063,198.092 158.964,198.546 C158.85,198.994 158.693,199.437 158.556,199.895 C158.413,200.349 158.229,200.794 158.066,201.245 C157.907,201.699 157.714,202.136 157.532,202.568 C157.345,203 157.178,203.43 156.986,203.832 C156.604,204.639 156.268,205.396 155.947,206.032 C155.307,207.3 154.881,208.145 154.881,208.145 C154.881,208.145 155.183,207.249 155.637,205.906 C155.864,205.235 156.09,204.441 156.351,203.599 C156.482,203.178 156.585,202.734 156.707,202.289 C156.824,201.844 156.952,201.391 157.043,200.935 C157.137,200.479 157.254,200.026 157.326,199.578 C157.394,199.131 157.482,198.691 157.526,198.271 C157.556,197.85 157.631,197.437 157.616,197.066 C157.619,196.879 157.621,196.699 157.623,196.523 C157.607,196.359 157.593,196.199 157.578,196.048 C157.573,195.889 157.536,195.765 157.507,195.647 C157.5,195.616 157.492,195.589 157.485,195.561 L154.145,204.965 C154.291,205.738 154.426,206.511 154.549,207.286 C154.668,208.061 154.8,208.834 154.907,209.61 L155.233,211.936 C155.264,212.148 155.289,212.361 155.316,212.575 C155.436,212.543 155.557,212.506 155.694,212.468 C155.888,212.395 156.11,212.317 156.313,212.202 C156.525,212.096 156.726,211.959 156.918,211.797 C157.111,211.635 157.285,211.438 157.438,211.21 C157.592,210.982 157.711,210.716 157.809,210.432 C157.894,210.143 157.969,209.835 157.993,209.519 C158.013,209.327 158.019,209.133 158.019,208.94 L157.948,208.673 L158.008,208.533 C157.971,207.913 157.861,207.326 157.733,206.826 C157.473,205.806 157.166,205.156 157.166,205.156 C157.166,205.156 157.624,205.705 158.147,206.663 C158.266,206.877 158.384,207.122 158.499,207.379 C158.676,206.963 158.854,206.536 159.015,206.1 L159.283,205.406 L159.558,204.331 L159.981,202.467 L160.396,200.613 L160.782,198.759 C160.921,198.144 161.014,197.522 161.125,196.902 C161.238,196.285 161.34,195.665 161.417,195.046 C161.502,194.427 161.594,193.809 161.643,193.191 C161.706,192.573 161.765,191.956 161.786,191.344 C161.83,190.729 161.828,190.121 161.826,189.516 C161.835,189.212 161.802,188.918 161.79,188.621 M118.692,235.563 L117.872,235.593 C117.326,235.613 116.778,235.618 116.229,235.625 C115.677,235.622 115.128,235.609 114.567,235.579 C114.013,235.562 113.436,235.504 112.868,235.46 L111.514,235.352 L111.033,233.925 C110.969,233.734 110.925,233.538 110.839,233.346 C110.765,233.15 110.666,232.956 110.557,232.764 C110.452,232.569 110.322,232.378 110.189,232.188 C110.043,231.999 109.909,231.802 109.742,231.617 C109.424,231.239 109.062,230.871 108.661,230.525 C108.263,230.176 107.846,229.828 107.395,229.506 C106.944,229.188 106.479,228.871 105.999,228.568 C105.516,228.268 105.016,227.987 104.512,227.704 C104.007,227.422 103.486,227.161 102.963,226.904 L102.173,226.528 L101.394,226.187 L101.275,226.132 C99.143,228.48 96.308,230.734 92.71,231.865 C92.321,231.847 92.268,232.219 92.469,232.897 C96.86,234.674 106.506,237.91 115.747,237.711 L115.813,240 L115.913,240 L115.979,237.711 C125.621,237.917 135.704,234.295 139.798,232.597 C139.924,232.059 139.842,231.81 139.496,231.826 C135.741,230.646 132.814,228.26 130.654,225.802 L128.803,226.258 C128.567,226.314 128.329,226.347 128.103,226.42 C127.874,226.479 127.65,226.555 127.434,226.639 C127.213,226.707 127.005,226.815 126.795,226.903 C126.59,227.01 126.385,227.107 126.191,227.232 C125.802,227.467 125.427,227.725 125.083,228.03 C124.906,228.172 124.744,228.34 124.579,228.5 C124.417,228.666 124.256,228.83 124.103,229.008 C123.494,229.716 122.962,230.519 122.507,231.376 C122.279,231.807 122.078,232.251 121.885,232.699 C121.793,232.924 121.702,233.148 121.623,233.374 L121.51,233.708 C121.478,233.807 121.435,233.949 121.426,233.989 L121.137,235.39 L119.525,235.511 C119.231,235.533 118.968,235.553 118.692,235.563 M91.573,149.53 L91.573,149.53 C92.13,150.107 92.741,150.753 93.403,151.472 C92.741,150.753 92.13,150.107 91.573,149.53 M126.094,262.092 L126.098,262.091 L126.311,262.035 L126.245,262.045 C126.198,262.053 126.144,262.071 126.094,262.092 M147.97,193.664 C147.471,193.582 146.843,193.678 146.235,193.915 C146.084,193.973 145.931,194.035 145.778,194.108 L145.665,194.16 L145.65,194.166 L145.643,194.168 C145.654,194.163 145.606,194.185 145.668,194.159 L145.635,194.177 L145.568,194.212 L145.306,194.357 C144.943,194.545 144.627,194.744 144.301,194.935 L140.219,197.324 L138.15,198.507 L136.069,199.672 L133.977,200.817 L131.869,201.936 L131.193,202.286 C136.597,201.734 143.19,201.43 146.874,199.604 C147.188,199.215 147.49,198.824 147.763,198.419 C148.201,197.774 148.575,197.093 148.81,196.404 C149.055,195.728 149.148,195.006 148.978,194.492 C148.796,193.983 148.467,193.754 147.97,193.664 M125.801,262.291 C125.798,262.3 125.822,262.274 125.845,262.244 C125.844,262.244 125.842,262.246 125.841,262.247 C125.82,262.261 125.793,262.3 125.801,262.291 M150.601,194.209 C150.552,193.679 150.341,193.109 149.96,192.66 C149.585,192.203 149.075,191.881 148.561,191.697 C147.521,191.331 146.497,191.411 145.583,191.608 C145.351,191.659 145.125,191.718 144.906,191.792 L144.74,191.844 L144.561,191.909 L144.278,192.009 C143.908,192.133 143.512,192.293 143.122,192.45 C142.339,192.776 141.62,193.078 140.88,193.412 C140.149,193.747 139.413,194.07 138.695,194.421 C137.247,195.106 135.82,195.827 134.401,196.559 L132.284,197.678 L130.187,198.83 C128.017,200.044 125.878,201.309 123.768,202.626 C123.613,201.155 123.455,199.681 123.282,198.21 L122.889,194.857 C122.82,194.299 122.762,193.739 122.707,193.18 C122.677,192.899 122.649,192.619 122.631,192.339 C122.617,192.059 122.592,191.779 122.636,191.499 C122.499,191.752 122.43,192.04 122.365,192.316 C122.3,192.597 122.243,192.878 122.189,193.158 C122.091,193.721 122.015,194.286 121.938,194.85 C121.781,195.981 121.699,197.11 121.594,198.24 C121.502,199.37 121.432,200.499 121.382,201.629 C121.323,202.759 121.297,203.886 121.266,205.021 L121.262,205.188 L120.533,205.589 L119.534,228.614 C119.363,228.854 119.198,229.098 119.041,229.346 C118.702,229.879 118.393,230.428 118.123,230.996 C118.071,231.109 118.022,231.227 117.971,231.34 L117.769,231.344 C117.259,231.354 116.751,231.352 116.244,231.349 C115.74,231.335 115.233,231.345 114.739,231.323 C114.66,231.322 114.585,231.315 114.507,231.313 C114.383,231.07 114.249,230.833 114.107,230.608 C113.901,230.277 113.675,229.974 113.443,229.677 C113.206,229.39 112.959,229.11 112.7,228.859 C111.677,227.825 110.542,227.037 109.378,226.382 C108.798,226.051 108.205,225.758 107.606,225.496 C107.007,225.234 106.407,224.989 105.795,224.782 C105.185,224.573 104.573,224.376 103.953,224.213 C103.828,224.18 103.701,224.151 103.575,224.12 C103.926,223.448 104.271,222.773 104.604,222.089 C104.904,221.481 105.184,220.86 105.476,220.247 C105.623,219.942 105.757,219.627 105.894,219.314 C105.997,219.079 106.096,218.842 106.195,218.604 C106.26,218.454 106.295,218.369 106.295,218.369 C106.04,218.602 105.796,218.84 105.552,219.078 C105.309,219.317 105.061,219.553 104.828,219.8 C104.357,220.288 103.875,220.771 103.414,221.266 C102.482,222.25 101.587,223.263 100.698,224.277 L100.353,224.671 C96.642,227.349 91.165,229.566 83.822,228.148 C91.64,235.894 101.569,249.551 101.836,250.086 C98.02,243.112 93.996,236.466 92.821,233.494 C100.861,238.907 106,246.032 116,247.743 L116,247.797 C116,247.789 115.956,247.778 116.008,247.77 C116.058,247.778 116.035,247.789 116.087,247.797 L116.05,247.743 C126.198,245.988 131.29,238.534 139.7,233.077 C138.791,235.805 134.387,242.765 130.381,250.086 C130.648,249.551 140.57,235.894 148.389,228.148 C133.14,231.092 125.915,218.369 125.915,218.369 C125.915,218.369 126.002,218.587 126.175,218.96 L125.527,218.013 C125.605,218.666 125.717,219.317 125.861,219.954 C126.011,220.588 126.145,221.236 126.334,221.861 C126.504,222.495 126.713,223.113 126.915,223.738 C126.918,223.745 126.921,223.753 126.923,223.761 C126.859,223.77 126.796,223.775 126.732,223.787 C126.407,223.83 126.089,223.919 125.767,223.995 C125.451,224.091 125.13,224.182 124.823,224.307 C124.2,224.541 123.607,224.852 123.051,225.205 C122.767,225.377 122.504,225.573 122.238,225.768 C121.978,225.968 121.727,226.179 121.488,226.398 C121.008,226.837 120.562,227.307 120.149,227.798 C120.146,227.804 120.142,227.811 120.136,227.816 L123.854,208.504 C123.922,208.559 123.984,208.609 124.056,208.666 C125.575,209.854 127.688,211.333 129.989,212.481 C130.56,212.774 131.147,213.034 131.729,213.277 C132.313,213.52 132.899,213.725 133.471,213.909 C134.047,214.082 134.607,214.229 135.146,214.339 C135.686,214.448 136.199,214.516 136.674,214.566 C137.15,214.599 137.586,214.622 137.971,214.608 C138.356,214.616 138.691,214.562 138.965,214.547 C139.51,214.472 139.816,214.417 139.816,214.417 C139.816,214.417 139.503,214.427 138.96,214.425 C138.688,214.4 138.358,214.407 137.984,214.346 C137.61,214.305 137.194,214.222 136.745,214.125 C136.297,214.012 135.817,213.877 135.322,213.702 C134.827,213.522 134.315,213.31 133.799,213.069 C133.284,212.816 132.761,212.544 132.244,212.237 C131.729,211.93 131.215,211.606 130.717,211.253 C129.337,210.299 128.065,209.209 126.995,208.194 C132.045,211.138 137.41,211.671 140.709,208.442 C144.256,204.969 146.267,201.138 146.854,199.923 C147.338,199.594 147.812,199.244 148.253,198.844 C148.853,198.284 149.438,197.673 149.884,196.918 C150.315,196.168 150.692,195.283 150.601,194.209 M128.738,244.944 C128.738,244.944 128.401,245.314 127.808,245.936 C127.213,246.555 126.353,247.424 125.282,248.391 C124.746,248.873 124.145,249.367 123.507,249.865 C122.863,250.361 122.152,250.828 121.41,251.256 C120.662,251.677 119.868,252.042 119.047,252.287 C118.842,252.353 118.634,252.393 118.427,252.447 C118.219,252.478 118.01,252.524 117.803,252.547 C117.597,252.563 117.375,252.601 117.195,252.593 L116.911,252.601 L116.551,252.577 C115.704,252.514 114.784,252.32 113.936,252.074 C113.078,251.818 112.247,251.493 111.464,251.115 C110.681,250.736 109.935,250.327 109.248,249.895 C108.565,249.455 107.926,249.015 107.348,248.588 C106.2,247.72 105.275,246.924 104.639,246.348 C104.004,245.771 103.649,245.419 103.649,245.419 C103.649,245.419 103.848,245.879 104.309,246.622 C104.769,247.365 105.484,248.399 106.52,249.504 C107.033,250.063 107.623,250.639 108.302,251.192 C108.977,251.752 109.728,252.306 110.566,252.795 C111.403,253.286 112.32,253.727 113.301,254.055 C114.291,254.391 115.301,254.618 116.409,254.709 L116.781,254.729 L117.233,254.72 C117.543,254.721 117.806,254.676 118.086,254.647 C118.363,254.613 118.63,254.543 118.899,254.491 C119.16,254.413 119.426,254.347 119.679,254.257 C120.694,253.906 121.608,253.408 122.415,252.852 C123.228,252.299 123.925,251.672 124.55,251.057 C125.179,250.447 125.708,249.815 126.173,249.22 C127.104,248.031 127.739,246.951 128.148,246.181 C128.559,245.411 128.738,244.944 128.738,244.944 M84.009,199.923 C84.596,201.138 86.607,204.969 90.154,208.442 C93.453,211.671 98.819,211.138 103.868,208.194 C102.796,209.209 101.526,210.299 100.146,211.253 C99.648,211.606 99.134,211.93 98.618,212.237 C98.102,212.544 97.578,212.816 97.064,213.069 C96.546,213.31 96.035,213.522 95.54,213.702 C95.045,213.877 94.565,214.012 94.118,214.125 C93.668,214.222 93.252,214.305 92.878,214.346 C92.504,214.407 92.175,214.4 91.903,214.425 C91.36,214.427 91.046,214.417 91.046,214.417 C91.046,214.417 91.352,214.472 91.898,214.547 C92.172,214.562 92.506,214.616 92.891,214.608 C93.278,214.622 93.712,214.599 94.189,214.566 C94.663,214.516 95.177,214.448 95.716,214.339 C96.254,214.229 96.815,214.082 97.391,213.909 C97.962,213.725 98.55,213.52 99.133,213.277 C99.715,213.034 100.302,212.774 100.873,212.481 C103.174,211.333 105.287,209.854 106.807,208.666 C107.567,208.069 108.182,207.545 108.61,207.166 C108.763,207.026 108.884,206.917 108.988,206.823 L109.653,207.13 L109.596,205.021 C109.566,203.886 109.539,202.759 109.481,201.629 C109.43,200.499 109.361,199.37 109.269,198.24 C109.163,197.11 109.081,195.981 108.925,194.85 C108.847,194.286 108.772,193.721 108.673,193.158 C108.619,192.878 108.564,192.597 108.497,192.316 C108.433,192.04 108.363,191.752 108.227,191.499 C108.27,191.779 108.245,192.059 108.231,192.339 C108.214,192.619 108.185,192.899 108.156,193.179 C108.1,193.739 108.041,194.299 107.973,194.857 L107.58,198.21 C107.407,199.681 107.249,201.155 107.095,202.626 C104.985,201.309 102.845,200.043 100.676,198.83 L98.578,197.678 L96.461,196.559 C95.042,195.827 93.616,195.106 92.168,194.421 C91.45,194.07 90.713,193.747 89.984,193.412 C89.243,193.078 88.524,192.776 87.741,192.45 C87.351,192.293 86.955,192.133 86.585,192.008 L86.302,191.909 L86.122,191.844 L85.957,191.792 C85.738,191.718 85.511,191.659 85.281,191.608 C84.366,191.411 83.342,191.331 82.302,191.697 C81.789,191.881 81.279,192.203 80.904,192.66 C80.522,193.11 80.312,193.679 80.262,194.209 C80.17,195.283 80.547,196.168 80.979,196.918 C81.425,197.673 82.01,198.284 82.61,198.844 C83.05,199.244 83.525,199.594 84.009,199.923 M154.698,193.941 C154.459,200.297 154.145,204.965 154.145,204.965 C154.092,205.749 154.049,206.534 154.018,207.317 C153.991,208.1 153.952,208.885 153.937,209.667 L153.887,212.015 C153.867,212.798 153.877,213.579 153.87,214.362 C153.856,215.927 153.861,217.489 153.883,219.052 C153.904,220.487 153.935,221.922 153.976,223.357 C153.61,224.044 153.224,224.756 152.829,225.45 L151.478,227.773 C150.56,229.313 149.614,230.84 148.642,232.348 L147.168,234.603 L145.652,236.829 C144.629,238.303 143.586,239.765 142.518,241.21 C141.974,241.924 141.448,242.653 140.892,243.36 L139.234,245.487 C138.664,246.181 138.113,246.896 137.532,247.582 C136.957,248.275 136.385,248.971 135.799,249.656 C135.218,250.348 134.613,251.015 134.015,251.693 C133.411,252.364 132.819,253.052 132.195,253.706 C132.158,253.746 132.119,253.787 132.082,253.827 C131.579,254.233 131.053,254.626 130.529,255.01 C130.604,254.727 130.679,254.442 130.749,254.158 C131.012,253.075 131.265,251.989 131.472,250.889 C130.958,251.882 130.475,252.885 129.991,253.886 L128.562,256.89 C128.099,257.894 127.631,258.894 127.142,259.871 C126.895,260.359 126.66,260.849 126.407,261.314 C126.283,261.547 126.154,261.774 126.026,261.977 C125.991,262.034 125.956,262.087 125.924,262.135 L125.561,262.229 L124.99,262.334 C124.597,262.386 124.202,262.448 123.79,262.473 C123.386,262.513 122.963,262.532 122.548,262.556 C122.126,262.565 121.705,262.522 121.283,262.519 L120.035,262.499 C119.993,262.462 119.942,262.417 119.893,262.361 C119.646,262.097 119.376,261.765 119.004,261.387 C118.804,261.195 118.618,260.995 118.201,260.743 C118.092,260.682 117.96,260.618 117.791,260.562 C117.696,260.527 117.508,260.752 117.38,260.738 L117.339,261 L117.319,261 L117.18,260.731 L117.155,260.602 C116.873,260.604 116.627,260.598 116.414,260.666 C115.588,260.973 115.22,261.33 114.855,261.627 C114.514,261.928 114.21,262.037 114.045,262.131 C114.03,262.14 114.021,262 114.012,262 L113.498,262 C113.074,262 112.65,262.153 112.226,262.14 C111.802,262.124 111.377,262.209 110.953,262.186 C110.53,262.172 110.104,262.194 109.682,262.167 C109.257,262.15 108.835,262.141 108.414,262.109 L107.644,262.05 C107.2,261.321 106.753,260.598 106.302,259.875 L104.572,257.185 C104.28,256.737 103.978,256.298 103.681,255.854 C103.533,255.637 103.388,255.418 103.241,255.2 L103.238,255.192 L103.235,255.19 C103.086,254.968 102.935,254.745 102.78,254.526 C102.168,253.647 101.553,252.771 100.9,251.914 C101.172,252.687 101.467,253.446 101.767,254.202 C101.665,254.13 101.562,254.062 101.463,253.987 L101.008,253.657 C100.522,253.303 100.062,252.963 99.604,252.596 C99.568,252.557 99.532,252.52 99.497,252.48 C98.913,251.858 98.351,251.213 97.792,250.57 C97.22,249.938 96.672,249.286 96.118,248.643 L94.503,246.671 C93.965,246.016 93.447,245.344 92.923,244.678 C92.402,244.01 91.895,243.331 91.386,242.655 C90.88,241.979 90.386,241.291 89.895,240.604 C89.402,239.917 88.921,239.222 88.447,238.521 C87.969,237.826 87.501,237.122 87.04,236.414 C86.121,234.997 85.227,233.565 84.369,232.112 C83.935,231.388 83.515,230.656 83.106,229.919 C82.692,229.185 82.286,228.445 81.891,227.7 C81.502,226.953 81.114,226.206 80.74,225.454 C80.404,224.777 80.076,224.074 79.779,223.408 C79.836,221.902 79.882,220.396 79.921,218.89 C79.958,217.27 79.98,215.649 79.984,214.027 C79.986,213.216 80.004,212.406 79.992,211.594 L79.968,209.158 C79.961,208.346 79.929,207.534 79.911,206.721 C79.888,205.908 79.855,205.095 79.81,204.28 C79.776,204.459 79.747,204.639 79.714,204.818 C79.705,204.79 79.696,204.761 79.684,204.727 C79.635,204.579 79.582,204.341 79.506,204.052 C79.36,203.465 79.165,202.622 78.936,201.61 C78.544,199.819 78.038,197.499 77.518,195.119 C77.463,194.557 77.386,193.735 77.297,192.712 L77.83,192.432 L77.18,191.318 C76.9,187.884 76.56,182.952 76.425,177.918 L90.024,152.434 C91.329,152.228 92.666,152.121 94.01,152.139 C101.404,160.304 113.713,176.183 116.01,193.567 C119.402,174.546 135.213,153.129 141.337,153.129 C146.054,154.208 150.306,156.62 152.576,159.799 C155.306,163.622 155.154,181.484 154.711,193.563 L160.7,183.295 L160.703,183.291 L160.7,183.298 L154.711,193.569 L154.542,193.86 L154.698,193.941 z M79.277,204.14 C78.986,203.607 78.579,202.84 78.099,201.916 C77.15,200.064 75.768,197.593 74.504,195.123 C74.374,194.869 74,194.612 74,194.358 L74,194.36 C74,194.394 74.116,194.424 74.115,194.457 C74.116,194.613 74.16,194.769 74.171,194.941 C74.209,195.29 74.242,195.656 74.309,196.045 C74.376,196.435 74.438,196.839 74.528,197.251 C74.617,197.662 74.716,198.081 74.806,198.5 C74.915,198.918 75.029,199.336 75.135,199.749 C75.241,200.162 75.354,200.567 75.476,200.955 C75.717,201.732 75.919,202.47 76.135,203.086 C76.549,204.328 76.825,205.156 76.825,205.156 C76.825,205.156 76.518,205.806 76.258,206.826 C76.127,207.334 76.015,207.935 75.981,208.564 C75.962,208.879 75.965,209.202 75.998,209.519 C76.019,209.792 76.08,210.056 76.151,210.31 C76.274,210.539 76.396,210.771 76.535,210.991 C76.683,211.222 76.825,211.458 76.968,211.694 C77.003,211.729 77.036,211.765 77.072,211.797 C77.265,211.959 77.466,212.096 77.678,212.202 C77.88,212.317 78.102,212.395 78.297,212.468 C78.371,212.488 78.439,212.51 78.507,212.53 C78.551,212.188 78.595,211.845 78.647,211.503 L78.998,209.093 C79.113,208.289 79.254,207.488 79.381,206.686 C79.48,206.081 79.592,205.479 79.704,204.874 C79.683,204.841 79.661,204.809 79.627,204.756 C79.535,204.616 79.428,204.408 79.277,204.14 M75.827,203.213 C76.425,204.379 76.825,205.156 76.825,205.156 C76.825,205.156 76.367,205.705 75.843,206.663 C75.645,207.026 75.439,207.453 75.258,207.934 C75.179,207.793 75.1,207.654 75.019,207.51 L74.774,207.072 C74.682,206.903 74.588,206.736 74.494,206.569 C74.237,206.113 73.994,205.682 73.792,205.206 L73.767,205.152 L73.093,203.256 C72.967,202.935 72.875,202.588 72.785,202.241 L72.229,200.166 L72.091,199.647 L72.021,199.388 C72.014,199.359 71.987,199.272 71.997,199.289 L71.97,199.158 L71.536,197.078 C71.394,196.384 71.288,195.688 71.162,194.992 C71.029,194.299 70.962,193.599 70.858,192.907 C70.754,192.212 70.714,191.518 70.639,190.825 C70.604,190.19 70.558,189.554 70.552,188.925 L71.037,188.018 C71.119,188.179 71.2,188.341 71.287,188.514 L72.989,192.166 C72.966,192.19 72.942,192.212 72.919,192.238 C72.879,192.287 72.855,192.335 72.823,192.388 C72.762,192.49 72.704,192.599 72.651,192.714 C72.556,192.934 72.538,193.121 72.487,193.346 C72.449,193.561 72.469,193.737 72.461,193.947 C72.451,194.16 72.481,194.347 72.508,194.542 C72.537,194.738 72.556,194.948 72.599,195.146 C72.699,195.532 72.775,195.955 72.909,196.356 C73.044,196.759 73.161,197.182 73.319,197.592 C73.476,198 73.635,198.414 73.795,198.829 C73.97,199.234 74.145,199.64 74.318,200.037 C74.488,200.437 74.662,200.825 74.844,201.194 C75.205,201.935 75.517,202.633 75.827,203.213" fill="#E5BD95"/>
    <path d="M119.299,87.688 L118.178,86.994 L115.403,121.801 L115.605,121.97 L131.189,110.505 L119.299,87.688 z M93.863,103.719 L97.679,106.922 L107.417,83.381 L112.287,66.626 L143.771,99.486 L144.881,100.435 L150.67,96.176 L109.221,54.994 L93.863,103.719 z M167.105,119.441 L155.294,109.34 L151.591,97.091 L183.82,129.113 C183.444,129.359 183.095,129.641 182.772,129.952 L167.105,119.441" fill="#1F67A3"/>
    <path d="M184.427,213.068 L150.032,99.285 L107.529,130.551 L139.094,120.834 L184.427,213.068" fill="#3CAB48"/>
    <path d="M184.427,213.068 L139.094,120.834 L107.529,130.551 L150.032,99.285 L184.427,213.068 z M188.38,225.744 C185.987,225.744 184.041,223.796 184.041,221.403 C184.041,219.01 185.987,217.063 188.38,217.063 C190.773,217.063 192.72,219.01 192.72,221.403 C192.72,223.796 190.773,225.744 188.38,225.744 M160.065,212.553 C159.13,214.332 158.074,216.074 156.932,217.729 C156.859,217.093 156.789,216.456 156.712,215.819 C156.865,215.735 157.018,215.641 157.166,215.55 L157.423,215.386 C157.699,215.19 158.013,214.969 158.304,214.686 C158.646,214.376 158.971,214.001 159.237,213.607 C159.522,213.194 159.76,212.712 159.923,212.225 C160.074,211.778 160.168,211.291 160.21,210.701 C160.229,210.169 160.203,209.712 160.136,209.327 C160.112,209.168 160.081,209.007 160.041,208.833 L160.13,208.622 C160.378,208.05 160.641,207.433 160.874,206.805 L161.579,204.979 L162.446,202.534 C162.585,202.143 162.726,201.75 162.868,201.315 L163.429,199.485 C163.577,199.026 163.701,198.563 163.821,198.114 L163.965,197.586 C164.17,196.853 164.325,196.237 164.452,195.659 L164.513,195.397 C164.642,194.847 164.775,194.278 164.872,193.714 C165.003,193.046 165.128,192.388 165.209,191.743 C165.32,191.066 165.385,190.385 165.442,189.717 C165.472,189.467 165.481,189.21 165.489,188.952 C165.492,188.848 165.495,188.744 165.501,188.643 C165.522,188.258 165.524,187.879 165.51,187.544 C165.504,187.188 165.492,186.803 165.449,186.436 C165.426,186.088 165.372,185.705 165.291,185.28 C165.263,185.077 165.213,184.887 165.168,184.717 L165.145,184.624 C165.087,184.386 165.019,184.161 164.931,183.935 C164.86,183.724 164.76,183.49 164.625,183.222 C164.574,183.116 164.5,182.99 164.426,182.87 L164.385,182.806 C164.336,182.725 164.263,182.617 164.17,182.503 L164.115,182.436 C164.098,182.411 164.039,182.337 163.935,182.23 L162.854,181.176 L163.045,174.388 L164.373,177.091 C164.844,179.009 165.204,180.975 165.444,182.94 L167.146,182.763 L170.197,189 L166,189 L166,189.134 C166,191.173 165.845,193.224 165.604,195.23 L173.851,196.226 L177.893,204.522 L164.386,201.211 C163.905,203.171 163.288,205.123 162.571,207.014 L182.869,214.713 L183.899,216.813 L184.255,217.288 C183.203,218.344 182.551,219.798 182.551,221.403 C182.551,222.785 183.034,224.053 183.84,225.053 L160.065,212.553 z M134.086,141.268 L103.763,133.935 L114.788,130.541 C121.2,134.097 127.882,137.813 134.086,141.268 M125.739,134.189 L118.235,129.48 L119.623,129.053 L125.739,134.189 z M147.039,146.6 L148.73,147.009 L146.373,145.698 L131.396,125.429 L137.984,123.4 L154.051,156.088 L147.039,146.6 z M93.402,151.472 C92.741,150.753 92.13,150.107 91.573,149.53 C92.13,150.107 92.741,150.753 93.402,151.472 M101.92,141.122 L99.859,139.657 L100.744,139.881 L106.006,141.216 L130.551,147.44 L122.864,156.005 L102.205,141.324 L101.92,141.122 z M77.678,212.202 C77.465,212.096 77.264,211.96 77.072,211.797 C77.035,211.765 77.003,211.728 76.968,211.694 C76.824,211.458 76.682,211.222 76.534,210.991 C76.396,210.77 76.274,210.54 76.15,210.31 C76.08,210.056 76.02,209.793 75.998,209.519 C75.964,209.202 75.961,208.88 75.98,208.564 C76.014,207.935 76.127,207.334 76.258,206.826 C76.517,205.806 76.825,205.156 76.825,205.156 C76.825,205.156 76.367,205.705 75.843,206.663 C75.645,207.026 75.439,207.453 75.258,207.933 C75.178,207.794 75.099,207.654 75.02,207.51 L74.773,207.072 C74.681,206.903 74.588,206.736 74.493,206.569 C74.236,206.113 73.994,205.682 73.792,205.207 L73.767,205.152 L73.093,203.256 C72.966,202.935 72.876,202.588 72.784,202.241 L72.507,201.203 L72.09,199.647 L72.02,199.388 C72.014,199.359 71.987,199.271 71.997,199.29 L71.969,199.158 L71.536,197.079 C71.393,196.384 71.287,195.687 71.162,194.992 C71.029,194.299 70.961,193.6 70.857,192.907 C70.753,192.213 70.713,191.517 70.638,190.825 C70.603,190.189 70.557,189.554 70.551,188.925 L71.036,188.017 C71.118,188.179 71.199,188.341 71.287,188.514 L72.988,192.167 C72.965,192.189 72.941,192.213 72.918,192.238 C72.879,192.288 72.854,192.335 72.822,192.388 C72.762,192.49 72.704,192.6 72.65,192.714 C72.555,192.933 72.537,193.122 72.487,193.346 C72.449,193.56 72.468,193.737 72.461,193.947 C72.451,194.16 72.48,194.347 72.508,194.543 C72.537,194.738 72.555,194.948 72.598,195.146 C72.699,195.532 72.774,195.955 72.908,196.355 C73.043,196.759 73.161,197.183 73.318,197.592 C73.476,198 73.635,198.414 73.795,198.83 C73.97,199.235 74.145,199.64 74.318,200.038 C74.488,200.437 74.661,200.825 74.844,201.194 C75.205,201.935 75.516,202.633 75.826,203.213 C76.425,204.379 76.825,205.156 76.825,205.156 C76.825,205.156 76.55,204.328 76.135,203.087 C75.919,202.47 75.718,201.731 75.478,200.955 C75.355,200.566 75.244,200.162 75.138,199.749 C75.031,199.337 74.923,198.919 74.813,198.501 C74.722,198.082 74.631,197.663 74.541,197.251 C74.452,196.839 74.405,196.435 74.339,196.045 C74.271,195.656 74.267,195.291 74.23,194.94 C74.218,194.768 74.116,194.613 74.115,194.457 C74.116,194.424 74.001,194.394 74.001,194.36 L74.001,194.357 C74.001,194.612 74.374,194.869 74.503,195.124 C75.767,197.593 77.091,200.064 78.041,201.917 C78.521,202.84 78.955,203.607 79.247,204.141 C79.398,204.408 79.521,204.616 79.612,204.756 C79.646,204.808 79.676,204.841 79.697,204.875 C79.585,205.478 79.476,206.081 79.377,206.686 C79.25,207.488 79.111,208.289 78.995,209.093 L78.646,211.503 C78.594,211.845 78.55,212.188 78.506,212.53 C78.438,212.51 78.37,212.488 78.296,212.468 C78.101,212.394 77.88,212.318 77.678,212.202 M126.094,262.092 C126.144,262.071 126.198,262.053 126.244,262.045 L126.311,262.035 L126.098,262.091 L126.094,262.092 z M125.802,262.291 C125.792,262.3 125.821,262.261 125.84,262.247 C125.843,262.246 125.844,262.244 125.846,262.244 C125.822,262.275 125.797,262.3 125.802,262.291 M147.168,234.603 L145.653,236.829 C144.629,238.303 143.585,239.765 142.519,241.21 C141.974,241.924 141.447,242.653 140.893,243.36 L139.234,245.487 C138.663,246.181 138.113,246.896 137.532,247.582 C136.957,248.275 136.386,248.971 135.798,249.656 C135.219,250.348 134.612,251.016 134.016,251.693 C133.411,252.364 132.819,253.052 132.195,253.706 C132.157,253.747 132.119,253.787 132.081,253.827 C131.578,254.232 131.054,254.626 130.529,255.01 C130.604,254.726 130.68,254.442 130.748,254.158 C131.012,253.075 131.265,251.989 131.472,250.889 C130.958,251.882 130.475,252.885 129.991,253.886 L128.563,256.89 C128.099,257.893 127.63,258.894 127.143,259.871 C126.895,260.36 126.66,260.85 126.407,261.314 C126.282,261.547 126.154,261.775 126.026,261.977 C125.991,262.034 125.956,262.087 125.923,262.135 L125.562,262.229 L124.99,262.334 C124.597,262.386 124.202,262.448 123.79,262.474 C123.387,262.513 122.962,262.532 122.547,262.556 C122.126,262.565 121.704,262.522 121.282,262.519 L120.035,262.499 C119.992,262.462 119.942,262.417 119.893,262.361 C119.646,262.097 119.375,261.765 119.003,261.387 C118.804,261.195 118.617,260.995 118.201,260.743 C118.092,260.682 117.96,260.618 117.791,260.562 C117.695,260.527 117.508,260.752 117.379,260.738 L117.339,261 L117.318,261 L117.18,260.731 L117.155,260.602 C116.872,260.604 116.626,260.598 116.414,260.666 C115.587,260.974 115.22,261.33 114.855,261.627 C114.514,261.928 114.209,262.037 114.045,262.131 C114.03,262.141 114.021,262 114.012,262 L113.498,262 C113.073,262 112.649,262.153 112.225,262.14 C111.801,262.124 111.376,262.209 110.953,262.186 C110.529,262.172 110.104,262.194 109.682,262.167 C109.257,262.151 108.835,262.142 108.413,262.11 L107.644,262.05 C107.2,261.321 106.753,260.599 106.302,259.875 L104.572,257.185 C104.28,256.737 103.978,256.298 103.68,255.854 C103.532,255.637 103.387,255.418 103.241,255.2 L103.238,255.193 L103.234,255.189 C103.085,254.968 102.936,254.746 102.78,254.526 C102.167,253.647 101.552,252.771 100.899,251.914 C101.171,252.687 101.467,253.446 101.767,254.202 C101.666,254.13 101.563,254.062 101.462,253.987 L101.008,253.657 C100.522,253.303 100.062,252.963 99.604,252.596 C99.568,252.557 99.531,252.52 99.496,252.48 C98.912,251.857 98.351,251.214 97.792,250.57 C97.22,249.938 96.672,249.286 96.118,248.643 L94.503,246.672 C93.964,246.016 93.447,245.344 92.922,244.678 C92.402,244.01 91.896,243.331 91.386,242.655 C90.879,241.979 90.386,241.292 89.896,240.604 C89.402,239.918 88.92,239.222 88.447,238.521 C87.968,237.826 87.5,237.123 87.041,236.414 C86.121,234.997 85.226,233.564 84.369,232.112 C83.936,231.388 83.515,230.656 83.105,229.919 C82.692,229.184 82.286,228.445 81.89,227.7 C81.502,226.953 81.113,226.207 80.739,225.455 C80.403,224.777 80.076,224.074 79.778,223.408 C79.836,221.902 79.882,220.396 79.92,218.89 C79.958,217.27 79.98,215.65 79.984,214.027 C79.986,213.216 80.003,212.406 79.991,211.594 L79.968,209.158 C79.961,208.346 79.929,207.534 79.911,206.721 C79.888,205.908 79.854,205.095 79.811,204.28 C79.776,204.46 79.747,204.639 79.714,204.818 C79.705,204.791 79.695,204.761 79.683,204.727 C79.635,204.58 79.581,204.341 79.505,204.052 C79.36,203.465 79.164,202.623 78.937,201.61 C78.544,199.819 78.037,197.5 77.517,195.119 C77.463,194.557 77.385,193.735 77.297,192.712 L77.829,192.433 L77.179,191.318 C76.899,187.884 76.561,182.952 76.425,177.919 L90.023,152.434 C91.328,152.229 92.667,152.122 94.01,152.139 C101.403,160.304 113.713,176.183 116.01,193.566 C119.402,174.546 135.213,153.129 141.336,153.129 C146.055,154.209 150.449,156.621 152.721,159.799 C155.45,163.623 155,181.484 155,193.563 L155,193.569 L154.687,193.86 L154.77,193.941 C154.531,200.297 154.182,204.965 154.182,204.965 L157.503,195.56 C157.511,195.589 157.508,195.616 157.515,195.647 C157.544,195.766 157.577,195.889 157.582,196.048 C157.597,196.199 157.609,196.359 157.625,196.522 C157.623,196.699 157.619,196.879 157.618,197.066 C157.631,197.437 157.557,197.85 157.527,198.27 C157.483,198.691 157.395,199.131 157.326,199.578 C157.254,200.026 157.137,200.479 157.042,200.935 C156.952,201.392 156.824,201.844 156.707,202.29 C156.585,202.734 156.482,203.178 156.351,203.599 C156.089,204.44 155.864,205.235 155.638,205.906 C155.184,207.25 154.88,208.145 154.88,208.145 C154.88,208.145 155.307,207.3 155.947,206.032 C156.268,205.396 156.604,204.639 156.986,203.833 C157.178,203.43 157.345,203 157.531,202.568 C157.713,202.136 157.907,201.699 158.067,201.246 C158.229,200.794 158.412,200.35 158.557,199.894 C158.693,199.437 158.851,198.994 158.963,198.547 C159.063,198.092 159.2,197.67 159.252,197.229 C159.284,197.011 159.318,196.798 159.35,196.594 C159.361,196.378 159.371,196.168 159.382,195.967 C159.4,195.769 159.38,195.559 159.362,195.359 C159.347,195.16 159.328,194.97 159.266,194.768 C159.218,194.585 159.174,194.417 159.082,194.241 L161.776,188.456 C161.779,188.511 161.788,188.564 161.79,188.621 C161.802,188.918 161.835,189.213 161.825,189.516 C161.827,190.122 161.829,190.729 161.785,191.344 C161.765,191.957 161.705,192.573 161.643,193.19 C161.594,193.809 161.501,194.427 161.416,195.046 C161.34,195.665 161.238,196.285 161.125,196.902 C161.014,197.521 160.92,198.144 160.782,198.759 L160.396,200.613 L159.982,202.467 L159.559,204.331 L159.283,205.406 L159.016,206.101 C158.854,206.537 158.677,206.963 158.499,207.379 C158.385,207.122 158.266,206.878 158.148,206.663 C157.623,205.705 157.166,205.156 157.166,205.156 C157.166,205.156 157.474,205.806 157.733,206.826 C157.861,207.326 157.972,207.913 158.008,208.533 L157.947,208.673 L158.019,208.94 C158.02,209.133 158.014,209.327 157.992,209.519 C157.969,209.836 157.894,210.142 157.809,210.432 C157.71,210.716 157.593,210.981 157.438,211.211 C157.285,211.438 157.111,211.635 156.918,211.797 C156.727,211.96 156.525,212.096 156.313,212.202 C156.11,212.318 155.889,212.394 155.694,212.468 C155.558,212.506 155.436,212.543 155.316,212.575 C155.289,212.361 155.264,212.148 155.233,211.935 L154.907,209.61 C154.801,208.835 154.667,208.061 154.548,207.286 C154.426,206.511 154.29,205.738 154.146,204.965 C154.093,205.749 154.049,206.534 154.019,207.316 C153.991,208.101 153.951,208.885 153.937,209.667 L153.888,212.016 C153.867,212.798 153.876,213.58 153.869,214.362 C153.856,215.927 153.862,217.489 153.882,219.052 C153.905,220.487 153.936,221.922 153.977,223.357 C153.611,224.045 153.224,224.756 152.829,225.45 L151.478,227.773 C150.56,229.313 149.613,230.84 148.643,232.348 L147.168,234.603 z M51.079,221.013 C50.816,220.79 50.534,220.594 50.243,220.41 C53.443,209.922 59.257,191.205 65.538,171.296 C75.536,139.605 82.529,118.173 84.293,113.787 C87.192,115.292 96.98,120.676 108.609,127.116 L100.433,133.13 L98.228,132.596 L96.334,136.145 L96.154,136.278 L96.285,136.237 L51.079,221.013 z M46.411,232.437 C43.229,232.437 40.639,229.847 40.639,226.664 C40.639,223.481 43.229,220.892 46.411,220.892 C49.522,220.892 52.151,223.604 52.151,226.816 C52.151,229.968 49.63,232.437 46.411,232.437 M81.905,97.391 L113.25,123.703 L111.305,125.132 L85.841,109.156 L84.904,111.781 C84.44,111.547 84.149,111.206 84.065,111.187 L83.942,111 L83.818,111 C82.788,111 82.597,111.158 76.456,129.93 C72.365,142.435 67.243,158.525 63.693,169.773 C62.905,172.267 61.593,176.479 60.022,181.471 L57.16,189.517 L81.905,97.391 z M131.684,106.851 L124.783,93.61 L140.146,103.917 L135.14,107.6 C133.996,107.324 132.843,107.079 131.684,106.851 M115.403,121.801 L118.177,86.994 L119.299,87.688 L131.189,110.505 L115.604,121.97 L115.403,121.801 z M115.961,82.614 L113.156,117.795 L102.938,107.961 L113.506,71.595 L135.862,94.928 L115.961,82.614 z M109.221,54.994 L150.67,96.176 L144.881,100.435 L143.771,99.486 L112.287,66.626 L107.417,83.381 L97.678,106.922 L93.863,103.719 L109.221,54.994 z M183.821,129.113 C183.445,129.36 183.095,129.641 182.773,129.952 L167.105,119.442 L155.294,109.34 L151.592,97.091 L183.821,129.113 z M187.721,129.47 C190.811,129.47 193.324,131.984 193.324,135.074 C193.324,138.165 190.811,140.679 187.721,140.679 C184.629,140.679 182.115,138.165 182.115,135.074 C182.115,131.984 184.629,129.47 187.721,129.47 M181.441,131.702 L181,131.324 L181.475,131.643 C181.463,131.663 181.452,131.682 181.441,131.702 M178.097,133.409 L165.859,144.294 L163.094,135.141 L170.935,126.269 C168.412,124.04 165.73,121.943 162.962,120.035 L159.878,124.508 L157.092,115.284 L165.231,120.745 L181.135,132.352 C180.785,133.191 180.591,134.11 180.591,135.074 C180.591,135.583 180.646,136.077 180.748,136.556 C179.887,135.486 179.005,134.432 178.097,133.409 M177.111,181.547 L198.661,178.903 C198.253,175.555 197.636,172.194 196.826,168.928 L174.941,174.343 L172.799,167.255 L193.794,159.244 C192.594,156.096 191.188,152.988 189.612,150.008 L170.619,160.04 L168.333,152.478 L184.354,141.36 C184.353,141.358 184.352,141.356 184.351,141.354 C185.354,141.895 186.501,142.203 187.721,142.203 C191.651,142.203 194.85,139.005 194.85,135.074 C194.85,131.143 191.651,127.945 187.721,127.945 C187.094,127.945 186.487,128.035 185.907,128.188 L108.242,51.024 L92.447,101.135 L89.536,100.087 L80.317,92.348 L73.902,116.238 C71.767,117.457 69.676,118.77 67.664,120.165 L71.401,125.556 L68.51,136.32 L59.712,126.418 C57.199,128.651 54.795,131.06 52.568,133.578 L66.045,145.501 L63.859,153.641 L46.331,141.546 C44.417,144.319 42.654,147.236 41.091,150.216 L61.854,161.108 L59.956,168.175 L36.934,159.465 C35.74,162.62 34.729,165.881 33.927,169.159 L58.105,175.07 L56.241,182.012 L32.357,179.13 C31.964,182.427 32,185.793 32,189.134 L32,190 L54.247,190 L52.252,197.15 L32.142,199.445 C32.548,202.794 33.162,206.075 33.967,209.339 L49.982,205.357 L47.384,215.014 L36.989,218.958 C37.704,220.839 38.501,222.698 39.356,224.533 C39.151,225.21 39.038,225.922 39.038,226.666 C39.038,230.731 42.345,234.039 46.411,234.039 C50.528,234.039 53.752,230.866 53.752,226.816 C53.752,225.291 53.303,223.871 52.538,222.683 L52.9,222.005 L70.767,212.591 C69.825,210.802 68.983,208.938 68.266,207.055 L58.997,210.581 L63.593,201.965 L66.457,201.26 C66.186,200.157 65.954,199.038 65.757,197.911 L67.859,193.972 C67.88,194.063 67.903,194.156 67.924,194.248 C68.029,194.716 68.138,195.198 68.274,195.667 C68.341,195.907 68.405,196.148 68.469,196.39 C68.594,196.857 68.719,197.325 68.861,197.79 L69.531,199.979 C69.567,200.1 69.583,200.141 69.608,200.204 L70.627,202.965 C70.742,203.285 70.885,203.683 71.068,204.051 L71.974,206.01 C72.207,206.561 72.489,207.061 72.761,207.545 C72.851,207.704 72.941,207.863 73.037,208.039 L73.281,208.476 C73.458,208.794 73.638,209.118 73.837,209.44 C73.782,209.815 73.764,210.231 73.782,210.737 C73.822,211.29 73.916,211.776 74.066,212.218 C74.232,212.718 74.463,213.185 74.749,213.603 C75.021,214.003 75.344,214.377 75.662,214.663 C75.978,214.969 76.291,215.19 76.605,215.412 L76.822,215.548 C76.913,215.604 77.007,215.663 77.101,215.719 C76.978,216.688 76.857,217.66 76.748,218.634 C76.656,219.479 76.573,220.326 76.485,221.172 C75.585,220.079 74.724,218.948 73.924,217.792 L46.413,236.844 C48.325,239.606 50.428,242.283 52.662,244.799 L76.206,223.901 L76.201,223.953 L76.382,224.455 C76.716,225.379 77.073,226.21 77.411,226.98 C77.763,227.783 78.143,228.596 78.539,229.396 C78.687,229.694 78.838,229.994 78.991,230.294 L59.82,251.948 C62.339,254.179 65.018,256.277 67.783,258.188 L82.656,236.657 C83.067,237.3 83.482,237.931 83.896,238.533 C84.342,239.179 84.874,239.94 85.425,240.689 C85.999,241.461 86.522,242.146 87.025,242.784 C87.078,242.852 87.134,242.919 87.189,242.987 L76.448,263.431 C79.436,264.998 82.547,266.4 85.7,267.594 L92.691,249.137 C93.008,249.453 93.327,249.76 93.642,250.058 C93.818,250.224 93.994,250.39 94.188,250.577 L94.645,250.993 C95.139,251.446 95.633,251.897 96.15,252.344 C96.808,252.896 97.488,253.467 98.167,253.996 C98.523,254.29 98.889,254.565 99.254,254.835 L95.387,270.604 C98.655,271.404 102.01,272.014 105.362,272.415 L106.226,265.182 L106.521,265.251 C107.034,265.37 107.485,265.461 107.937,265.537 C108.394,265.616 108.851,265.687 109.294,265.746 C109.615,265.794 109.938,265.826 110.26,265.856 L110.671,265.898 C111.022,265.938 111.373,265.959 111.726,265.98 L112.053,265.999 C112.351,266.021 112.65,266.026 112.948,266.031 C112.987,266.032 113.024,266.033 113.063,266.033 L115.114,266.051 C115.19,266.015 115.257,265.977 115.316,265.942 C115.363,265.924 115.401,265.901 115.444,265.882 L115.448,273.011 C118.817,273.009 122.21,272.806 125.533,272.403 L124.743,265.852 C125.049,265.793 125.36,265.728 125.691,265.652 L126.335,265.434 L127,265.147 L127,265.143 C127,265.083 127.443,265.002 127.556,264.927 C127.659,264.86 127.819,264.783 127.944,264.674 C128.003,264.619 128.177,264.48 128.245,264.385 C128.374,264.228 128.463,264.111 128.536,263.993 C128.656,263.797 128.754,263.625 128.838,263.452 C128.984,263.146 129.11,262.857 129.229,262.563 C129.488,261.904 129.678,261.394 129.836,260.908 C130.147,259.971 130.469,258.943 130.852,257.652 L130.993,257.131 C131.096,257.059 131.197,256.988 131.288,256.919 L131.41,256.83 C131.609,256.685 131.81,256.536 132.01,256.388 L135.505,270.584 C138.778,269.778 142.034,268.764 145.186,267.567 L138.75,250.628 C139.083,250.31 139.415,249.985 139.735,249.658 C140.38,249.021 141.006,248.359 141.611,247.716 L142.103,247.183 C142.581,246.66 143.078,246.118 143.54,245.575 C143.86,245.211 144.172,244.848 144.476,244.488 L154.424,263.4 C157.399,261.834 160.313,260.068 163.082,258.151 L149.306,238.238 C149.661,237.734 150.012,237.229 150.346,236.741 L150.534,236.46 C150.981,235.797 151.443,235.11 151.877,234.42 C152.415,233.575 152.912,232.769 153.379,231.991 L171.04,251.907 C173.557,249.676 175.962,247.269 178.192,244.753 L156.767,225.762 C156.948,225.389 157.128,225.008 157.307,224.61 L157.557,224.048 L157.51,223.499 C157.371,221.938 157.217,220.38 157.056,218.818 C157.02,218.469 156.976,218.121 156.937,217.772 L184.436,236.793 C186.352,234.021 188.117,231.105 189.685,228.125 L187.946,227.211 C188.09,227.223 188.233,227.234 188.38,227.234 C191.596,227.234 194.21,224.618 194.21,221.403 C194.21,220.457 193.979,219.565 193.578,218.776 L193.852,218.88 C195.048,215.724 196.063,212.464 196.865,209.19 L184.563,206.17 L181.85,197.193 L199.039,199.221 C199.438,195.895 200,192.501 200,189.134 L200,189 L179.355,189 L177.111,181.547 z M127.809,245.936 C128.402,245.313 128.737,244.944 128.737,244.944 C128.737,244.944 128.56,245.412 128.149,246.181 C127.738,246.951 127.105,248.031 126.173,249.22 C125.708,249.814 125.179,250.447 124.549,251.058 C123.924,251.672 123.228,252.299 122.415,252.852 C121.609,253.408 120.694,253.906 119.679,254.257 C119.427,254.347 119.16,254.413 118.899,254.491 C118.629,254.543 118.363,254.613 118.086,254.647 C117.805,254.676 117.543,254.721 117.232,254.72 L116.781,254.729 L116.408,254.709 C115.3,254.618 114.292,254.392 113.301,254.055 C112.319,253.726 111.402,253.286 110.566,252.796 C109.728,252.306 108.976,251.752 108.302,251.193 C107.622,250.639 107.032,250.063 106.52,249.505 C105.484,248.4 104.77,247.365 104.308,246.623 C103.848,245.88 103.649,245.419 103.649,245.419 C103.649,245.419 104.003,245.771 104.639,246.349 C105.275,246.924 106.2,247.72 107.347,248.588 C107.926,249.015 108.565,249.455 109.247,249.895 C109.936,250.327 110.681,250.736 111.464,251.115 C112.247,251.493 113.078,251.818 113.936,252.074 C114.784,252.32 115.703,252.514 116.551,252.577 L116.911,252.601 L117.195,252.593 C117.375,252.601 117.597,252.563 117.802,252.547 C118.01,252.525 118.218,252.478 118.427,252.447 C118.634,252.392 118.842,252.352 119.047,252.287 C119.868,252.043 120.661,251.677 121.41,251.256 C122.153,250.828 122.863,250.361 123.506,249.865 C124.146,249.367 124.745,248.873 125.282,248.391 C126.353,247.424 127.213,246.555 127.809,245.936 M148.811,196.404 C148.574,197.093 148.201,197.773 147.763,198.419 C147.489,198.824 147.188,199.215 146.874,199.604 C143.19,201.43 136.598,201.734 131.193,202.286 L131.869,201.936 L133.977,200.818 L136.07,199.672 L138.151,198.507 L140.22,197.324 L144.302,194.934 C144.627,194.744 144.943,194.546 145.306,194.356 L145.569,194.213 L145.635,194.177 L145.667,194.159 C145.606,194.185 145.655,194.164 145.644,194.169 L145.65,194.167 L145.664,194.16 L145.779,194.109 C145.932,194.035 146.084,193.974 146.236,193.916 C146.844,193.678 147.471,193.583 147.97,193.664 C148.468,193.755 148.796,193.982 148.979,194.492 C149.148,195.006 149.056,195.727 148.811,196.404 M143.855,202.428 C142.61,204.351 141.208,206.066 139.689,207.553 C138.442,208.776 136.803,209.389 134.817,209.389 C132.58,209.389 130.048,208.598 127.493,207.109 L127.393,207.049 L127.366,206.934 C127.337,206.805 127.294,206.676 127.239,206.552 L127.206,206.478 L127.239,206.551 C127.294,206.675 127.337,206.803 127.366,206.933 L127.393,207.047 L127.493,207.106 C130.048,208.596 132.58,209.383 134.817,209.383 C136.803,209.383 138.442,208.764 139.689,207.541 C141.208,206.055 142.61,204.325 143.855,202.403 L144.18,201.904 L144.22,201.892 L143.855,202.428 z M131.34,203.883 C131.35,203.761 131.364,203.642 131.387,203.523 L131.395,203.575 C131.369,203.698 131.352,203.785 131.34,203.883 M128.094,205.892 C129.079,205.221 130.102,204.615 131.135,204.088 L131.238,204.076 C131.268,204.073 131.298,204.07 131.326,204.066 C131.326,204.089 131.322,204.111 131.322,204.133 C131.322,205.998 132.832,207.507 134.695,207.507 C136.559,207.507 138.068,205.998 138.068,204.133 C138.068,203.89 138.033,203.754 137.983,203.523 C139.739,203.329 141.456,203.044 143.035,202.714 C141.905,204.381 140.655,205.865 139.313,207.181 C138.168,208.3 136.656,208.855 134.817,208.855 C132.704,208.855 130.303,208.109 127.863,206.703 C127.843,206.625 127.816,206.542 127.785,206.464 C127.912,206.291 128.016,206.098 128.094,205.892 M121.137,235.391 L121.427,233.989 C121.435,233.949 121.478,233.807 121.51,233.708 L121.623,233.375 C121.702,233.148 121.793,232.924 121.885,232.699 C122.077,232.251 122.28,231.808 122.506,231.377 C122.961,230.519 123.493,229.716 124.104,229.008 C124.255,228.831 124.417,228.666 124.579,228.5 C124.743,228.34 124.906,228.173 125.083,228.03 C125.427,227.726 125.803,227.468 126.191,227.232 C126.385,227.106 126.59,227.012 126.794,226.905 C127.004,226.816 127.212,226.71 127.434,226.641 C127.65,226.558 127.874,226.485 128.103,226.425 C128.329,226.353 128.567,226.324 128.804,226.267 L130.655,225.823 C132.814,228.281 135.74,230.686 139.496,231.865 C139.842,231.849 139.923,232.137 139.798,232.676 C135.704,234.374 125.62,238.076 115.979,237.871 L115.912,240.316 C119.086,240.334 122.851,240.185 126.93,239.688 C121.866,241.257 124.287,241.208 124.861,241.18 C124.928,241.176 124.974,241.173 124.974,241.173 C124.974,241.173 124.93,241.176 124.861,241.18 C124.166,241.22 120.022,241.45 115.879,241.556 L115.863,242.161 L115.846,241.558 C111.713,241.663 107.601,241.645 106.959,241.188 C105.61,240.229 106.149,239.688 106.149,239.688 C106.149,239.688 109.963,240.282 115.813,240.316 L115.747,237.871 C106.505,238.068 96.86,234.674 92.468,232.897 C92.268,232.219 92.321,231.847 92.71,231.865 C96.307,230.735 99.143,228.479 101.275,226.132 L101.395,226.186 L102.172,226.528 L102.962,226.904 C103.486,227.162 104.006,227.422 104.511,227.704 C105.015,227.987 105.516,228.268 105.998,228.568 C106.479,228.871 106.944,229.187 107.395,229.506 C107.846,229.828 108.262,230.176 108.66,230.526 C109.063,230.871 109.424,231.239 109.742,231.617 C109.908,231.802 110.042,232 110.189,232.187 C110.322,232.379 110.451,232.569 110.557,232.764 C110.667,232.957 110.765,233.151 110.838,233.346 C110.925,233.539 110.969,233.735 111.033,233.925 L111.514,235.351 L112.868,235.46 C113.437,235.504 114.012,235.561 114.566,235.579 C115.127,235.609 115.676,235.622 116.229,235.625 C116.778,235.618 117.325,235.613 117.871,235.593 L118.692,235.562 C118.968,235.553 119.232,235.533 119.526,235.511 L121.137,235.391 z M149.959,192.66 C149.584,192.203 149.074,191.881 148.562,191.697 C147.521,191.332 146.496,191.411 145.582,191.607 C145.352,191.659 145.124,191.718 144.906,191.793 L144.739,191.844 L144.561,191.909 L144.279,192.009 C143.908,192.133 143.512,192.293 143.121,192.45 C142.339,192.776 141.619,193.079 140.879,193.412 C140.15,193.748 139.413,194.07 138.695,194.422 C137.247,195.106 135.821,195.827 134.401,196.559 L132.284,197.678 L130.187,198.83 C128.018,200.044 125.877,201.309 123.768,202.626 C123.613,201.155 123.455,199.681 123.282,198.21 L122.889,194.857 C122.82,194.299 122.762,193.739 122.706,193.18 C122.677,192.9 122.649,192.619 122.631,192.339 C122.617,192.059 122.593,191.779 122.636,191.499 C122.499,191.753 122.43,192.04 122.364,192.316 C122.299,192.597 122.243,192.878 122.189,193.158 C122.09,193.721 122.015,194.287 121.938,194.851 C121.781,195.98 121.698,197.11 121.594,198.24 C121.502,199.37 121.433,200.5 121.382,201.629 C121.323,202.759 121.296,203.886 121.267,205.02 L121.262,205.188 L120.532,205.589 L119.533,228.614 C119.363,228.854 119.198,229.098 119.04,229.346 C118.701,229.88 118.392,230.428 118.122,230.997 C118.07,231.11 118.022,231.227 117.97,231.34 L117.769,231.344 C117.259,231.354 116.75,231.351 116.243,231.349 C115.74,231.335 115.233,231.345 114.739,231.323 C114.66,231.322 114.585,231.315 114.507,231.313 C114.382,231.07 114.25,230.834 114.106,230.607 C113.901,230.277 113.674,229.974 113.442,229.677 C113.206,229.39 112.958,229.11 112.7,228.859 C111.676,227.825 110.542,227.038 109.377,226.382 C108.797,226.051 108.204,225.758 107.606,225.496 C107.007,225.235 106.406,224.989 105.795,224.782 C105.184,224.573 104.573,224.376 103.953,224.213 C103.827,224.18 103.701,224.151 103.574,224.12 C103.926,223.448 104.271,222.773 104.604,222.089 C104.904,221.48 105.184,220.86 105.475,220.248 C105.623,219.941 105.756,219.627 105.894,219.313 C105.996,219.08 106.096,218.842 106.195,218.604 C106.259,218.455 106.294,218.369 106.294,218.369 C106.041,218.602 105.796,218.84 105.552,219.079 C105.308,219.316 105.062,219.553 104.827,219.8 C104.356,220.289 103.875,220.771 103.413,221.266 C102.482,222.251 101.587,223.263 100.698,224.277 L100.353,224.672 C96.642,227.349 91.166,229.566 83.822,228.148 C91.639,235.893 101.568,249.551 101.836,250.086 C98.02,243.112 93.996,236.466 92.821,233.495 C100.86,238.907 106,246.032 116,247.743 L116,247.797 C116,247.79 115.956,247.778 116.008,247.77 C116.057,247.778 116.035,247.79 116.087,247.797 L116.049,247.743 C126.197,245.988 131.29,238.534 139.699,233.077 C138.79,235.805 134.387,242.766 130.38,250.086 C130.648,249.551 140.571,235.893 148.389,228.148 C133.14,231.092 125.915,218.369 125.915,218.369 C125.915,218.369 126.002,218.588 126.176,218.961 L125.528,218.013 C125.605,218.667 125.718,219.316 125.861,219.954 C126.011,220.589 126.146,221.236 126.334,221.861 C126.504,222.495 126.712,223.113 126.914,223.738 C126.917,223.745 126.921,223.753 126.923,223.761 C126.86,223.77 126.796,223.776 126.733,223.788 C126.407,223.831 126.089,223.92 125.767,223.996 C125.45,224.091 125.13,224.182 124.822,224.308 C124.199,224.541 123.607,224.851 123.052,225.206 C122.767,225.377 122.503,225.573 122.237,225.767 C121.978,225.968 121.728,226.179 121.487,226.398 C121.008,226.838 120.562,227.307 120.15,227.798 C120.146,227.804 120.142,227.81 120.137,227.815 L123.854,208.505 C123.922,208.558 123.985,208.61 124.056,208.666 C125.575,209.854 127.688,211.333 129.989,212.481 C130.561,212.773 131.147,213.034 131.73,213.277 C132.313,213.519 132.9,213.725 133.471,213.909 C134.047,214.082 134.608,214.229 135.146,214.339 C135.686,214.448 136.199,214.516 136.673,214.565 C137.151,214.599 137.585,214.622 137.972,214.607 C138.356,214.616 138.691,214.561 138.964,214.547 C139.511,214.472 139.817,214.417 139.817,214.417 C139.817,214.417 139.502,214.427 138.959,214.425 C138.688,214.4 138.358,214.407 137.985,214.346 C137.611,214.305 137.194,214.222 136.744,214.126 C136.297,214.012 135.818,213.877 135.322,213.702 C134.827,213.522 134.316,213.309 133.798,213.069 C133.283,212.815 132.761,212.544 132.244,212.237 C131.729,211.93 131.214,211.605 130.718,211.254 C129.337,210.299 128.066,209.21 126.994,208.194 C132.045,211.138 137.409,211.672 140.708,208.441 C144.255,204.969 146.267,201.138 146.854,199.923 C147.338,199.594 147.813,199.244 148.252,198.844 C148.854,198.284 149.438,197.673 149.883,196.919 C150.316,196.169 150.693,195.283 150.601,194.209 C150.552,193.679 150.342,193.11 149.959,192.66 M83.099,198.419 C82.662,197.773 82.287,197.093 82.052,196.404 C81.807,195.728 81.714,195.007 81.884,194.492 C82.067,193.982 82.396,193.755 82.893,193.664 C83.391,193.583 84.02,193.678 84.626,193.916 C84.779,193.974 84.931,194.035 85.084,194.107 L85.198,194.16 L85.213,194.167 L85.219,194.169 C85.208,194.164 85.256,194.185 85.195,194.159 L85.294,194.213 L85.557,194.356 C85.919,194.546 86.236,194.744 86.563,194.934 L90.643,197.323 L92.712,198.507 L94.793,199.672 L96.885,200.816 L98.993,201.936 L99.668,202.285 C94.265,201.734 87.672,201.43 83.988,199.604 C83.675,199.215 83.374,198.824 83.099,198.419 M99.339,203.531 C99.361,203.651 99.376,203.771 99.385,203.895 C99.375,203.792 99.355,203.704 99.33,203.579 C99.309,203.471 99.289,203.354 99.258,203.354 C99.289,203.354 99.309,203.467 99.33,203.575 L99.339,203.531 z M102.861,206.698 C100.423,208.102 98.021,208.844 95.907,208.844 C94.069,208.844 92.556,208.276 91.413,207.156 C90.069,205.841 88.819,204.332 87.689,202.664 C89.265,202.995 90.98,203.328 92.741,203.523 C92.691,203.754 92.656,203.938 92.656,204.184 C92.656,206.047 94.167,207.533 96.029,207.533 C97.892,207.533 99.403,206.01 99.403,204.146 C99.403,204.123 99.398,204.096 99.398,204.073 C99.398,204.064 99.397,204.058 99.396,204.051 C99.397,204.057 99.398,204.062 99.398,204.066 C99.426,204.07 99.458,204.072 99.486,204.076 L99.591,204.087 C100.624,204.614 101.646,205.22 102.632,205.89 C102.709,206.096 102.813,206.288 102.939,206.462 C102.909,206.538 102.883,206.618 102.861,206.698 M86.505,201.843 L87.157,202.092 L86.545,201.904 L86.505,201.843 z M90.154,208.441 C93.453,211.672 98.818,211.138 103.867,208.194 C102.795,209.21 101.525,210.299 100.146,211.254 C99.648,211.605 99.133,211.93 98.617,212.237 C98.101,212.544 97.578,212.815 97.064,213.069 C96.545,213.309 96.035,213.522 95.541,213.702 C95.044,213.877 94.565,214.012 94.118,214.126 C93.668,214.222 93.251,214.305 92.877,214.346 C92.504,214.407 92.175,214.4 91.903,214.425 C91.36,214.427 91.045,214.417 91.045,214.417 C91.045,214.417 91.353,214.472 91.897,214.547 C92.171,214.561 92.506,214.616 92.891,214.607 C93.277,214.622 93.711,214.599 94.189,214.565 C94.663,214.516 95.177,214.448 95.716,214.339 C96.254,214.229 96.815,214.082 97.39,213.909 C97.962,213.725 98.549,213.519 99.132,213.277 C99.715,213.034 100.302,212.773 100.874,212.481 C103.174,211.333 105.286,209.854 106.806,208.666 C107.566,208.069 108.182,207.545 108.609,207.166 C108.763,207.026 108.884,206.917 108.987,206.823 L109.652,207.131 L109.595,205.02 C109.565,203.886 109.538,202.759 109.481,201.629 C109.429,200.5 109.36,199.37 109.269,198.24 C109.163,197.11 109.08,195.98 108.924,194.851 C108.847,194.287 108.772,193.721 108.672,193.158 C108.618,192.878 108.563,192.597 108.497,192.316 C108.432,192.04 108.363,191.753 108.228,191.499 C108.271,191.779 108.244,192.059 108.231,192.339 C108.213,192.619 108.186,192.9 108.156,193.179 C108.1,193.739 108.042,194.299 107.973,194.857 L107.58,198.21 C107.406,199.681 107.25,201.155 107.095,202.626 C104.984,201.309 102.844,200.043 100.676,198.83 L98.578,197.678 L96.461,196.559 C95.042,195.827 93.615,195.106 92.167,194.422 C91.449,194.07 90.713,193.748 89.983,193.412 C89.242,193.079 88.524,192.776 87.74,192.45 C87.35,192.293 86.954,192.133 86.584,192.008 L86.301,191.909 L86.122,191.844 L85.956,191.793 C85.738,191.718 85.511,191.659 85.28,191.607 C84.365,191.411 83.342,191.332 82.301,191.697 C81.788,191.881 81.278,192.203 80.904,192.66 C80.522,193.11 80.312,193.679 80.262,194.209 C80.17,195.283 80.547,196.169 80.979,196.919 C81.424,197.673 82.01,198.284 82.61,198.844 C83.05,199.244 83.524,199.594 84.009,199.923 C84.595,201.138 86.607,204.969 90.154,208.441 M35,24 L170,24 L170,27 L35,27 z M209,64 L213,64 L213,207 L209,207 z M63.001,331 L198,331 L198,334 L63.001,334 z M23,157 L27,157 L27,294 L23,294 z M231,346.992 C231,349.642 230.227,353 228.203,353 L9.288,353 C7.092,353 5,349.597 5,346.992 L5,9.516 C5,6.936 7.055,5 9.288,5 L228.203,5 C229.056,5 231,5.544 231,9.516 L231,346.992 z M228.203,2 L9.288,2 C5.557,2 2,5.163 2,9.516 L2,346.992 C2,351.255 5.458,356 9.288,356 L228.203,356 C232.205,356 234,351.189 234,346.992 L234,9.516 C234,5.161 232.021,2 228.203,2" fill="#0A0B09"/>
    <path d="M50.563,314.191 L60.466,307 L48.225,307 L44.443,295.357 L40.66,307 L28.418,307 L38.323,314.199 L34.54,325.787 L44.443,318.634 L54.346,325.816 L50.563,314.191 z M64.797,312.199 C64.797,323.44 55.685,332.554 44.443,332.554 C33.201,332.554 24.087,323.44 24.087,312.199 C24.087,300.957 33.201,291.844 44.443,291.844 C55.685,291.844 64.797,300.957 64.797,312.199 M173.391,41 L183.696,48.178 L179.761,60.15 L190.066,52.576 L200.372,60.017 L196.436,48.2 L206.742,41 L194.003,41 L190.066,28.884 L186.129,41 L173.391,41 z M168.883,45.801 C168.883,34.103 178.367,24.618 190.066,24.618 C201.766,24.618 211.249,34.103 211.249,45.801 C211.249,57.502 201.766,66.985 190.066,66.985 C178.367,66.985 168.883,57.502 168.883,45.801 M211.379,225.221 C211.379,224.556 210.552,223.982 208.899,223.501 C207.568,223.117 206.388,222.926 205.359,222.926 C204.343,222.926 203.489,223.019 202.796,223.203 C202,223.423 201.602,223.724 201.602,224.108 C201.602,224.685 202.215,225.243 203.439,225.78 C204.664,226.319 205.941,226.589 207.273,226.589 C208.378,226.589 209.338,226.456 210.155,226.192 C210.971,225.929 211.379,225.604 211.379,225.221 M218.049,213.569 C218.055,213.604 218.062,213.646 218.07,213.693 C218.07,214.455 217.949,214.856 217.709,214.897 C217.312,214.953 216.914,215.008 216.515,215.063 C216.117,215.186 215.905,215.487 215.877,215.968 C215.699,218.548 215.507,220.499 215.301,221.824 C214.93,224.137 214.34,226.28 213.531,228.257 C213.674,228.229 213.88,228.216 214.148,228.216 C214.875,228.216 215.452,228.41 215.877,228.802 L215.219,231.231 C214.011,230.291 212.763,229.628 211.472,229.245 C210.388,228.923 209.129,228.762 207.695,228.762 C207.078,228.762 206.067,228.808 204.664,228.899 C203.261,228.992 202.401,229.038 202.086,229.038 C200.569,229.038 199.427,228.678 198.658,227.958 C198.007,227.348 197.681,226.541 197.681,225.539 C197.681,224.029 198.483,222.836 200.089,221.958 C201.496,221.183 203.225,220.795 205.277,220.795 C205.949,220.795 206.663,220.836 207.417,220.918 C205.88,220.597 204.8,220.208 204.175,219.756 C203.667,219.378 203.414,218.904 203.414,218.335 C203.414,218.103 203.471,217.701 203.583,217.136 C203.696,216.569 203.753,216.125 203.753,215.803 C203.753,214.959 203.263,214.536 202.281,214.536 C201.5,214.536 200.618,214.73 199.636,215.114 C198.683,215.484 198.206,215.795 198.206,216.051 C198.206,216.14 198.278,216.184 198.421,216.184 C198.518,216.184 198.857,216.117 199.441,215.983 C200.024,215.85 200.501,215.782 200.872,215.782 C201.791,215.782 202.371,216.081 202.611,216.679 C202.645,216.753 202.662,216.847 202.662,216.956 C202.662,217.415 202.371,217.916 201.787,218.459 C201.143,219.063 200.288,219.566 199.225,219.972 C198.71,220.169 198.24,220.271 197.815,220.271 C197.19,220.271 196.693,220.058 196.322,219.633 C196.007,219.275 195.849,218.877 195.849,218.438 C195.849,217.553 196.182,216.637 196.848,215.69 C197.781,214.366 199.143,213.545 200.934,213.23 C202.134,213.018 203.146,212.911 203.969,212.911 C206.426,212.911 207.802,213.7 208.096,215.278 C208.186,215.772 208.268,216.688 208.343,218.026 C208.398,218.973 208.549,219.676 208.796,220.136 C209.132,220.787 209.771,221.336 210.711,221.782 C210.766,221.618 210.793,221.141 210.793,220.353 C210.793,218.356 210.429,216.128 209.702,213.673 L214.56,213.643 C216.803,213.621 217.966,213.598 218.049,213.569 M215.58,240.922 L215.652,238.287 C215.179,238.624 214.51,238.792 213.646,238.792 C213.22,238.792 212.592,238.747 211.762,238.658 C210.788,238.556 210.109,238.493 209.724,238.474 C207.495,238.362 206.229,238.309 205.927,238.309 C203.971,238.309 202.455,238.59 201.377,239.152 C199.951,239.899 199.137,241.187 198.938,243.013 C198.918,243.079 198.908,243.19 198.908,243.341 C198.908,244.624 199.669,245.266 201.192,245.266 C201.473,245.266 201.803,245.237 202.18,245.184 C203.449,244.99 204.435,244.672 205.134,244.226 C205.793,243.808 206.122,243.33 206.122,242.795 C206.122,242.616 206.088,242.442 206.02,242.27 C205.601,241.241 204.722,240.727 203.384,240.727 C203.24,240.727 203.065,240.735 202.859,240.752 C202.654,240.77 202.489,240.777 202.366,240.777 C202.215,240.777 202.139,240.74 202.139,240.665 C202.139,240.515 202.362,240.339 202.808,240.141 C203.316,239.914 203.857,239.801 204.435,239.801 C206.26,239.801 207.56,240.188 208.335,240.964 C209.227,241.85 209.738,243.479 209.868,245.854 C209.23,245.831 208.589,245.808 207.943,245.78 C206.544,245.726 205.556,245.657 204.98,245.574 C204.918,245.567 204.876,245.574 204.856,245.596 C204.829,245.628 204.829,245.708 204.856,245.831 C205.138,247.019 205.278,247.862 205.278,248.363 C205.278,248.508 205.268,248.73 205.248,249.032 C205.227,249.334 205.216,249.561 205.216,249.713 C205.216,250.206 205.285,250.594 205.422,250.874 C205.848,250.861 206.4,250.71 207.08,250.422 C207.361,250.299 207.659,250.15 207.975,249.979 C207.79,249.794 207.605,249.609 207.419,249.424 C207.199,249.162 207.089,248.878 207.089,248.568 C207.089,248.385 207.117,248.202 207.172,248.023 C207.207,247.92 207.697,247.814 208.644,247.705 C209.035,247.663 209.502,247.623 210.043,247.581 C210.043,247.76 210.054,248.065 210.074,248.498 C210.095,248.93 210.105,249.27 210.105,249.517 C210.105,250.874 209.903,252.027 209.498,252.976 C208.256,253.029 207.566,253.057 207.43,253.057 C205.666,253.057 204.592,252.754 204.208,252.151 C203.947,251.753 203.789,251.066 203.734,250.093 C203.72,250.003 203.646,249.959 203.508,249.959 C203.343,249.959 203.117,249.976 202.829,250.011 C202.465,250.045 202.235,250.065 202.139,250.071 C201.947,250.759 201.755,251.447 201.563,252.141 C201.295,252.964 200.973,253.729 200.596,254.437 C203.024,254.333 205.09,254.281 206.791,254.281 C208.287,254.281 210.18,254.401 212.472,254.642 C214.73,254.875 216.161,255.095 216.764,255.301 C216.805,255.225 216.825,255.033 216.825,254.725 C216.825,254.224 216.75,253.932 216.6,253.85 C216.071,253.713 215.608,253.612 215.21,253.551 C214.819,253.399 214.62,253.088 214.613,252.614 C214.565,247.365 214.075,243.383 213.141,240.665 C213.738,240.946 214.28,241.088 214.767,241.088 C215.09,241.088 215.361,241.031 215.58,240.922 M217.809,280.474 C217.033,280.303 216.521,280.145 216.275,280.001 C215.945,279.809 215.781,279.517 215.781,279.126 C215.781,279.037 215.784,278.917 215.791,278.766 C215.799,278.615 215.801,278.498 215.801,278.415 C215.801,276.77 215.641,274.995 215.318,273.095 C215.009,271.297 214.625,269.774 214.165,268.525 C214.797,268.82 215.387,268.968 215.936,268.968 C216.271,268.968 216.567,268.927 216.82,268.845 L216.861,266.168 C216.505,266.402 215.963,266.518 215.235,266.518 C214.227,266.518 212.951,266.299 211.407,265.859 C210.172,265.503 209.214,265.156 208.536,264.82 C209.667,267.976 210.313,270.286 210.47,271.747 C210.47,271.918 210.381,272.003 210.203,272.003 C208.59,272.003 207.218,271.541 206.086,270.613 C205.118,269.818 204.635,269.022 204.635,268.227 C204.635,267.897 204.841,267.623 205.252,267.404 C205.465,267.294 205.883,267.146 206.508,266.961 C206.652,266.927 206.724,266.752 206.724,266.437 C206.724,266.183 206.686,265.952 206.611,265.746 C206.35,265.788 205.605,265.809 204.378,265.809 C202.882,265.809 200.895,265.788 198.418,265.746 C198.418,268.854 199.908,271.15 202.885,272.632 C204.799,273.593 206.631,274.072 208.381,274.072 C208.587,274.072 208.794,274.049 209.004,274.037 C209.213,274.023 209.325,274 209.338,274 L209.359,274 C207.335,278 205.05,280.23 202.504,280.23 C202.113,280.23 201.918,280.175 201.918,280.045 C201.918,279.92 202.021,279.815 202.227,279.72 C202.597,279.575 202.968,279.435 203.338,279.298 C203.942,279.043 204.412,278.745 204.748,278.396 C205.221,277.901 205.465,277.3 205.479,276.593 C205.486,276.105 205.238,275.729 204.738,275.461 C204.257,275.207 203.619,275.082 202.823,275.082 C202.192,275.082 201.489,275.174 200.713,275.359 C198.731,275.826 197.739,276.632 197.739,277.777 C197.739,278.272 197.887,278.779 198.182,279.301 C199.108,280.928 200.584,281.741 202.607,281.741 C204.796,281.741 206.587,281.01 207.98,279.548 C209.043,278.422 210.055,276.604 211.016,274.094 C211.029,274.299 211.037,274.621 211.037,275.061 C211.037,277.606 210.491,280.113 209.4,282.584 C212.652,282.151 215.537,281.821 218.056,281.597 C218.069,280.89 217.987,280.516 217.809,280.474 M213.697,301.106 C213.697,300.001 213.076,299.086 211.834,298.359 C210.757,297.733 209.607,297.423 208.386,297.423 C206.849,297.423 205.446,297.857 204.177,298.729 C202.935,299.573 202.313,300.473 202.313,301.426 C202.313,302.387 202.856,303.196 203.94,303.854 C204.997,304.514 206.27,304.843 207.758,304.843 C209.104,304.843 210.414,304.465 211.69,303.713 C213.028,302.922 213.697,302.055 213.697,301.106 M213.646,294.757 C215.1,296.445 215.827,298.479 215.827,300.859 C215.827,303.131 215.076,305.1 213.573,306.767 C211.92,308.6 209.775,309.516 207.141,309.516 C202.057,309.516 199.515,307.772 199.515,304.287 C199.515,303.003 199.844,301.495 200.502,299.759 C201.264,297.763 202.218,296.136 203.364,294.879 C204.928,293.17 206.722,292.317 208.746,292.317 C210.606,292.317 212.239,293.131 213.646,294.757 M210.968,318.908 C209.548,318.168 207.956,317.797 206.192,317.797 C205.719,317.797 205.194,317.837 204.618,317.92 C201.578,318.366 199.815,319.907 199.328,322.542 C199.169,323.372 199.091,324.123 199.091,324.795 C199.091,326.208 199.52,327.783 200.377,329.52 C201.345,331.482 201.914,333.112 202.086,334.408 C202.107,334.552 202.179,334.396 202.302,334.389 C204.532,334.279 207.291,334 210.577,334 L213.006,334 C213.109,334 213.15,334.19 213.129,334.122 C212.429,331.479 211.994,329.461 211.822,327.844 C211.17,328 210.632,328.178 210.206,328.26 C209.726,328.383 209.486,328.577 209.486,328.791 C209.486,328.901 209.539,329.205 209.646,329.675 C209.751,330.145 209.805,330.473 209.805,330.644 C209.805,330.974 209.706,331.203 209.506,331.328 C208.608,331.877 207.547,332.327 206.326,332.676 C205.091,330.27 204.474,327.595 204.474,324.65 C204.474,323.066 204.693,321.776 205.132,320.78 C205.613,319.69 206.292,319.145 207.17,319.145 C207.822,319.145 208.539,319.408 209.321,319.938 C210.049,320.432 210.412,320.829 210.412,321.131 C210.412,321.22 210.377,321.275 210.309,321.295 C207.839,321.914 206.532,322.953 206.388,324.414 C206.333,324.949 206.609,325.38 207.216,325.701 C207.824,326.023 208.68,326.185 209.784,326.185 C210.244,326.185 210.783,326.145 211.4,326.061 C213.527,325.772 214.591,325.069 214.591,323.951 C214.591,323.545 214.485,323.063 214.272,322.5 C213.688,320.95 212.587,319.753 210.968,318.908 M25.326,139.165 C26.342,139.165 27.196,139.072 27.89,138.886 C28.685,138.667 29.083,138.365 29.083,137.981 C29.083,137.404 28.471,136.848 27.246,136.309 C26.021,135.771 24.743,135.5 23.412,135.5 C22.308,135.5 21.347,135.632 20.531,135.897 C19.714,136.162 19.305,136.485 19.305,136.869 C19.305,137.535 20.132,138.108 21.786,138.588 C23.117,138.973 24.297,139.165 25.326,139.165 M22.589,146.812 C22.5,146.317 22.417,145.401 22.342,144.063 C22.287,143.117 22.136,142.414 21.889,141.954 C21.553,141.302 20.915,140.753 19.975,140.308 C19.919,140.471 19.892,140.948 19.892,141.737 C19.892,143.733 20.256,145.96 20.983,148.417 L16.125,148.448 C13.882,148.468 12.719,148.492 12.637,148.521 C12.63,148.485 12.623,148.444 12.616,148.396 C12.616,147.634 12.736,147.233 12.976,147.192 C13.374,147.137 13.772,147.083 14.17,147.027 C14.567,146.903 14.78,146.603 14.808,146.122 C14.986,143.542 15.179,141.59 15.384,140.266 C15.755,137.955 16.345,135.81 17.155,133.833 C17.01,133.86 16.805,133.875 16.537,133.875 C15.81,133.875 15.233,133.679 14.808,133.289 L15.467,130.859 C16.674,131.798 17.923,132.461 19.213,132.845 C20.297,133.167 21.556,133.329 22.991,133.329 C23.608,133.329 24.618,133.282 26.021,133.19 C27.424,133.098 28.284,133.051 28.6,133.051 C30.116,133.051 31.258,133.412 32.026,134.131 C32.678,134.742 33.004,135.549 33.004,136.55 C33.004,138.061 32.201,139.254 30.596,140.131 C29.189,140.907 27.461,141.295 25.409,141.295 C24.737,141.295 24.023,141.254 23.268,141.171 C24.805,141.494 25.886,141.881 26.51,142.334 C27.018,142.712 27.272,143.186 27.272,143.754 C27.272,143.988 27.215,144.387 27.102,144.955 C26.989,145.52 26.932,145.964 26.932,146.287 C26.932,147.13 27.423,147.552 28.404,147.552 C29.186,147.552 30.067,147.36 31.049,146.977 C32.002,146.606 32.48,146.294 32.48,146.04 C32.48,145.95 32.408,145.905 32.263,145.905 C32.167,145.905 31.828,145.973 31.245,146.106 C30.661,146.24 30.185,146.308 29.814,146.308 C28.895,146.308 28.314,146.008 28.075,145.412 C28.04,145.336 28.023,145.243 28.023,145.134 C28.023,144.674 28.314,144.173 28.898,143.631 C29.543,143.027 30.397,142.523 31.46,142.118 C31.975,141.919 32.445,141.82 32.871,141.82 C33.495,141.82 33.993,142.033 34.363,142.458 C34.679,142.815 34.836,143.212 34.836,143.652 C34.836,144.538 34.503,145.454 33.838,146.399 C32.905,147.725 31.543,148.543 29.752,148.859 C28.551,149.072 27.539,149.178 26.716,149.178 C24.259,149.178 22.884,148.39 22.589,146.812 M16.105,120.167 L16.033,122.802 C16.506,122.465 17.175,122.297 18.04,122.297 C18.465,122.297 19.093,122.342 19.923,122.432 C20.897,122.534 21.577,122.596 21.961,122.617 C24.191,122.728 25.457,122.781 25.759,122.781 C27.714,122.781 29.23,122.5 30.308,121.938 C31.735,121.19 32.548,119.903 32.747,118.079 C32.768,118.009 32.778,117.899 32.778,117.749 C32.778,116.465 32.016,115.824 30.493,115.824 C30.211,115.824 29.883,115.853 29.505,115.906 C28.235,116.099 27.251,116.418 26.552,116.863 C25.893,117.282 25.563,117.759 25.563,118.294 C25.563,118.473 25.597,118.648 25.666,118.819 C26.085,119.849 26.963,120.363 28.301,120.363 C28.445,120.363 28.62,120.354 28.826,120.337 C29.032,120.32 29.196,120.312 29.32,120.312 C29.471,120.312 29.546,120.35 29.546,120.424 C29.546,120.575 29.323,120.751 28.877,120.949 C28.37,121.176 27.827,121.29 27.251,121.29 C25.426,121.29 24.126,120.901 23.35,120.126 C22.458,119.24 21.947,117.611 21.817,115.237 C22.455,115.258 23.097,115.282 23.741,115.311 C25.141,115.364 26.129,115.434 26.706,115.516 C26.768,115.522 26.809,115.516 26.829,115.496 C26.857,115.461 26.857,115.381 26.829,115.258 C26.548,114.071 26.407,113.228 26.407,112.727 C26.407,112.583 26.417,112.359 26.438,112.058 C26.459,111.755 26.469,111.529 26.469,111.378 C26.469,110.884 26.4,110.497 26.263,110.214 C25.838,110.229 25.286,110.379 24.606,110.668 C24.325,110.792 24.026,110.939 23.71,111.11 L24.267,111.667 C24.486,111.927 24.596,112.212 24.596,112.521 C24.596,112.706 24.568,112.887 24.513,113.065 C24.479,113.169 23.989,113.275 23.042,113.384 C22.651,113.426 22.184,113.467 21.642,113.508 C21.642,113.331 21.632,113.024 21.611,112.592 C21.59,112.16 21.581,111.82 21.581,111.573 C21.581,110.214 21.782,109.063 22.188,108.115 C23.429,108.061 24.119,108.033 24.256,108.033 C26.02,108.033 27.093,108.335 27.478,108.939 C27.738,109.337 27.896,110.023 27.951,110.998 C27.964,111.087 28.04,111.131 28.177,111.131 C28.342,111.131 28.568,111.114 28.856,111.08 C29.221,111.045 29.45,111.024 29.546,111.018 C29.738,110.332 29.931,109.643 30.123,108.949 C30.39,108.126 30.712,107.361 31.09,106.653 C28.661,106.756 26.596,106.809 24.895,106.809 C23.399,106.809 21.504,106.688 19.213,106.448 C16.955,106.215 15.525,105.996 14.921,105.791 C14.88,105.865 14.859,106.058 14.859,106.365 C14.859,106.866 14.936,107.158 15.086,107.24 C15.614,107.378 16.078,107.478 16.475,107.54 C16.866,107.69 17.065,108.002 17.072,108.477 C17.12,113.726 17.611,117.708 18.544,120.424 C17.947,120.144 17.405,120.003 16.917,120.003 C16.596,120.003 16.324,120.059 16.105,120.167 M13.877,78.616 C14.652,78.788 15.163,78.944 15.411,79.088 C15.74,79.281 15.904,79.572 15.904,79.963 C15.904,80.053 15.901,80.173 15.894,80.324 C15.887,80.476 15.884,80.591 15.884,80.674 C15.884,82.32 16.045,84.094 16.368,85.996 C16.676,87.792 17.061,89.316 17.521,90.564 C16.889,90.271 16.299,90.123 15.75,90.123 C15.414,90.123 15.119,90.164 14.865,90.247 L14.823,92.921 C15.18,92.688 15.723,92.571 16.45,92.571 C17.459,92.571 18.734,92.792 20.279,93.23 C21.514,93.587 22.47,93.934 23.15,94.271 C22.018,91.113 21.373,88.804 21.215,87.343 C21.215,87.171 21.305,87.086 21.482,87.086 C23.095,87.086 24.467,87.548 25.6,88.476 C26.566,89.271 27.05,90.067 27.05,90.863 C27.05,91.192 26.845,91.466 26.433,91.687 C26.22,91.796 25.801,91.943 25.178,92.129 C25.033,92.164 24.961,92.338 24.961,92.654 C24.961,92.907 24.999,93.137 25.075,93.343 C25.335,93.302 26.08,93.281 27.308,93.281 C28.804,93.281 30.79,93.302 33.267,93.343 C33.267,90.235 31.778,87.94 28.8,86.458 C26.886,85.498 25.054,85.018 23.304,85.018 C23.098,85.018 22.891,84.996 22.682,85.008 C22.472,85.023 22.361,85 22.347,85 L22.327,85 C24.351,81 26.635,78.814 29.181,78.814 C29.572,78.814 29.768,78.894 29.768,79.023 C29.768,79.148 29.665,79.263 29.459,79.359 C29.088,79.503 28.718,79.648 28.347,79.785 C27.743,80.04 27.274,80.342 26.938,80.692 C26.464,81.188 26.22,81.789 26.207,82.496 C26.2,82.982 26.447,83.359 26.948,83.627 C27.428,83.881 28.066,84.008 28.862,84.008 C29.493,84.008 30.197,83.916 30.972,83.73 C32.955,83.263 33.946,82.458 33.946,81.313 C33.946,80.817 33.798,80.311 33.504,79.79 C32.577,78.164 31.102,77.35 29.078,77.35 C26.889,77.35 25.099,78.081 23.706,79.543 C22.643,80.667 21.63,82.485 20.669,84.997 C20.655,84.791 20.649,84.468 20.649,84.029 C20.649,81.483 21.194,78.977 22.285,76.505 C19.033,76.939 16.147,77.268 13.63,77.494 C13.616,78.2 13.699,78.574 13.877,78.616 M17.988,58.983 C17.988,60.088 18.609,61.003 19.852,61.731 C20.928,62.355 22.078,62.668 23.299,62.668 C24.836,62.668 26.239,62.232 27.509,61.36 C28.75,60.517 29.372,59.617 29.372,58.665 C29.372,57.704 28.83,56.894 27.746,56.235 C26.689,55.576 25.416,55.248 23.927,55.248 C22.582,55.248 21.271,55.625 19.996,56.379 C18.658,57.169 17.988,58.037 17.988,58.983 M18.04,65.333 C16.585,63.646 15.858,61.61 15.858,59.231 C15.858,56.96 16.61,54.989 18.112,53.322 C19.766,51.49 21.91,50.574 24.544,50.574 C29.628,50.574 32.171,52.317 32.171,55.802 C32.171,57.086 31.841,58.595 31.183,60.332 C30.421,62.327 29.467,63.955 28.322,65.21 C26.757,66.919 24.963,67.773 22.939,67.773 C21.08,67.773 19.446,66.96 18.04,65.333 M19.717,43.182 C21.138,43.922 22.729,44.294 24.493,44.294 C24.967,44.294 25.491,44.252 26.067,44.169 C29.107,43.724 30.87,42.184 31.358,39.548 C31.515,38.718 31.595,37.966 31.595,37.294 C31.595,35.88 31.166,34.307 30.308,32.57 C29.34,30.608 28.771,28.979 28.6,27.683 C28.579,27.538 28.507,27.149 28.383,27.155 C26.153,27.266 23.395,27 20.108,27 L17.68,27 C17.577,27 17.536,27.354 17.556,27.423 C18.255,30.065 18.692,32.355 18.863,33.975 C19.515,33.817 20.053,33.776 20.479,33.694 C20.959,33.57 21.2,33.443 21.2,33.23 C21.2,33.122 21.146,32.851 21.04,32.38 C20.934,31.91 20.88,31.601 20.88,31.428 C20.88,31.1 20.98,30.878 21.179,30.754 C22.078,30.206 23.138,29.757 24.359,29.407 C25.594,31.816 26.212,34.495 26.212,37.438 C26.212,39.023 25.992,40.314 25.553,41.308 C25.073,42.399 24.394,42.944 23.515,42.944 C22.863,42.944 22.146,42.681 21.364,42.152 C20.637,41.658 20.273,41.26 20.273,40.958 C20.273,40.87 20.307,40.815 20.376,40.794 C22.846,40.176 24.153,39.137 24.297,37.675 C24.352,37.141 24.076,36.711 23.469,36.388 C22.862,36.066 22.005,35.904 20.901,35.904 C20.441,35.904 19.903,35.946 19.285,36.028 C17.158,36.316 16.095,37.021 16.095,38.138 C16.095,38.544 16.201,39.027 16.414,39.589 C16.997,41.141 18.098,42.337 19.717,43.182 M84.293,113.788 C82.529,118.173 75.537,139.605 65.539,171.295 C59.257,191.205 53.443,209.922 50.243,220.409 C50.535,220.595 50.816,220.79 51.079,221.014 L96.285,136.237 L96.154,136.277 L96.334,136.145 L98.227,132.596 L100.433,133.129 L108.609,127.115 C96.98,120.675 87.192,115.292 84.293,113.788 M103.763,133.936 L114.789,130.542 C121.2,134.098 127.882,137.813 134.086,141.269 L103.763,133.936" fill="#D9252A"/>
  </g>
</svg>
