<svg width="170" height="240" viewBox="0 0 170 240" fill="none" xmlns="http://www.w3.org/2000/svg">
<rect width="170" height="240" rx="10" fill="white"/>
<path d="M22.2642 20.4545H26.0568L30.0625 30.2273H30.233L34.2386 20.4545H38.0312V35H35.0483V25.5327H34.9276L31.1634 34.929H29.1321L25.3679 25.4972H25.2472V35H22.2642V20.4545ZM43.619 35.206C42.9229 35.206 42.3027 35.0852 41.7582 34.8438C41.2137 34.5975 40.7828 34.2353 40.4656 33.7571C40.1531 33.2741 39.9968 32.6728 39.9968 31.9531C39.9968 31.3471 40.1081 30.8381 40.3306 30.4261C40.5531 30.0142 40.8562 29.6828 41.2397 29.4318C41.6232 29.1809 42.0588 28.9915 42.5465 28.8636C43.0389 28.7358 43.555 28.6458 44.0948 28.5938C44.7293 28.5275 45.2406 28.4659 45.6289 28.4091C46.0172 28.3475 46.2989 28.2576 46.4741 28.1392C46.6493 28.0208 46.7369 27.8456 46.7369 27.6136V27.571C46.7369 27.1212 46.5948 26.7732 46.3107 26.527C46.0314 26.2808 45.6336 26.1577 45.1175 26.1577C44.573 26.1577 44.1398 26.2784 43.8178 26.5199C43.4959 26.7566 43.2828 27.0549 43.1786 27.4148L40.3803 27.1875C40.5224 26.5246 40.8017 25.9517 41.2184 25.4688C41.6351 24.9811 42.1725 24.607 42.8306 24.3466C43.4935 24.0814 44.2605 23.9489 45.1317 23.9489C45.7378 23.9489 46.3178 24.0199 46.8718 24.1619C47.4305 24.304 47.9253 24.5241 48.3562 24.8224C48.7918 25.1207 49.1351 25.5043 49.386 25.973C49.637 26.437 49.7624 26.9934 49.7624 27.642V35H46.8931V33.4872H46.8079C46.6327 33.8281 46.3983 34.1288 46.1048 34.3892C45.8112 34.6449 45.4585 34.8461 45.0465 34.9929C44.6346 35.1349 44.1587 35.206 43.619 35.206ZM44.4854 33.1179C44.9305 33.1179 45.3235 33.0303 45.6644 32.8551C46.0053 32.6752 46.2728 32.4337 46.467 32.1307C46.6611 31.8277 46.7582 31.4844 46.7582 31.1009V29.9432C46.6635 30.0047 46.5333 30.0616 46.3675 30.1136C46.2066 30.161 46.0243 30.206 45.8207 30.2486C45.6171 30.2865 45.4135 30.322 45.2099 30.3551C45.0063 30.3835 44.8216 30.4096 44.6559 30.4332C44.3008 30.4853 43.9906 30.5682 43.7255 30.6818C43.4603 30.7955 43.2544 30.9493 43.1076 31.1435C42.9608 31.3329 42.8874 31.5696 42.8874 31.8537C42.8874 32.2656 43.0366 32.5805 43.3349 32.7983C43.6379 33.0114 44.0214 33.1179 44.4854 33.1179ZM55.1353 28.6932V35H52.1097V24.0909H54.9933V26.0156H55.1211C55.3626 25.3812 55.7674 24.8793 56.3356 24.5099C56.9038 24.1359 57.5927 23.9489 58.4023 23.9489C59.1599 23.9489 59.8204 24.1146 60.3839 24.446C60.9473 24.7775 61.3853 25.2509 61.6978 25.8665C62.0103 26.4773 62.1665 27.2064 62.1665 28.054V35H59.141V28.5938C59.1457 27.9261 58.9753 27.4053 58.6296 27.0312C58.284 26.6525 57.8081 26.4631 57.2021 26.4631C56.7949 26.4631 56.435 26.5507 56.1225 26.7259C55.8147 26.901 55.5733 27.1567 55.3981 27.4929C55.2276 27.8243 55.14 28.2244 55.1353 28.6932ZM22.2642 44.4545H26.0568L30.0625 54.2273H30.233L34.2386 44.4545H38.0312V59H35.0483V49.5327H34.9276L31.1634 58.929H29.1321L25.3679 49.4972H25.2472V59H22.2642V44.4545ZM43.619 59.206C42.9229 59.206 42.3027 59.0852 41.7582 58.8438C41.2137 58.5975 40.7828 58.2353 40.4656 57.7571C40.1531 57.2741 39.9968 56.6728 39.9968 55.9531C39.9968 55.3471 40.1081 54.8381 40.3306 54.4261C40.5531 54.0142 40.8562 53.6828 41.2397 53.4318C41.6232 53.1809 42.0588 52.9915 42.5465 52.8636C43.0389 52.7358 43.555 52.6458 44.0948 52.5938C44.7293 52.5275 45.2406 52.4659 45.6289 52.4091C46.0172 52.3475 46.2989 52.2576 46.4741 52.1392C46.6493 52.0208 46.7369 51.8456 46.7369 51.6136V51.571C46.7369 51.1212 46.5948 50.7732 46.3107 50.527C46.0314 50.2808 45.6336 50.1577 45.1175 50.1577C44.573 50.1577 44.1398 50.2784 43.8178 50.5199C43.4959 50.7566 43.2828 51.0549 43.1786 51.4148L40.3803 51.1875C40.5224 50.5246 40.8017 49.9517 41.2184 49.4688C41.6351 48.9811 42.1725 48.607 42.8306 48.3466C43.4935 48.0814 44.2605 47.9489 45.1317 47.9489C45.7378 47.9489 46.3178 48.0199 46.8718 48.1619C47.4305 48.304 47.9253 48.5241 48.3562 48.8224C48.7918 49.1207 49.1351 49.5043 49.386 49.973C49.637 50.437 49.7624 50.9934 49.7624 51.642V59H46.8931V57.4872H46.8079C46.6327 57.8281 46.3983 58.1288 46.1048 58.3892C45.8112 58.6449 45.4585 58.8461 45.0465 58.9929C44.6346 59.1349 44.1587 59.206 43.619 59.206ZM44.4854 57.1179C44.9305 57.1179 45.3235 57.0303 45.6644 56.8551C46.0053 56.6752 46.2728 56.4337 46.467 56.1307C46.6611 55.8277 46.7582 55.4844 46.7582 55.1009V53.9432C46.6635 54.0047 46.5333 54.0616 46.3675 54.1136C46.2066 54.161 46.0243 54.206 45.8207 54.2486C45.6171 54.2865 45.4135 54.322 45.2099 54.3551C45.0063 54.3835 44.8216 54.4096 44.6559 54.4332C44.3008 54.4853 43.9906 54.5682 43.7255 54.6818C43.4603 54.7955 43.2544 54.9493 43.1076 55.1435C42.9608 55.3329 42.8874 55.5696 42.8874 55.8537C42.8874 56.2656 43.0366 56.5805 43.3349 56.7983C43.6379 57.0114 44.0214 57.1179 44.4854 57.1179ZM54.8512 55.8608L54.8583 52.2315H55.2987L58.793 48.0909H62.266L57.5714 53.5739H56.854L54.8512 55.8608ZM52.1097 59V44.4545H55.1353V59H52.1097ZM58.9279 59L55.7177 54.2486L57.7347 52.1108L62.4719 59H58.9279ZM68.2727 59.2131C67.1506 59.2131 66.1847 58.9858 65.375 58.5312C64.5701 58.072 63.9498 57.4233 63.5142 56.5852C63.0786 55.7424 62.8608 54.7457 62.8608 53.5952C62.8608 52.473 63.0786 51.4882 63.5142 50.6406C63.9498 49.7931 64.563 49.1326 65.3537 48.6591C66.1491 48.1856 67.0819 47.9489 68.152 47.9489C68.8717 47.9489 69.5417 48.0649 70.1619 48.2969C70.7869 48.5241 71.3314 48.8674 71.7955 49.3267C72.2642 49.786 72.6288 50.3636 72.8892 51.0597C73.1496 51.7509 73.2798 52.5606 73.2798 53.4886V54.3196H64.0682V52.4446H70.4318C70.4318 52.009 70.3371 51.6231 70.1477 51.2869C69.9583 50.9508 69.6955 50.688 69.3594 50.4986C69.0279 50.3045 68.642 50.2074 68.2017 50.2074C67.7424 50.2074 67.3352 50.3139 66.9801 50.527C66.6297 50.7353 66.3551 51.017 66.1562 51.3722C65.9574 51.7225 65.8556 52.1132 65.8509 52.544V54.3267C65.8509 54.8665 65.9503 55.3329 66.1491 55.7259C66.3527 56.1188 66.6392 56.4219 67.0085 56.6349C67.3778 56.848 67.8158 56.9545 68.3224 56.9545C68.6586 56.9545 68.9664 56.9072 69.2457 56.8125C69.5251 56.7178 69.7642 56.5758 69.9631 56.3864C70.1619 56.197 70.3134 55.965 70.4176 55.6903L73.2159 55.875C73.0739 56.5473 72.7827 57.1345 72.3423 57.6364C71.9067 58.1335 71.3433 58.5218 70.652 58.8011C69.9654 59.0758 69.1723 59.2131 68.2727 59.2131ZM84.331 51.2017L81.5611 51.3722C81.5137 51.1354 81.4119 50.9223 81.2557 50.733C81.0994 50.5388 80.8935 50.3849 80.6378 50.2713C80.3868 50.1529 80.0862 50.0938 79.7358 50.0938C79.267 50.0938 78.8717 50.1932 78.5497 50.392C78.2277 50.5862 78.0668 50.8466 78.0668 51.1733C78.0668 51.4337 78.1709 51.6539 78.3793 51.8338C78.5876 52.0137 78.9451 52.1581 79.4517 52.267L81.4261 52.6648C82.4867 52.8826 83.2775 53.233 83.7983 53.7159C84.3191 54.1989 84.5795 54.8333 84.5795 55.6193C84.5795 56.3343 84.3688 56.9616 83.9474 57.5014C83.5308 58.0412 82.9579 58.4626 82.2287 58.7656C81.5043 59.0639 80.6686 59.2131 79.7216 59.2131C78.2775 59.2131 77.1269 58.9124 76.2699 58.3111C75.4176 57.705 74.9181 56.8812 74.7713 55.8395L77.7472 55.6832C77.8371 56.1236 78.0549 56.4598 78.4006 56.6918C78.7462 56.919 79.1889 57.0327 79.7287 57.0327C80.259 57.0327 80.6851 56.9309 81.0071 56.7273C81.3338 56.5189 81.4995 56.2514 81.5043 55.9247C81.4995 55.6501 81.3835 55.4252 81.1562 55.25C80.929 55.0701 80.5786 54.9328 80.1051 54.8381L78.2159 54.4616C77.1506 54.2486 76.3575 53.8793 75.8366 53.3537C75.3205 52.8281 75.0625 52.1581 75.0625 51.3438C75.0625 50.643 75.2519 50.0393 75.6307 49.5327C76.0142 49.026 76.5516 48.6354 77.2429 48.3608C77.9389 48.0862 78.7533 47.9489 79.6861 47.9489C81.0639 47.9489 82.1482 48.2401 82.9389 48.8224C83.7344 49.4048 84.1984 50.1979 84.331 51.2017ZM22.2642 68.4545H26.0568L30.0625 78.2273H30.233L34.2386 68.4545H38.0312V83H35.0483V73.5327H34.9276L31.1634 82.929H29.1321L25.3679 73.4972H25.2472V83H22.2642V68.4545ZM45.4371 83.2131C44.3339 83.2131 43.3799 82.9787 42.5749 82.5099C41.7747 82.0365 41.1568 81.3783 40.7212 80.5355C40.2856 79.688 40.0678 78.7055 40.0678 77.5881C40.0678 76.4612 40.2856 75.4763 40.7212 74.6335C41.1568 73.786 41.7747 73.1278 42.5749 72.6591C43.3799 72.1856 44.3339 71.9489 45.4371 71.9489C46.5404 71.9489 47.4921 72.1856 48.2923 72.6591C49.0972 73.1278 49.7174 73.786 50.1531 74.6335C50.5887 75.4763 50.8065 76.4612 50.8065 77.5881C50.8065 78.7055 50.5887 79.688 50.1531 80.5355C49.7174 81.3783 49.0972 82.0365 48.2923 82.5099C47.4921 82.9787 46.5404 83.2131 45.4371 83.2131ZM45.4513 80.8693C45.9532 80.8693 46.3723 80.7273 46.7085 80.4432C47.0446 80.1544 47.2979 79.7614 47.4684 79.2642C47.6436 78.767 47.7312 78.2012 47.7312 77.5668C47.7312 76.9323 47.6436 76.3665 47.4684 75.8693C47.2979 75.3722 47.0446 74.9792 46.7085 74.6903C46.3723 74.4015 45.9532 74.2571 45.4513 74.2571C44.9447 74.2571 44.5186 74.4015 44.1729 74.6903C43.832 74.9792 43.574 75.3722 43.3988 75.8693C43.2283 76.3665 43.1431 76.9323 43.1431 77.5668C43.1431 78.2012 43.2283 78.767 43.3988 79.2642C43.574 79.7614 43.832 80.1544 44.1729 80.4432C44.5186 80.7273 44.9447 80.8693 45.4513 80.8693ZM55.7994 76.6932V83H52.7738V72.0909H55.6573V74.0156H55.7852C56.0266 73.3812 56.4315 72.8793 56.9996 72.5099C57.5678 72.1359 58.2567 71.9489 59.0664 71.9489C59.824 71.9489 60.4845 72.1146 61.0479 72.446C61.6114 72.7775 62.0494 73.2509 62.3619 73.8665C62.6744 74.4773 62.8306 75.2064 62.8306 76.054V83H59.805V76.5938C59.8098 75.9261 59.6393 75.4053 59.2937 75.0312C58.948 74.6525 58.4722 74.4631 57.8661 74.4631C57.4589 74.4631 57.0991 74.5507 56.7866 74.7259C56.4788 74.901 56.2373 75.1567 56.0621 75.4929C55.8917 75.8243 55.8041 76.2244 55.7994 76.6932ZM74.2919 75.2017L71.522 75.3722C71.4747 75.1354 71.3729 74.9223 71.2166 74.733C71.0604 74.5388 70.8544 74.3849 70.5987 74.2713C70.3478 74.1529 70.0471 74.0938 69.6967 74.0938C69.228 74.0938 68.8326 74.1932 68.5107 74.392C68.1887 74.5862 68.0277 74.8466 68.0277 75.1733C68.0277 75.4337 68.1319 75.6539 68.3402 75.8338C68.5485 76.0137 68.906 76.1581 69.4126 76.267L71.3871 76.6648C72.4477 76.8826 73.2384 77.233 73.7592 77.7159C74.2801 78.1989 74.5405 78.8333 74.5405 79.6193C74.5405 80.3343 74.3298 80.9616 73.9084 81.5014C73.4917 82.0412 72.9188 82.4626 72.1896 82.7656C71.4652 83.0639 70.6295 83.2131 69.6825 83.2131C68.2384 83.2131 67.0878 82.9124 66.2308 82.3111C65.3786 81.705 64.879 80.8812 64.7322 79.8395L67.7081 79.6832C67.7981 80.1236 68.0159 80.4598 68.3615 80.6918C68.7071 80.919 69.1499 81.0327 69.6896 81.0327C70.2199 81.0327 70.6461 80.9309 70.968 80.7273C71.2947 80.5189 71.4605 80.2514 71.4652 79.9247C71.4605 79.6501 71.3445 79.4252 71.1172 79.25C70.8899 79.0701 70.5395 78.9328 70.0661 78.8381L68.1768 78.4616C67.1115 78.2486 66.3184 77.8793 65.7976 77.3537C65.2815 76.8281 65.0234 76.1581 65.0234 75.3438C65.0234 74.643 65.2128 74.0393 65.5916 73.5327C65.9751 73.026 66.5125 72.6354 67.2038 72.3608C67.8999 72.0862 68.7143 71.9489 69.647 71.9489C71.0249 71.9489 72.1091 72.2401 72.8999 72.8224C73.6953 73.4048 74.1593 74.1979 74.2919 75.2017ZM82.2482 72.0909V74.3636H75.6786V72.0909H82.2482ZM77.1701 69.4773H80.1957V79.6477C80.1957 79.9271 80.2383 80.1449 80.3235 80.3011C80.4087 80.4527 80.5271 80.5592 80.6786 80.6207C80.8349 80.6823 81.0148 80.7131 81.2184 80.7131C81.3604 80.7131 81.5025 80.7012 81.6445 80.6776C81.7866 80.6491 81.8955 80.6278 81.9712 80.6136L82.4471 82.8651C82.2956 82.9124 82.0825 82.9669 81.8079 83.0284C81.5333 83.0947 81.1995 83.1349 80.8065 83.1491C80.0773 83.1776 79.4381 83.0805 78.8888 82.858C78.3443 82.6354 77.9206 82.2898 77.6175 81.821C77.3145 81.3523 77.1654 80.7604 77.1701 80.0455V69.4773ZM89.0735 83.2131C87.9513 83.2131 86.9854 82.9858 86.1758 82.5312C85.3709 82.072 84.7506 81.4233 84.315 80.5852C83.8794 79.7424 83.6616 78.7457 83.6616 77.5952C83.6616 76.473 83.8794 75.4882 84.315 74.6406C84.7506 73.7931 85.3638 73.1326 86.1545 72.6591C86.9499 72.1856 87.8827 71.9489 88.9528 71.9489C89.6725 71.9489 90.3424 72.0649 90.9627 72.2969C91.5877 72.5241 92.1322 72.8674 92.5962 73.3267C93.065 73.786 93.4296 74.3636 93.69 75.0597C93.9504 75.7509 94.0806 76.5606 94.0806 77.4886V78.3196H84.869V76.4446H91.2326C91.2326 76.009 91.1379 75.6231 90.9485 75.2869C90.7591 74.9508 90.4963 74.688 90.1602 74.4986C89.8287 74.3045 89.4428 74.2074 89.0025 74.2074C88.5432 74.2074 88.136 74.3139 87.7809 74.527C87.4305 74.7353 87.1559 75.017 86.957 75.3722C86.7582 75.7225 86.6564 76.1132 86.6516 76.544V78.3267C86.6516 78.8665 86.7511 79.3329 86.9499 79.7259C87.1535 80.1188 87.44 80.4219 87.8093 80.6349C88.1786 80.848 88.6166 80.9545 89.1232 80.9545C89.4594 80.9545 89.7672 80.9072 90.0465 80.8125C90.3259 80.7178 90.565 80.5758 90.7638 80.3864C90.9627 80.197 91.1142 79.965 91.2184 79.6903L94.0167 79.875C93.8746 80.5473 93.5835 81.1345 93.1431 81.6364C92.7075 82.1335 92.1441 82.5218 91.4528 82.8011C90.7662 83.0758 89.9731 83.2131 89.0735 83.2131ZM96.055 83V72.0909H98.9883V73.9943H99.1019C99.3008 73.3172 99.6346 72.8059 100.103 72.4602C100.572 72.1098 101.112 71.9347 101.723 71.9347C101.874 71.9347 102.038 71.9441 102.213 71.9631C102.388 71.982 102.542 72.008 102.674 72.0412V74.7259C102.532 74.6832 102.336 74.6454 102.085 74.6122C101.834 74.5791 101.604 74.5625 101.396 74.5625C100.951 74.5625 100.553 74.6596 100.203 74.8537C99.8571 75.0431 99.5825 75.3082 99.3789 75.6491C99.18 75.9901 99.0806 76.383 99.0806 76.8281V83H96.055Z" fill="black"/>
</svg>
