<?xml version="1.0" standalone="no"?>
<!DOCTYPE svg PUBLIC "-//W3C//DTD SVG 20010904//EN"
 "http://www.w3.org/TR/2001/REC-SVG-20010904/DTD/svg10.dtd">
<svg version="1.0" xmlns="http://www.w3.org/2000/svg"
 width="5626.000000pt" height="3750.000000pt" viewBox="0 0 5626.000000 3750.000000"
 preserveAspectRatio="xMidYMid meet">
<metadata>
Created by potrace 1.16, written by Peter Selinger 2001-2019
</metadata>
<g transform="translate(0.000000,3750.000000) scale(0.100000,-0.100000)"
fill="#000000" stroke="none">
<path d="M8625 15366 c-51 -67 -102 -225 -129 -396 -8 -52 -24 -180 -36 -285
-36 -321 -76 -551 -95 -549 -19 2 -35 49 -35 102 0 211 -273 219 -335 10 -12
-42 -13 -43 -53 -40 -48 4 -71 -7 -135 -64 -60 -54 -103 -69 -154 -55 -102 29
-159 -1 -207 -108 -72 -161 -75 -411 -11 -799 29 -173 89 -423 141 -591 19
-62 34 -114 32 -115 -2 -1 -22 -11 -46 -21 -85 -37 -98 -85 -66 -241 20 -97
14 -189 -19 -299 -74 -247 -98 -335 -110 -399 -17 -102 -15 -966 3 -1241 10
-147 15 -426 15 -930 2 -915 1 -911 167 -1220 154 -287 561 -1071 716 -1380
181 -360 222 -451 433 -958 183 -441 245 -577 353 -776 47 -86 98 -185 115
-221 56 -126 115 -370 94 -391 -16 -16 -123 -23 -163 -11 -32 9 -30 10 35 12
39 0 84 7 100 15 l30 14 -30 -7 c-70 -16 -148 -7 -218 25 -71 34 -162 100
-212 154 -28 30 -27 30 25 -9 83 -61 195 -111 265 -117 l60 -5 -50 13 c-119
31 -253 129 -387 284 -137 159 -152 182 -208 318 -77 187 -157 355 -229 475
-34 57 -63 108 -64 113 -1 4 -17 25 -36 45 -19 20 -41 48 -50 63 -24 38 -144
143 -193 169 -24 12 -60 37 -80 55 -20 19 -49 41 -64 51 -15 10 -35 36 -45 59
-17 37 -19 38 -19 12 l0 -27 -47 24 c-130 67 -253 96 -411 96 -197 0 -364 -48
-505 -144 -21 -15 -43 -24 -48 -21 -5 4 -13 -2 -17 -13 -6 -16 -73 -82 -83
-82 -2 0 -5 21 -7 47 -1 26 -8 52 -14 58 -7 7 -9 7 -5 -1 12 -20 -23 -128 -58
-181 -21 -31 -56 -66 -87 -86 -144 -92 -282 -247 -359 -401 -27 -55 -53 -92
-67 -99 -15 -7 -19 -13 -11 -18 9 -5 0 -34 -29 -101 -22 -51 -48 -111 -58
-133 l-17 -40 -8 40 c-14 70 -10 210 12 398 34 304 12 504 -135 1222 -82 401
-226 1432 -226 1625 0 85 37 403 50 438 6 12 31 36 57 52 59 38 202 203 250
290 20 36 51 85 68 110 18 25 60 97 94 160 35 63 87 147 115 185 29 39 79 108
112 154 32 46 85 107 117 135 68 59 152 179 161 231 7 38 -8 83 -34 96 -8 4
-38 15 -67 23 -57 17 -71 15 -185 -38 -70 -33 -97 -64 -182 -204 -109 -181
-183 -242 -294 -242 -112 0 -278 57 -331 114 -14 15 -25 51 -36 116 -9 52 -23
114 -31 138 -9 24 -14 56 -10 72 14 71 -35 487 -79 665 -8 33 -21 104 -30 159
-17 109 -42 177 -83 219 -34 37 -88 64 -132 69 l-35 3 1 -105 c0 -78 7 -132
27 -210 21 -85 27 -143 34 -300 10 -240 8 -445 -5 -485 -9 -28 -10 -26 -16 30
-36 309 -92 529 -221 858 l-57 145 -61 28 c-34 15 -80 29 -104 32 l-43 5 0
-45 c0 -25 6 -64 14 -86 71 -199 186 -792 186 -952 l0 -65 -20 25 c-11 14 -27
39 -35 55 -20 37 -59 95 -80 116 -8 9 -15 21 -15 27 0 30 -57 131 -157 282
-98 147 -116 169 -164 197 -62 36 -106 47 -149 38 -24 -5 -30 -12 -30 -33 0
-30 29 -99 60 -142 11 -16 27 -47 35 -69 8 -23 35 -74 61 -114 54 -83 97 -174
120 -255 9 -32 28 -70 41 -86 85 -102 146 -324 113 -412 -10 -25 -14 -26 -58
-22 -26 3 -96 25 -157 50 -333 138 -398 155 -480 124 -41 -16 -45 -21 -45 -51
0 -24 9 -45 31 -70 17 -19 35 -35 41 -35 5 0 24 -11 42 -25 18 -14 59 -34 92
-45 32 -11 90 -37 129 -57 38 -20 117 -55 175 -78 l105 -42 32 -64 c17 -35 72
-174 123 -309 101 -269 154 -399 208 -505 33 -66 34 -73 23 -113 -16 -62 -14
-93 20 -242 l31 -135 -1 -1060 c-1 -1140 5 -1358 38 -1529 11 -60 32 -217 46
-350 36 -340 47 -411 110 -676 74 -315 113 -454 190 -674 l64 -186 -48 -57
c-109 -132 -211 -209 -331 -251 l-65 -22 50 5 c113 13 230 76 353 189 92 86
76 44 -24 -62 -170 -181 -320 -248 -489 -220 l-40 7 45 -15 c32 -11 73 -14
145 -11 88 3 96 2 70 -9 -144 -61 -326 -23 -505 105 -46 32 -65 43 -50 26 32
-35 122 -104 180 -138 53 -32 47 -34 -18 -8 -26 10 -71 28 -100 39 -75 30
-224 120 -321 194 -109 83 -132 99 -172 121 l-32 18 34 28 c19 16 45 48 58 72
l24 44 -44 -42 c-43 -41 -95 -69 -102 -55 -4 10 1 146 8 212 4 45 1 63 -17
100 -19 38 -35 51 -101 86 -45 23 -84 52 -91 65 -7 13 -21 37 -31 53 -16 24
-17 30 -6 34 8 3 30 20 50 39 l36 35 -36 -21 c-71 -41 -105 -23 -153 81 -28
60 -83 116 -148 149 -56 29 -167 44 -230 31 -62 -12 -70 -8 -98 55 -49 111
-133 200 -222 238 -41 17 -174 21 -198 5 -11 -7 -22 -3 -40 15 -55 51 -150 85
-205 71 -14 -4 -43 -22 -64 -41 l-38 -35 -114 -2 c-109 -2 -118 -1 -199 31
-143 57 -243 52 -286 -14 -28 -43 -87 -32 -153 29 l-33 31 15 -31 c19 -38 69
-82 103 -90 13 -3 24 -9 24 -13 0 -16 -73 -121 -84 -121 -30 0 -118 55 -160
100 -53 56 -58 53 -18 -11 40 -61 116 -129 146 -129 50 0 57 -8 39 -45 -9 -18
-25 -36 -37 -39 -36 -10 -104 -7 -112 5 -17 28 -100 69 -139 69 -49 0 -70 -19
-108 -96 -32 -64 -49 -77 -88 -72 -29 5 -30 4 -14 -9 11 -7 31 -13 46 -13 34
0 41 -10 24 -33 -12 -17 -19 -18 -68 -7 -81 19 -167 9 -215 -22 -59 -40 -87
-104 -86 -198 1 -42 8 -91 16 -111 l16 -36 -43 -11 c-25 -6 -62 -29 -92 -56
-60 -54 -85 -62 -140 -42 -54 19 -55 13 -3 -14 55 -28 98 -25 152 9 81 51 161
61 173 20 3 -10 8 -29 11 -41 6 -20 4 -21 -41 -15 -102 14 -202 -41 -192 -107
3 -24 -3 -36 -39 -70 -33 -32 -45 -52 -50 -85 l-7 -42 -45 43 c-54 52 -43 23
25 -65 30 -38 47 -71 50 -97 5 -38 4 -41 -28 -55 -30 -12 -31 -14 -10 -15 21
0 22 -2 10 -17 -23 -27 -75 -43 -141 -44 -71 0 -57 -12 28 -23 93 -13 184 31
214 104 7 16 17 30 22 30 13 0 58 -51 58 -66 0 -6 -20 -24 -44 -38 -24 -14
-53 -38 -64 -53 -19 -25 -23 -27 -42 -15 -28 17 -35 10 -12 -11 18 -16 17 -20
-18 -90 -21 -41 -47 -118 -60 -173 -12 -54 -24 -104 -25 -110 -4 -13 -94 -27
-121 -18 -16 5 -16 4 -4 -5 8 -6 29 -11 45 -11 53 0 75 -11 75 -35 0 -19 -7
-24 -41 -29 -53 -9 -99 -53 -99 -95 0 -28 -3 -31 -30 -31 -17 0 -43 -6 -58
-14 l-27 -14 -100 180 c-54 100 -114 204 -132 232 l-32 51 -1 -1492 0 -1493
2510 0 2509 0 84 83 c46 45 107 110 135 145 29 35 52 60 52 57 0 -21 -121
-207 -163 -253 -17 -17 -26 -32 -20 -32 13 0 132 105 191 169 42 45 43 46 26
11 -9 -19 -36 -66 -60 -103 -49 -76 -50 -77 -29 -77 19 0 108 108 197 240 76
112 106 150 68 85 -41 -70 -121 -188 -172 -252 -26 -35 -48 -65 -48 -67 0 -2
55 -5 123 -5 l122 -1 28 42 c15 24 39 57 53 73 l27 30 -28 -50 c-16 -27 -35
-60 -43 -72 -14 -22 -13 -23 12 -23 25 0 44 20 128 140 l18 25 -9 -25 c-5 -14
-21 -51 -35 -83 -44 -98 -7 -59 65 67 l67 118 7 -44 c6 -39 2 -54 -29 -116
-20 -39 -36 -74 -36 -77 0 -16 29 -1 52 27 l27 33 1 -32 0 -33 4191 0 4192 0
-6 68 c-24 262 -16 613 19 882 19 144 62 362 75 375 6 5 9 4 9 -4 0 -7 65
-144 144 -304 80 -161 195 -409 257 -552 61 -143 133 -306 160 -362 l48 -103
2624 0 2624 0 128 273 c196 414 365 760 369 756 7 -7 55 -325 76 -504 15 -135
40 -445 40 -512 0 -10 473 -13 2334 -13 l2334 0 -20 63 c-102 328 -220 775
-273 1039 -61 306 -79 472 -79 748 0 328 26 533 111 875 43 171 143 494 162
524 7 11 15 2 34 -36 16 -31 71 -94 146 -169 150 -149 157 -165 136 -276 l-15
-82 34 -136 c47 -183 79 -353 116 -620 31 -223 32 -226 91 -366 59 -141 99
-272 99 -326 0 -39 7 -50 125 -213 178 -244 231 -335 281 -485 31 -93 33 -129
19 -356 -4 -72 -5 -143 -1 -158 l6 -26 1564 0 c1480 0 1564 1 1571 18 13 35
18 820 6 1138 l-12 321 35 99 c19 55 51 146 72 204 l37 105 -17 135 c-9 74
-16 171 -16 216 0 62 -6 99 -29 165 -40 119 -92 242 -157 372 l-56 111 48 -39
49 -39 -56 61 c-31 34 -77 93 -103 132 -51 77 -146 249 -146 267 0 6 10 16 23
22 20 10 20 10 -8 6 -30 -5 -30 -5 -82 123 -29 70 -66 164 -82 208 l-28 80 19
44 18 44 86 -173 c46 -95 87 -171 89 -168 3 3 -8 34 -24 69 -16 35 -54 131
-86 213 l-57 150 18 110 18 111 69 -143 c37 -79 70 -142 73 -139 2 2 -5 25
-16 51 -11 26 -20 50 -20 53 0 3 25 -30 56 -73 67 -93 107 -139 217 -242 l81
-77 -99 108 c-132 143 -203 245 -282 402 l-65 131 14 69 14 70 50 -105 c53
-109 253 -464 332 -585 25 -38 45 -76 45 -82 0 -7 14 -25 30 -40 l30 -28 -32
55 c-33 56 -141 267 -141 273 0 2 33 -27 73 -66 97 -93 225 -188 320 -238 90
-47 104 -46 20 1 -134 76 -298 221 -413 366 -66 83 -103 145 -44 74 169 -204
414 -382 619 -451 l80 -27 61 -168 c55 -154 268 -627 664 -1474 76 -162 255
-529 397 -815 269 -539 278 -560 364 -837 l52 -168 2455 0 2454 0 -5 22 c-3
13 -11 70 -17 128 -26 232 10 349 226 747 187 345 230 430 409 798 330 683
454 935 460 935 9 0 100 -197 225 -485 59 -137 127 -293 149 -345 23 -52 145
-300 271 -550 320 -638 460 -945 534 -1168 l28 -82 3024 0 c2877 0 3025 1
3020 18 -11 37 -128 578 -148 689 -19 103 -22 152 -22 388 0 240 3 289 26 440
64 421 194 862 381 1301 60 140 225 495 233 504 3 3 3 -155 -1 -350 -4 -223
-3 -463 4 -645 10 -247 10 -308 -3 -410 -8 -66 -20 -217 -26 -335 -6 -118 -18
-246 -26 -285 -63 -288 -72 -983 -15 -1190 10 -38 22 -82 25 -97 l6 -28 2305
0 c1268 0 2305 2 2305 3 0 2 -15 51 -33 108 -26 81 -60 150 -151 309 -146 253
-210 347 -323 474 -149 167 -335 360 -372 385 -20 14 -76 58 -126 98 -49 41
-116 86 -147 101 -48 22 -58 31 -58 52 0 34 -31 82 -75 115 -20 16 -43 42 -52
59 -9 17 -37 58 -63 92 -87 113 -105 203 -79 380 9 60 9 99 0 170 -19 143 -16
208 14 304 41 130 113 257 260 460 118 163 134 190 140 235 11 86 43 190 99
322 54 126 55 131 91 376 36 249 80 481 116 612 22 79 24 137 8 217 -16 79 2
110 141 248 87 86 126 133 156 188 37 69 40 72 69 67 28 -5 28 -4 8 7 -44 22
-22 25 49 7 39 -11 94 -19 122 -18 l51 1 -65 13 c-50 10 -138 38 -157 50 -1 0
40 85 91 188 51 102 96 183 100 180 4 -4 4 1 0 12 -6 15 -4 17 12 10 59 -24
180 -57 270 -72 l104 -17 159 -316 c173 -342 213 -430 379 -830 159 -380 202
-475 292 -641 134 -245 159 -334 210 -735 35 -278 80 -544 155 -914 96 -480
89 -367 90 -1392 l0 -908 1856 0 1856 0 1 233 c1 523 71 816 284 1190 134 236
717 1177 798 1289 l30 41 0 1153 0 1154 -32 -7 c-118 -22 -391 -97 -480 -132
-113 -45 -181 -87 -294 -186 -94 -82 -146 -116 -219 -145 -47 -19 -75 -40
-130 -98 -59 -62 -109 -102 -129 -102 -2 0 24 60 58 133 108 225 154 363 185
551 l17 100 47 12 c62 16 122 52 178 108 60 59 75 91 121 271 41 158 50 258
27 307 -11 25 -62 58 -89 58 -14 0 -14 0 24 145 43 162 59 279 60 435 1 228
-34 345 -149 505 -80 113 -101 132 -179 172 -41 21 -99 63 -142 104 -112 106
-208 139 -410 139 -190 0 -333 -34 -504 -120 -374 -188 -560 -499 -560 -937 0
-60 -4 -103 -10 -103 -5 0 -25 -13 -43 -30 -45 -39 -57 -89 -57 -237 0 -68 -6
-143 -15 -178 -20 -83 -18 -150 6 -258 18 -79 19 -107 12 -197 -11 -145 -7
-171 39 -285 44 -111 46 -151 9 -223 -22 -44 -103 -122 -126 -122 -8 0 -32 11
-53 24 -52 34 -97 39 -188 21 -105 -20 -156 -19 -234 6 -42 13 -106 22 -180
26 -66 3 -126 12 -142 19 -35 18 -72 81 -126 218 -79 199 -163 290 -438 474
-231 154 -305 234 -667 716 -378 504 -513 724 -558 907 l-21 86 58 99 c33 55
116 215 186 355 109 218 138 268 208 354 251 311 357 464 456 658 59 116 74
137 158 220 74 73 123 137 242 315 82 123 177 276 212 340 153 283 602 1207
782 1609 125 277 180 378 265 483 46 58 60 67 116 87 35 12 76 24 90 27 40 9
250 234 351 377 25 35 63 96 84 134 25 47 64 96 119 150 48 47 89 98 101 124
11 25 30 49 47 58 16 8 66 49 111 92 81 78 293 218 400 265 100 45 146 103
146 186 l0 40 -40 0 c-22 0 -73 -13 -115 -30 -88 -35 -105 -37 -82 -12 24 27
43 132 25 143 -21 14 -188 10 -281 -6 -106 -18 -182 -46 -248 -91 -41 -27 -54
-32 -70 -23 -11 5 -73 19 -137 30 -93 15 -205 43 -219 53 -1 1 20 46 47 99 26
54 51 115 55 136 4 26 25 62 61 107 29 37 69 98 89 135 19 36 42 73 51 80 45
37 67 159 48 258 -6 30 -9 32 -38 25 -87 -19 -162 -88 -241 -224 -31 -52 -77
-112 -121 -156 -39 -39 -75 -81 -79 -95 -15 -49 -64 -136 -121 -214 -31 -44
-78 -112 -103 -151 -25 -39 -65 -99 -89 -135 -24 -35 -82 -133 -130 -217 l-87
-153 -128 -66 c-141 -73 -143 -75 -173 -188 -20 -75 -26 -262 -11 -345 8 -44
7 -47 -98 -223 -183 -307 -480 -740 -616 -897 -36 -41 -77 -95 -91 -120 -15
-25 -61 -85 -103 -135 -42 -49 -99 -122 -126 -162 -27 -39 -53 -74 -58 -77
-20 -13 -164 -200 -301 -391 -79 -110 -166 -229 -193 -265 -96 -125 -151 -263
-296 -740 -77 -257 -80 -262 -187 -383 -53 -60 -98 -106 -100 -104 -9 8 -24
166 -34 349 -12 223 -1 479 25 578 21 81 15 133 -25 204 -60 106 -46 207 48
353 102 160 135 253 154 428 9 85 9 151 0 270 -13 187 -28 228 -103 282 -42
30 -49 40 -60 89 -11 47 -10 76 5 182 82 605 90 715 61 826 -20 77 -48 116
-84 116 -15 0 -35 -8 -43 -17 -52 -59 -97 -216 -123 -423 -53 -436 -77 -580
-95 -580 -12 0 -30 58 -30 97 0 65 -55 123 -115 123 -62 0 -135 -65 -154 -137
-7 -25 -11 -27 -48 -25 -35 3 -47 -2 -87 -37 -69 -60 -78 -63 -156 -55 -88 8
-111 -5 -150 -87 -85 -180 -52 -585 86 -1068 24 -84 44 -155 44 -156 0 -2 -13
-6 -30 -10 -36 -8 -80 -58 -80 -91 0 -14 7 -57 16 -97 22 -97 14 -173 -36
-332 -57 -180 -69 -239 -76 -399 l-7 -138 -36 -16 c-63 -27 -181 -20 -290 17
-93 31 -154 59 -101 46 179 -43 285 -45 355 -6 22 12 31 19 20 15 -57 -19
-105 -25 -154 -20 -70 8 -210 55 -303 102 -70 35 -263 148 -301 176 -17 13
-11 27 94 228 61 118 166 316 233 440 188 347 218 422 266 645 39 184 62 243
130 331 83 108 97 161 64 244 -9 23 -15 42 -13 44 2 1 27 18 54 36 69 47 187
162 245 240 63 85 114 171 207 343 42 78 102 180 134 227 44 63 63 104 78 161
30 114 35 122 110 201 38 40 93 111 121 158 29 47 87 132 130 190 116 157 148
235 134 327 -6 43 -7 43 -47 43 -39 0 -47 -5 -107 -70 -36 -38 -69 -70 -74
-70 -4 0 38 50 95 110 150 159 205 227 239 294 35 69 38 113 9 150 -58 73
-176 -3 -421 -272 -100 -109 -154 -160 -182 -173 -50 -22 -78 -51 -144 -150
-55 -82 -112 -139 -141 -139 -29 0 -68 37 -82 77 -19 58 -5 200 34 343 84 304
132 468 194 655 82 248 88 309 35 356 -75 67 -125 30 -223 -166 -38 -77 -67
-126 -65 -110 17 103 17 123 2 158 -9 23 -25 41 -41 47 -59 22 -109 -36 -220
-258 -72 -144 -119 -270 -235 -627 -44 -137 -96 -281 -115 -320 -38 -79 -123
-190 -145 -190 -28 0 -44 58 -51 190 -9 165 -33 235 -107 317 -40 45 -85 68
-131 68 -34 0 -35 -2 -52 -155 -14 -133 -5 -828 13 -1005 7 -63 12 -160 12
-215 0 -118 -14 -159 -112 -324 -33 -57 -64 -116 -67 -133 -9 -37 -26 -44 -75
-29 -46 14 -73 6 -65 -19 4 -12 -5 -31 -22 -52 -35 -41 -47 -66 -90 -198 -59
-181 -243 -540 -412 -802 l-76 -119 -165 -4 c-91 -2 -199 -4 -240 -2 -139 3
-215 2 -297 -6 l-81 -7 18 48 c49 129 81 441 57 553 -11 54 -51 89 -99 89 -48
0 -69 -11 -132 -67 -76 -67 -73 -70 -101 112 -22 143 -41 202 -70 221 -34 22
-83 13 -139 -25 -25 -17 -46 -31 -48 -31 -3 0 -34 29 -70 65 -59 59 -69 65
-106 65 -32 0 -45 -6 -61 -26 -12 -15 -21 -32 -21 -38 0 -35 -52 -117 -88
-141 -54 -35 -89 -31 -120 15 -27 40 -28 12 4 465 31 457 4 682 -94 788 -78
83 -171 -27 -202 -238 -6 -38 -15 -223 -20 -410 -11 -370 -21 -511 -51 -680
-38 -210 -145 -595 -166 -595 -15 0 -83 81 -179 215 -116 162 -201 248 -290
292 l-74 36 -122 -5 -123 -5 -80 135 c-44 74 -124 203 -179 286 -120 183 -247
391 -334 546 -35 63 -80 136 -98 162 -40 57 -112 198 -228 451 -114 248 -138
320 -139 422 -2 89 11 128 104 321 34 70 53 126 64 185 8 46 28 131 45 188 29
102 29 106 18 203 -9 77 -9 124 0 210 13 110 13 110 -13 153 -22 39 -25 55
-25 142 0 98 -13 177 -31 199 -18 21 -80 -7 -134 -61 -85 -84 -107 -194 -60
-305 30 -72 31 -81 5 -128 -11 -20 -28 -58 -39 -84 -10 -25 -31 -54 -45 -63
-23 -15 -30 -15 -76 -2 -89 26 -116 52 -170 158 -68 133 -140 350 -147 441 -4
47 -14 90 -29 120 -26 51 -58 160 -74 250 -13 67 -66 201 -100 248 -24 34
-107 78 -120 63 -18 -20 -30 -82 -30 -156 0 -60 10 -117 40 -234 27 -106 40
-177 40 -222 0 -37 4 -71 9 -76 6 -6 22 -57 36 -115 14 -58 30 -121 36 -140 6
-20 9 -49 7 -65 -2 -24 -8 -31 -31 -33 -16 -2 -31 -10 -34 -18 -4 -11 -8 -12
-20 -2 -21 17 -38 54 -57 128 -31 118 -118 292 -164 330 -27 22 -47 30 -75 30
-34 0 -40 -4 -54 -37 -28 -64 -21 -163 17 -268 80 -220 90 -252 89 -290 0 -22
-3 -33 -6 -25 -3 8 -27 62 -53 120 -58 128 -108 338 -88 370 10 16 8 28 -15
73 -15 30 -27 58 -27 64 0 18 -36 43 -62 43 -67 0 -106 -112 -93 -270 4 -52 9
-126 11 -163 2 -46 13 -94 34 -147 16 -44 37 -108 45 -142 17 -73 20 -184 5
-193 -16 -10 -73 36 -176 139 -136 136 -285 271 -325 295 -20 12 -63 24 -97
27 l-62 7 0 -44 c0 -27 9 -61 23 -88 13 -23 122 -145 243 -269 296 -306 423
-466 555 -702 47 -85 83 -131 190 -245 203 -217 209 -227 375 -600 229 -513
450 -1046 483 -1165 20 -68 75 -204 164 -405 43 -99 104 -242 133 -319 30 -76
74 -177 98 -225 24 -47 47 -97 51 -111 4 -14 22 -47 40 -75 17 -27 41 -66 53
-85 11 -19 41 -55 66 -79 26 -25 48 -58 52 -75 3 -17 22 -62 40 -100 32 -62
56 -97 188 -268 28 -37 53 -85 71 -140 15 -45 69 -177 120 -293 128 -290 155
-369 254 -725 89 -320 151 -486 262 -700 21 -42 39 -82 39 -90 0 -8 -17 -66
-38 -129 l-37 -114 -90 -79 c-139 -120 -231 -186 -455 -319 -113 -68 -275
-170 -360 -226 -85 -57 -170 -113 -189 -125 -39 -26 -119 -128 -226 -291 l-77
-117 -14 -108 c-8 -59 -21 -141 -30 -182 -9 -41 -19 -92 -21 -112 -5 -33 -11
-40 -81 -81 -93 -54 -122 -64 -122 -44 0 8 9 57 19 108 11 52 31 184 45 294
65 493 78 574 115 712 11 39 13 40 60 46 58 7 163 53 208 91 23 19 38 46 52
90 58 188 51 528 -12 568 -7 4 -22 8 -35 8 -15 0 -26 9 -32 26 -12 31 -13 127
-1 120 4 -3 29 -48 55 -100 34 -68 62 -108 101 -145 30 -28 59 -51 66 -51 6 0
0 9 -15 21 -27 21 -67 83 -86 134 l-11 30 23 -21 c38 -34 55 -39 28 -9 l-25
29 27 -17 c37 -23 41 -21 13 7 -47 47 -81 142 -139 394 -15 66 -13 68 34 28
17 -15 14 -8 -11 24 -53 67 -54 71 -7 45 49 -28 88 -34 43 -7 -33 21 -99 91
-91 99 2 3 37 -17 78 -44 40 -27 91 -60 113 -73 35 -21 32 -17 -20 30 -85 76
-187 181 -181 187 7 7 48 -17 69 -41 l18 -21 -11 23 c-19 39 18 21 92 -44 20
-18 47 -38 60 -45 17 -9 14 -2 -14 29 -21 23 -38 44 -38 47 0 3 12 3 28 0 27
-6 27 -6 -3 8 -17 8 -63 47 -103 88 -62 63 -69 74 -51 77 34 6 261 -151 373
-257 51 -48 56 -52 40 -23 -11 18 -47 64 -82 103 -35 38 -61 69 -59 69 3 0 24
-9 48 -20 63 -28 82 -24 29 6 -58 33 -131 103 -184 179 -62 87 -62 87 -30 79
20 -5 25 -4 19 5 -5 9 2 8 21 -2 41 -21 207 -87 210 -84 2 2 -23 18 -54 37
-73 43 -392 251 -392 255 0 2 74 -32 163 -75 141 -68 254 -111 292 -110 5 0
-15 11 -46 23 -51 22 -125 66 -87 54 9 -3 34 -8 55 -12 l38 -6 -40 17 c-22 10
-58 29 -80 43 l-40 26 30 4 c26 3 23 5 -25 17 -55 15 -169 84 -189 115 -8 15
-3 18 42 24 29 3 63 13 77 21 17 11 19 13 5 9 -43 -14 -82 -15 -129 -3 -65 17
-72 38 -14 39 74 2 101 15 32 17 -56 1 -135 24 -194 56 l-24 14 39 10 c22 6
92 15 155 21 188 16 186 27 -6 34 -93 4 -182 11 -199 15 l-30 9 50 25 c28 14
79 35 114 47 36 12 76 29 90 37 l26 15 -30 -6 c-61 -13 -141 -25 -165 -24 -21
0 -18 3 15 15 61 22 63 33 3 17 -56 -15 -290 -15 -305 1 -7 7 30 44 89 89 23
17 22 17 -10 2 -30 -14 -174 -54 -197 -55 -5 0 6 13 25 30 48 40 31 37 -55
-10 -40 -22 -75 -40 -77 -40 -3 0 12 34 34 76 22 41 38 77 36 79 -2 2 -35 -31
-72 -73 -78 -88 -141 -142 -165 -142 -10 0 -26 7 -37 15 -18 14 -15 19 71 102
50 49 122 114 160 147 39 32 83 75 100 95 l30 36 -36 -27 c-47 -35 -146 -88
-152 -81 -3 2 10 25 29 50 56 73 61 91 11 42 -69 -69 -371 -279 -383 -266 -6
5 111 174 164 237 80 96 79 95 62 85 -33 -20 -41 -14 -35 23 5 36 5 36 -12 -8
-11 -31 -45 -74 -110 -140 l-94 -95 27 70 c34 89 123 347 124 359 0 6 -13 -10
-29 -35 -16 -24 -39 -55 -51 -69 l-21 -25 6 50 6 50 -24 -56 c-22 -51 -65
-129 -71 -129 -2 0 0 19 5 43 18 94 5 74 -59 -93 -38 -96 -75 -188 -84 -204
l-15 -29 -6 34 c-3 19 -11 78 -18 132 -6 54 -14 96 -16 93 -3 -2 -8 -62 -12
-133 l-7 -128 -21 45 c-12 25 -30 90 -40 145 l-18 100 -5 -62 -5 -63 -68 128
c-48 89 -66 117 -62 92 l6 -35 -20 35 -20 35 6 -35 c3 -19 16 -80 29 -135 16
-72 18 -94 8 -80 -18 24 -18 23 6 -60 11 -38 20 -74 20 -80 0 -5 -25 28 -55
74 -30 46 -55 79 -55 74 0 -5 13 -48 29 -96 17 -48 28 -87 26 -87 -2 0 -20 28
-39 63 -20 34 -36 59 -36 55 0 -4 18 -56 40 -114 22 -59 38 -110 35 -112 -8
-8 -112 96 -137 136 -11 19 -34 73 -50 120 l-29 87 6 -72 c3 -40 10 -86 15
-103 5 -18 5 -30 -1 -30 -5 0 -2 -11 7 -25 20 -31 9 -32 -36 -2 -108 73 -117
72 -37 -3 60 -58 72 -60 -161 34 -90 36 -166 66 -170 66 -4 0 11 -12 33 -25
62 -38 34 -30 -65 20 -50 25 -90 43 -90 41 0 -2 37 -30 83 -62 126 -87 129
-86 -58 -12 -66 26 -54 16 63 -54 108 -65 105 -72 -12 -28 -44 16 -81 28 -83
26 -2 -1 18 -15 45 -30 44 -26 45 -27 14 -22 -18 3 -69 8 -115 11 l-82 6 90
-25 c50 -13 108 -31 130 -39 38 -13 35 -14 -70 -10 l-110 3 90 -20 c50 -10
124 -31 165 -46 107 -38 252 -112 247 -127 -6 -17 -20 -14 -137 31 -58 23 -97
36 -86 29 59 -38 127 -90 123 -93 -2 -3 -50 11 -107 30 -99 35 -231 67 -267
65 -10 0 2 -7 26 -14 48 -15 263 -117 258 -122 -2 -2 -74 15 -161 37 -168 43
-205 49 -140 22 54 -22 48 -42 -9 -31 -23 4 -58 8 -77 8 -28 0 -20 -4 40 -22
63 -19 245 -105 237 -113 -1 -1 -63 2 -137 6 -74 5 -169 9 -210 8 l-75 0 60
-12 60 -12 -48 -8 c-59 -10 -71 -26 -20 -26 43 0 176 -44 181 -60 2 -5 11 -10
19 -10 9 0 13 -6 10 -14 -4 -9 0 -12 13 -9 10 3 28 -2 40 -10 20 -14 18 -16
-48 -41 -38 -15 -139 -44 -223 -65 l-154 -38 80 4 c44 2 89 6 99 8 35 7 2 -12
-61 -35 -68 -24 -79 -32 -35 -25 15 2 81 7 147 10 138 7 148 -7 20 -27 l-80
-13 73 -3 c39 -2 72 -5 72 -7 0 -11 -68 -69 -105 -91 -22 -13 -65 -30 -95 -39
l-55 -15 52 4 c29 3 96 19 149 36 118 38 142 36 83 -6 -57 -41 -138 -120 -169
-164 l-25 -35 33 25 c18 14 47 37 65 51 40 33 126 84 158 94 l23 8 -26 -35
c-72 -94 -166 -255 -132 -226 14 12 5 -13 -27 -77 -26 -52 -46 -95 -44 -95 2
0 24 29 50 65 25 36 49 65 52 65 3 0 1 -6 -4 -12 -5 -7 -15 -26 -22 -43 -11
-25 -4 -21 49 29 33 32 63 56 66 53 7 -6 -66 -198 -101 -267 -16 -30 -39 -71
-53 -90 -23 -33 -22 -32 21 10 26 24 47 41 47 38 0 -4 -9 -27 -19 -52 -16 -35
-17 -44 -5 -39 17 6 17 0 3 -52 -18 -71 -17 -71 -52 -33 -18 19 -56 47 -85 62
-51 26 -52 27 -54 74 -1 40 -2 42 -5 12 -3 -19 -8 -39 -13 -44 -11 -11 -84 18
-130 52 l-35 25 25 -28 c14 -15 50 -44 80 -64 42 -27 50 -36 36 -39 -16 -3
-18 -10 -13 -53 l6 -48 -57 28 c-31 16 -92 39 -135 50 -88 24 -131 43 -166 75
l-24 21 12 -23 c7 -12 36 -39 66 -59 44 -28 53 -39 44 -49 -17 -20 -86 -36
-122 -28 -54 11 -10 -20 48 -35 56 -14 99 -38 133 -74 39 -42 11 -37 -93 14
-167 83 -296 96 -440 46 -33 -11 -82 -21 -108 -21 -40 0 -45 -2 -25 -9 12 -5
78 -6 145 -2 99 5 127 4 151 -9 26 -13 48 -43 39 -52 -2 -2 -52 -13 -111 -24
-60 -12 -138 -32 -175 -46 -36 -14 -73 -28 -82 -30 -10 -4 -44 30 -106 103
-126 151 -177 220 -321 438 -234 356 -371 521 -573 691 -91 78 -86 53 -65 285
23 248 41 307 189 605 89 182 142 330 226 629 28 99 75 252 105 340 68 200 86
295 86 444 -1 129 -9 182 -38 220 -33 45 -68 39 -159 -23 -44 -30 -88 -56 -99
-58 -20 -3 -23 7 -43 163 -15 113 -36 173 -73 204 -39 33 -52 32 -121 -11 -73
-45 -92 -41 -146 31 -72 95 -118 89 -188 -23 -111 -179 -162 -195 -216 -72
-28 63 -26 199 8 420 32 206 40 510 16 615 -18 81 -66 170 -106 195 -86 53
-143 -4 -179 -182 -16 -77 -22 -156 -51 -618 -17 -258 -41 -478 -76 -670 -21
-116 -88 -391 -108 -443 l-11 -28 -35 27 c-43 33 -108 114 -203 255 -85 125
-160 200 -239 237 -52 24 -69 27 -173 27 -63 0 -126 -3 -140 -7 -24 -7 -29 -1
-82 95 -93 168 -109 206 -135 311 -31 126 -58 174 -122 216 -64 41 -107 90
-140 160 -37 79 -35 202 7 410 17 85 43 234 57 330 14 96 46 267 71 380 54
241 68 401 40 445 -34 52 -161 23 -227 -53 -58 -65 -87 -145 -98 -265 -10
-109 -23 -147 -58 -166 -10 -5 -54 -17 -98 -26 -44 -10 -92 -24 -108 -32 l-27
-14 -31 68 c-68 150 -188 534 -229 733 -58 275 -125 387 -242 407 l-35 5 -13
-52 c-19 -80 -7 -195 39 -373 24 -93 41 -180 40 -210 0 -47 -6 -33 -54 135
-30 102 -67 250 -84 328 -46 217 -87 290 -163 290 -43 0 -74 -24 -84 -66 -12
-47 4 -247 30 -374 13 -69 37 -206 51 -305 15 -99 37 -215 51 -258 26 -86 31
-179 11 -237 -7 -21 -28 -45 -54 -64 l-42 -29 -22 29 c-12 16 -117 124 -234
239 -117 116 -241 243 -275 283 -34 40 -87 90 -117 110 -52 34 -62 37 -127 37
l-71 0 -3 -47 c-4 -61 13 -94 99 -190 38 -42 69 -80 69 -85 0 -4 -14 -16 -31
-26 -31 -17 -32 -18 -25 -78 8 -81 31 -130 100 -214 99 -120 147 -188 178
-249 17 -33 54 -95 83 -137 46 -67 133 -217 289 -498 34 -62 75 -109 234 -265
105 -104 192 -193 192 -197 0 -4 -17 -1 -37 7 -21 7 -74 13 -118 13 -144 1
-215 -49 -375 -264 -186 -250 -257 -290 -510 -288 -216 2 -345 42 -415 128
-18 22 -63 97 -100 167 -56 105 -85 146 -162 230 -117 128 -162 193 -308 449
-297 518 -349 576 -510 567 l-60 -3 -3 -40 c-5 -62 10 -99 114 -271 127 -211
138 -233 163 -345 23 -103 44 -141 186 -347 60 -88 110 -192 102 -215 -6 -19
-128 137 -254 326 -318 478 -485 624 -705 615 -67 -3 -73 -5 -76 -26 -6 -37
43 -127 105 -194 110 -118 243 -301 375 -513 95 -154 208 -349 208 -360 0 -24
-101 93 -168 195 -142 215 -230 278 -393 288 l-89 5 0 -40 c0 -57 42 -134 121
-218 90 -98 114 -136 138 -223 11 -42 40 -106 67 -150 125 -202 144 -236 163
-294 12 -34 19 -63 18 -65 -2 -1 -62 15 -133 36 -170 51 -240 64 -315 59 -54
-4 -66 -8 -90 -36 -55 -62 -29 -123 78 -179 32 -17 123 -54 203 -83 80 -29
163 -65 186 -81 72 -49 175 -170 324 -379 115 -162 176 -237 297 -361 234
-243 275 -303 287 -417 8 -86 29 -129 121 -247 99 -128 124 -180 180 -365 50
-165 141 -415 513 -1405 132 -352 276 -737 320 -855 144 -388 198 -495 308
-609 61 -65 83 -98 148 -230 42 -84 75 -155 74 -156 -6 -6 -103 16 -112 25 -6
6 -3 16 7 28 26 29 12 52 -31 52 -86 0 -188 88 -260 227 -61 119 -121 277
-147 388 -30 131 -37 147 -86 200 -36 39 -39 45 -21 45 12 0 24 5 27 10 7 12
-19 57 -44 78 -14 12 -13 13 7 9 12 -3 22 -2 22 3 0 9 -74 78 -143 134 -66 54
-77 79 -77 175 0 151 -73 268 -208 333 -59 28 -78 32 -152 32 -47 1 -99 -3
-116 -7 -29 -8 -32 -6 -38 23 -9 48 -39 83 -127 151 -43 34 -79 64 -79 68 0 3
-10 17 -21 31 l-20 25 15 -38 c9 -21 25 -51 36 -67 l21 -29 -35 14 c-45 19
-44 19 -38 -10 3 -19 0 -25 -14 -25 -13 0 -26 17 -44 57 -55 128 -163 261
-237 292 -28 11 -33 20 -41 64 -9 47 -10 49 -11 16 -2 -73 -52 -76 -129 -6
-31 28 -40 33 -26 15 10 -15 45 -44 78 -65 40 -26 53 -39 41 -41 -15 -3 -16
-11 -11 -53 4 -27 4 -49 1 -49 -3 0 -24 10 -47 21 -23 12 -80 32 -127 46 -96
28 -135 45 -170 77 l-24 21 12 -23 c7 -13 32 -36 56 -51 l44 -28 -50 -24 c-28
-13 -62 -22 -75 -21 -38 3 -29 -4 38 -28 100 -37 158 -80 158 -119 0 -5 -26 6
-57 25 -72 43 -149 72 -237 89 -76 15 -117 10 -246 -24 l-75 -20 96 0 c53 -1
110 -6 128 -12 30 -10 59 -45 47 -56 -2 -3 -60 -16 -128 -30 -72 -14 -151 -37
-192 -55 -60 -28 -75 -41 -125 -107 -31 -42 -69 -82 -84 -91 -25 -14 -30 -13
-60 3 l-32 17 35 -30 c20 -17 28 -30 20 -30 -23 0 -213 -96 -232 -117 -9 -10
-35 -56 -58 -103 -23 -47 -48 -92 -56 -101 -12 -14 -11 -15 16 -11 24 3 30 1
30 -15 0 -24 -55 -77 -100 -97 l-35 -15 37 -1 c32 0 44 7 92 57 45 46 56 54
61 40 13 -31 -28 -90 -95 -137 -56 -40 -70 -57 -115 -140 -28 -52 -90 -153
-137 -225 -102 -155 -198 -323 -198 -347 0 -15 5 -15 53 6 98 44 97 44 97 -8
0 -51 -33 -151 -72 -217 -15 -24 -58 -79 -97 -122 -66 -72 -86 -107 -61 -107
6 0 8 -11 4 -25 -6 -23 -3 -25 27 -25 19 0 40 -4 47 -9 20 -13 -10 -22 -96
-28 -58 -5 -72 -9 -68 -20 4 -8 6 -18 6 -22 0 -5 18 -21 40 -36 l40 -27 -20
-26 c-23 -28 -26 -52 -7 -52 7 0 34 13 60 30 26 16 47 27 47 24 0 -3 -16 -33
-35 -65 -38 -66 -42 -78 -20 -59 8 7 21 10 29 7 12 -5 11 -12 -6 -46 -11 -22
-18 -52 -16 -68 2 -24 8 -28 36 -31 33 -3 33 -4 27 -43 -5 -30 -4 -39 6 -37
15 3 47 -98 48 -153 1 -19 7 -44 15 -54 14 -19 15 -19 50 -2 20 9 41 17 47 17
14 0 47 -81 76 -190 19 -72 25 -121 26 -205 1 -126 -14 -179 -65 -232 -42 -44
-26 -41 55 7 36 22 71 40 77 40 20 0 40 -68 40 -138 0 -86 -21 -147 -68 -202
-23 -28 -29 -39 -16 -32 27 14 92 86 106 118 29 64 40 -11 24 -166 l-11 -115
-50 46 c-28 25 -171 147 -320 270 -248 205 -405 353 -635 595 -59 62 -102 97
-141 116 -30 15 -98 58 -150 96 -103 76 -167 112 -199 112 -28 0 -78 -26 -113
-58 l-27 -26 -66 64 c-36 36 -112 121 -169 190 -208 253 -266 310 -470 460
-296 218 -366 317 -459 640 -19 69 -44 152 -56 184 l-20 59 31 115 c73 273
116 391 248 692 45 101 96 226 113 276 27 80 42 106 124 210 96 121 152 215
175 293 9 29 33 67 69 105 31 34 72 88 91 121 48 80 181 363 212 450 14 39 50
129 82 200 116 265 194 453 219 534 54 172 264 677 515 1239 148 332 166 361
378 582 89 93 130 146 162 205 129 237 281 433 574 735 136 141 246 262 257
286 11 22 20 60 20 83 l0 43 -58 -4 c-78 -5 -120 -29 -221 -126 -372 -355
-379 -360 -395 -345 -12 12 -6 149 9 206 8 31 29 93 45 137 22 56 32 100 34
152 2 40 7 116 11 168 13 159 -26 270 -93 270 -38 0 -45 -7 -81 -82 -27 -55
-32 -73 -26 -106 4 -26 -1 -69 -14 -127 -12 -47 -21 -93 -21 -102 0 -8 -22
-65 -49 -127 -26 -61 -52 -120 -56 -131 -7 -18 -8 -18 -12 -2 -8 31 15 113 69
250 49 124 52 138 53 222 0 55 -5 103 -14 123 -12 28 -18 32 -51 32 -57 0
-100 -35 -140 -116 -66 -134 -89 -189 -114 -275 -26 -88 -58 -135 -69 -104 -4
8 -18 15 -32 15 -35 0 -50 39 -34 87 15 46 49 184 49 201 0 7 7 29 16 50 8 20
18 67 20 104 2 37 22 138 44 225 30 118 40 178 40 237 0 84 -16 155 -36 163
-21 8 -83 -28 -114 -66 -38 -46 -92 -189 -118 -313 -12 -53 -33 -125 -47 -160
-15 -35 -33 -103 -41 -153 -19 -121 -93 -338 -157 -459 -47 -90 -57 -102 -102
-127 -27 -16 -69 -31 -92 -35 -36 -5 -45 -3 -66 18 -13 13 -34 51 -46 84 -13
32 -30 67 -38 77 -18 19 -18 14 27 140 18 52 19 65 10 120 -21 114 -83 193
-177 225 -24 8 -34 8 -42 -2 -18 -21 -31 -113 -31 -213 0 -84 -3 -100 -26
-139 l-26 -44 13 -110 c10 -87 10 -133 1 -213 -12 -102 -12 -102 22 -222 18
-66 39 -154 46 -195 6 -41 21 -91 32 -110 11 -19 45 -91 75 -160 71 -160 78
-224 40 -357 -38 -131 -284 -663 -343 -740 -15 -20 -62 -98 -105 -172 -108
-193 -204 -349 -339 -556 -180 -276 -510 -839 -551 -940 -20 -49 -62 -182 -94
-295 -104 -371 -106 -375 -282 -638 -86 -128 -160 -229 -164 -225 -16 19 -326
546 -405 690 -47 87 -137 248 -199 358 -62 110 -140 254 -175 320 l-62 120 60
100 c69 117 190 346 475 900 113 220 256 492 317 605 61 113 149 282 196 376
81 162 88 182 135 372 61 250 73 282 139 368 29 38 59 83 67 101 17 43 17 105
-2 151 -11 24 -12 38 -5 40 5 2 36 23 68 46 221 164 531 613 623 902 56 174
105 255 309 511 116 145 143 188 176 281 26 74 31 131 12 150 -7 7 -25 12 -42
12 -24 0 -43 -14 -97 -70 -37 -38 -71 -70 -77 -70 -6 0 33 44 86 98 181 184
252 297 252 402 0 41 -4 52 -24 65 -21 14 -29 14 -63 2 -137 -47 -430 -324
-665 -627 -37 -47 -78 -92 -91 -99 -86 -46 -145 83 -117 256 17 107 129 482
191 638 121 311 136 443 57 510 -64 54 -122 5 -213 -178 l-63 -128 1 94 c0 74
-3 101 -16 121 -27 41 -54 33 -122 -36 -78 -81 -126 -180 -240 -493 -170 -468
-306 -787 -353 -829 -21 -18 -21 -18 -41 15 -25 41 -36 98 -49 250 -11 138
-39 202 -110 256 -80 60 -129 36 -153 -75 -21 -98 -6 -861 21 -1105 17 -144
-1 -220 -98 -414 -27 -54 -58 -124 -67 -155 l-18 -57 -62 6 -62 6 -7 -39 c-3
-22 -29 -86 -57 -144 -28 -58 -69 -152 -91 -209 -53 -136 -136 -296 -258 -500
-148 -249 -188 -303 -230 -314 -44 -12 -209 -2 -275 16 -135 37 -183 83 -360
342 -227 332 -575 850 -649 967 -96 153 -158 205 -265 223 -31 5 -48 3 -67
-10 -41 -26 -31 -95 31 -215 87 -169 112 -222 175 -380 72 -180 93 -219 190
-355 74 -104 125 -198 135 -250 12 -60 -92 72 -280 355 -249 374 -322 456
-473 528 -77 37 -173 52 -246 38 -36 -7 -37 -8 -30 -44 15 -82 62 -154 202
-307 82 -89 163 -201 274 -380 102 -164 211 -355 206 -361 -8 -8 -92 62 -129
107 -19 24 -68 92 -108 151 -81 120 -122 161 -196 194 -56 25 -150 40 -191 30
-25 -7 -26 -9 -20 -53 8 -58 39 -112 123 -210 91 -108 108 -136 138 -228 16
-50 58 -134 112 -223 82 -136 140 -258 129 -269 -2 -3 -53 11 -113 30 -219 72
-336 86 -399 48 -35 -22 -59 -70 -50 -104 16 -66 121 -128 316 -188 140 -42
168 -58 255 -140 73 -70 135 -148 268 -339 74 -107 116 -159 234 -288 l83 -89
-107 -129 c-62 -76 -273 -295 -513 -534 -224 -223 -492 -495 -596 -604 -289
-305 -508 -501 -709 -633 -49 -33 -173 -108 -275 -168 -296 -173 -420 -263
-535 -387 -109 -117 -210 -294 -230 -401 -4 -20 -10 -37 -14 -37 -4 0 -41 38
-83 85 -69 76 -76 88 -72 117 2 18 13 98 25 178 11 80 31 193 45 251 l25 106
78 16 c213 46 277 162 269 485 -4 171 -6 177 -69 254 -43 51 -59 86 -59 125 0
26 0 26 21 7 12 -10 37 -50 56 -89 51 -100 88 -149 136 -175 l42 -23 -42 39
c-39 36 -99 132 -89 142 3 2 22 -9 43 -24 l38 -28 -30 33 -30 34 29 -19 29
-18 -35 45 c-19 26 -45 78 -57 120 -13 41 -39 116 -57 167 -49 133 -45 155 19
110 l32 -23 -36 45 c-53 66 -53 69 -2 43 67 -33 88 -28 26 7 -28 16 -59 40
-67 52 -37 53 -7 51 76 -5 l64 -43 -83 81 c-82 80 -109 126 -60 104 12 -5 32
-24 45 -42 l23 -32 -7 29 c-6 25 -5 27 12 18 11 -6 39 -28 64 -49 43 -38 90
-69 90 -59 0 2 -16 14 -35 26 -41 25 -44 35 -13 44 21 5 19 8 -22 34 -42 27
-150 133 -150 147 0 12 52 -5 113 -36 79 -40 155 -97 257 -194 90 -85 79 -61
-28 63 -56 65 -58 71 -14 48 58 -29 76 -27 29 3 -59 39 -125 105 -183 186 -49
69 -53 81 -25 65 26 -13 34 -13 25 2 -5 7 -2 9 7 6 140 -59 213 -87 215 -85 2
2 -22 18 -53 37 -96 57 -388 250 -379 250 4 0 63 -29 130 -64 142 -75 204
-101 266 -110 l45 -6 -49 20 c-52 22 -136 78 -136 91 0 5 18 14 41 21 l41 12
-60 12 c-73 15 -130 44 -184 92 l-41 37 64 12 c35 7 68 18 73 23 5 5 -6 5 -28
-1 -40 -11 -115 0 -171 26 -30 13 -29 13 30 15 33 1 74 5 90 9 23 6 13 8 -45
13 -54 4 -93 14 -140 35 l-65 30 35 6 c19 4 89 13 155 21 66 8 138 21 160 28
37 12 24 13 -150 19 -104 4 -196 7 -202 8 -30 3 -9 20 50 41 73 26 207 87 207
93 0 3 -20 -1 -45 -8 -25 -8 -73 -17 -107 -20 -61 -6 -62 -5 -38 10 17 12 19
14 5 9 -39 -13 -229 -16 -275 -4 l-44 12 41 39 c23 21 39 39 35 39 -4 0 -49
-11 -100 -24 -52 -14 -92 -23 -90 -21 2 2 20 17 42 34 42 34 40 43 -2 12 -35
-24 -133 -73 -138 -69 -2 2 15 39 37 82 35 66 38 76 20 67 -12 -7 -21 -15 -21
-20 0 -18 -126 -145 -157 -157 -37 -16 -79 -18 -87 -5 -11 18 71 104 193 205
68 55 136 117 150 136 l26 35 -45 -37 c-25 -20 -76 -53 -115 -74 l-70 -38 41
49 c77 94 83 114 14 50 -36 -33 -94 -79 -130 -102 -115 -73 -215 -131 -218
-128 -5 4 67 112 127 189 25 33 47 54 49 48 6 -18 22 -3 22 20 0 12 8 31 18
42 13 16 13 18 1 8 -21 -16 -29 -6 -30 37 l0 36 -14 -43 c-16 -53 -66 -118
-144 -189 l-60 -54 28 68 c16 37 43 100 60 140 32 75 61 173 61 208 0 18 -2
17 -13 -5 -8 -14 -30 -43 -50 -64 -35 -38 -37 -39 -37 -15 0 20 -3 17 -19 -16
-10 -22 -28 -56 -40 -75 l-23 -35 6 45 c4 25 9 61 12 80 3 19 -11 -12 -31 -70
-38 -112 -121 -309 -136 -324 -5 -6 -9 10 -9 40 0 41 -26 234 -33 240 -1 1 -3
-56 -4 -128 -1 -72 -6 -135 -11 -140 -12 -12 -35 55 -61 177 l-19 90 -1 -59
c-1 -36 -5 -56 -10 -50 -5 5 -37 61 -71 124 -34 63 -60 103 -57 88 6 -36 1
-35 -19 5 -32 60 -25 11 16 -118 40 -127 46 -165 15 -106 -23 46 -25 38 -5
-26 39 -128 36 -135 -24 -43 -31 47 -56 82 -56 79 0 -3 13 -45 30 -94 16 -49
29 -90 27 -92 -2 -1 -19 26 -38 62 -18 35 -35 62 -37 61 -1 -2 16 -53 37 -115
l40 -111 -23 0 c-45 0 -102 90 -162 255 l-32 90 5 -100 c2 -55 9 -110 15 -122
20 -40 -1 -38 -65 6 l-62 43 55 -56 c30 -31 52 -56 49 -56 -3 0 -83 32 -179
70 -95 39 -175 68 -177 66 -3 -3 9 -12 26 -21 17 -8 31 -18 31 -20 0 -3 -27 9
-61 25 -67 35 -109 52 -109 45 0 -2 34 -27 75 -56 42 -28 74 -54 71 -56 -2 -2
-39 10 -83 27 -43 18 -85 34 -93 37 -8 3 32 -24 90 -61 111 -70 110 -84 -5
-36 -84 36 -92 37 -40 4 l40 -26 -50 7 c-27 4 -50 8 -51 8 -27 41 -90 144
-143 236 l-69 119 71 47 c109 72 155 113 177 155 24 46 25 78 6 124 -18 44
-51 66 -98 66 l-38 0 29 40 c49 69 50 161 1 205 -18 16 -18 18 13 61 23 34 32
57 35 102 4 51 1 62 -22 89 -44 52 -73 57 -333 48 -196 -6 -233 -5 -233 7 0
17 55 109 114 192 61 85 296 367 375 451 92 96 134 151 165 213 30 60 49 145
41 183 -6 26 -7 26 -57 17 -149 -27 -308 -162 -595 -503 -187 -222 -280 -316
-293 -295 -4 8 -45 66 -89 129 -79 110 -123 189 -136 243 -4 15 -23 37 -45 52
-49 32 -93 87 -166 210 -33 55 -80 117 -107 141 -50 46 -141 85 -158 68 -16
-16 -23 -138 -10 -190 7 -26 25 -64 40 -83 15 -19 44 -66 65 -103 21 -38 58
-93 83 -124 32 -40 55 -83 78 -149 18 -51 47 -116 64 -144 18 -29 29 -56 24
-61 -13 -13 -151 -46 -244 -59 -46 -6 -94 -17 -108 -25 -23 -11 -29 -10 -73
21 -102 69 -245 106 -425 107 -67 1 -124 -1 -127 -4 -13 -12 17 -131 37 -150
29 -27 8 -24 -80 11 -43 18 -93 30 -119 30 l-44 0 0 -45 c0 -83 34 -124 155
-186 142 -72 309 -181 375 -245 36 -34 87 -79 115 -99 27 -21 60 -56 73 -79
13 -22 46 -64 73 -92 l50 -51 -97 -154 c-113 -179 -186 -279 -242 -332 -39
-38 -40 -39 -70 -23 -50 26 -89 21 -106 -12 -8 -16 -22 -35 -32 -43 -9 -7 -67
-77 -129 -155 -148 -186 -336 -395 -349 -391 -21 7 -129 143 -211 267 -46 69
-138 220 -205 335 -158 270 -230 381 -350 535 -236 304 -476 652 -678 983
-105 172 -134 234 -192 412 -53 162 -89 223 -181 312 -45 43 -92 94 -104 114
-32 50 -55 132 -55 197 0 103 107 716 160 912 76 281 85 394 39 469 -22 36
-41 38 -116 16 -63 -19 -121 -73 -157 -147 -25 -50 -38 -107 -51 -218 -11 -92
-39 -115 -168 -140 -33 -7 -70 -22 -86 -36 l-30 -25 -21 48 c-47 106 -85 231
-151 497 -96 384 -154 535 -234 605 -35 30 -85 41 -111 23 -47 -31 -47 -163 0
-333 44 -162 58 -235 54 -284 -3 -34 -6 -25 -21 55 -94 493 -183 718 -280 708
-66 -6 -97 -111 -83 -281 15 -180 82 -545 137 -742 34 -126 26 -212 -25 -254
-26 -21 -76 -5 -146 48 -75 56 -293 277 -397 402 -103 123 -165 176 -230 195
-63 18 -118 12 -133 -15 -19 -36 19 -107 132 -250 31 -39 39 -56 29 -59 -7 -2
-22 -13 -33 -24 -18 -18 -19 -28 -13 -81 8 -79 37 -134 126 -237 93 -109 170
-228 307 -470 253 -449 276 -481 434 -617 119 -103 209 -198 233 -249 20 -41
22 -72 10 -195 -7 -67 -5 -80 15 -120 13 -24 35 -60 50 -79 62 -80 87 -154
125 -367 61 -347 160 -554 545 -1133 263 -395 325 -497 397 -649 158 -332 132
-293 285 -444 78 -78 159 -169 183 -205 45 -70 150 -276 204 -400 l32 -73 -90
-97 c-213 -232 -553 -650 -639 -787 -115 -184 -175 -248 -337 -357 -160 -108
-310 -176 -752 -342 -154 -58 -360 -141 -456 -185 -274 -124 -334 -143 -757
-236 -610 -134 -758 -191 -985 -386 -159 -136 -180 -150 -284 -194 -74 -31
-90 -42 -168 -125 -77 -81 -163 -146 -163 -121 0 4 36 82 79 172 43 90 96 206
116 258 45 115 99 324 116 448 l13 92 40 6 c113 19 264 132 315 238 35 70 106
340 122 457 17 128 -21 208 -106 224 -19 4 -35 9 -35 11 0 3 13 51 29 107 64
221 91 405 91 614 0 163 -17 279 -59 392 -32 88 -71 153 -172 288 -65 86 -72
93 -170 145 -77 40 -124 75 -189 136 -53 50 -106 91 -136 104 -386 166 -989
16 -1340 -335 -194 -195 -314 -477 -330 -776 -8 -159 -3 -150 -77 -150 -78 0
-153 34 -195 88 -16 20 -53 83 -83 140 -40 77 -77 129 -146 205 -94 104 -142
177 -310 467 -187 323 -239 383 -341 397 -132 18 -134 -45 -7 -257 110 -181
130 -223 145 -295 17 -86 39 -132 125 -255 74 -107 125 -201 125 -230 -1 -29
-90 82 -219 273 -140 207 -262 361 -334 420 -97 79 -215 120 -296 102 -27 -6
-31 -11 -31 -38 0 -40 26 -84 105 -172 118 -134 205 -260 371 -535 62 -102
110 -187 108 -189 -10 -11 -82 73 -150 176 -80 119 -128 169 -194 203 -49 25
-139 42 -181 33 -24 -5 -29 -10 -29 -35 0 -44 41 -116 114 -196 74 -82 88
-106 105 -178 8 -31 43 -101 92 -179 72 -117 124 -227 117 -245 -2 -4 -63 10
-136 31 -167 49 -244 57 -292 32 -41 -21 -58 -60 -44 -100 12 -35 89 -82 192
-119 192 -68 221 -84 296 -158 39 -40 131 -157 205 -260 98 -138 169 -225 265
-325 180 -185 226 -248 226 -306 0 -28 -110 -171 -230 -300 -36 -38 -77 -84
-91 -101 l-26 -32 -54 14 c-29 8 -99 14 -154 14 -215 1 -241 23 -338 275 -103
267 -187 358 -572 621 -174 119 -300 233 -428 384 -126 150 -667 875 -781
1048 -277 419 -311 527 -336 1057 -17 345 -42 544 -120 940 -71 365 -105 654
-116 993 -7 226 8 502 32 583 9 30 17 83 17 119 0 59 -5 74 -44 145 -40 73
-44 86 -44 150 0 84 25 165 73 243 107 173 125 206 148 263 67 164 90 361 75
621 -16 255 -32 301 -135 377 -47 35 -55 46 -66 92 -16 64 -9 195 19 369 77
485 95 780 57 909 -37 124 -108 166 -161 97z m27687 -4189 c-5 -46 15 -88 90
-188 73 -97 87 -138 113 -317 9 -62 23 -137 30 -167 17 -63 198 -429 307 -620
133 -233 313 -537 410 -690 136 -216 201 -335 263 -479 73 -169 102 -210 245
-351 160 -158 208 -230 310 -465 18 -41 61 -134 96 -207 l64 -132 -84 -238
c-159 -453 -211 -630 -247 -853 -29 -171 -27 -320 5 -543 60 -417 39 -565
-102 -716 l-57 -61 -165 123 c-282 211 -347 300 -430 582 -95 326 -168 509
-332 835 -124 248 -177 343 -447 795 -229 382 -347 597 -551 1000 -168 334
-230 478 -334 788 -82 241 -114 390 -102 468 4 30 31 88 73 160 79 137 101
185 237 508 58 138 127 293 152 343 86 173 114 202 324 350 36 26 81 60 100
77 19 16 35 30 35 31 1 0 -1 -15 -3 -33z m1633 -641 c36 -37 73 -88 92 -127
33 -68 79 -207 71 -215 -17 -17 -288 389 -288 431 0 16 73 -36 125 -89z m7178
-24 c101 -127 120 -178 168 -447 31 -179 65 -328 81 -358 18 -35 1 -27 -24 10
-37 57 -83 184 -139 386 -66 237 -100 340 -144 427 -30 61 -33 70 -16 60 11
-6 45 -41 74 -78z m-22796 -830 c115 -42 263 -113 257 -123 -10 -17 -70 -8
-136 20 -38 16 -68 28 -68 27 0 -2 25 -20 55 -41 31 -21 53 -40 51 -42 -3 -3
-40 7 -83 21 -77 26 -79 27 -126 96 -26 39 -43 70 -38 70 6 0 45 -13 88 -28z
m-844 -135 c26 -46 71 -139 101 -207 l55 -124 -29 -12 c-38 -17 -77 -94 -96
-192 -10 -50 -18 -192 -24 -402 -10 -341 -24 -491 -66 -675 -22 -98 -102 -384
-111 -394 -7 -10 -52 43 -159 185 -156 210 -223 264 -344 281 l-54 8 -184 247
-184 248 111 117 c132 141 181 204 252 330 70 123 102 159 205 233 46 34 91
75 100 92 15 29 15 74 0 108 -4 11 19 28 97 67 57 29 141 79 188 112 46 33 87
60 90 60 3 1 26 -36 52 -82z m487 -1070 c-10 -20 -10 -20 3 -5 13 16 17 11 46
-53 l31 -72 -21 -33 c-11 -19 -29 -34 -38 -34 -25 0 -48 -29 -67 -83 -17 -51
-82 -117 -114 -117 -25 0 -58 32 -66 65 -4 15 1 135 10 268 9 133 17 303 17
377 l1 135 104 -213 c90 -183 103 -215 94 -235z m27222 304 c116 -40 292 -51
386 -25 22 6 22 5 22 -90 l0 -96 -27 6 c-52 11 -178 55 -203 70 -23 14 -20 14
50 10 l75 -5 -73 14 c-106 20 -170 43 -230 82 -46 31 -71 53 -59 53 2 0 29 -9
59 -19z m-29842 -1941 c373 -826 473 -1154 754 -2465 157 -738 205 -975 266
-1334 l39 -234 -127 -135 c-70 -74 -141 -151 -159 -171 l-31 -36 -34 37 c-62
66 -104 61 -217 -26 -31 -24 -97 -69 -148 -100 -100 -62 -200 -143 -464 -377
-296 -262 -284 -254 -353 -225 -59 25 -97 99 -82 159 5 23 10 24 138 31 73 4
149 11 168 16 35 8 35 8 -13 9 -26 1 -80 8 -118 17 -55 12 -69 19 -67 32 2 11
18 19 45 24 23 4 54 14 70 22 l28 16 -30 -7 c-88 -23 -176 12 -209 81 -14 30
-15 43 -6 71 6 19 15 35 20 35 5 0 32 -12 60 -26 40 -20 70 -27 126 -29 41 -1
74 1 74 6 0 4 10 10 23 12 12 2 -5 5 -39 6 -54 1 -63 4 -91 34 -33 34 -60 83
-74 129 -11 38 6 37 71 -8 29 -20 85 -49 124 -65 l71 -29 -50 44 c-27 25 -46
48 -42 52 3 4 16 -5 28 -20 22 -28 91 -78 124 -90 11 -4 0 10 -24 30 -55 48
-101 118 -94 145 4 14 11 18 22 13 41 -17 54 -15 25 4 -42 27 -84 83 -84 112
0 21 1 21 28 -8 15 -16 66 -48 112 -71 47 -23 74 -33 60 -24 -41 29 -100 97
-100 116 0 19 29 18 115 -3 66 -16 84 -11 28 9 -60 20 -121 60 -175 113 -47
47 -49 60 -6 47 39 -11 173 -10 208 1 19 6 9 8 -37 9 -71 1 -178 39 -211 74
-18 19 -19 28 -12 67 5 25 12 62 15 83 5 30 10 37 22 33 24 -10 87 12 127 43
25 20 52 31 90 35 102 13 119 24 38 25 l-72 1 15 24 c9 13 26 27 38 30 12 3
33 15 47 27 14 11 18 19 10 16 -8 -2 -26 -8 -39 -12 -22 -7 -23 -5 -17 21 l6
29 -15 -27 c-19 -33 -33 -35 -84 -8 -115 58 -251 319 -309 592 -12 54 -15 85
-8 81 6 -4 25 -16 41 -29 92 -67 83 -44 -24 61 -108 106 -113 113 -76 100 22
-8 56 -14 75 -14 l35 0 -37 13 c-56 20 -109 55 -191 125 l-75 64 5 77 c5 68 3
84 -20 132 -54 119 -157 190 -277 192 -36 1 -82 -3 -102 -7 -36 -8 -38 -7 -38
18 0 26 -39 69 -148 165 -58 51 -64 50 -26 -5 17 -26 20 -36 10 -31 -9 3 -23
9 -32 12 -10 5 -17 0 -21 -15 -3 -11 -8 -21 -12 -21 -3 0 -26 39 -51 87 -49
94 -139 197 -182 208 -22 6 -27 15 -36 63 l-9 57 -2 -47 c0 -27 -6 -48 -11
-48 -21 0 -85 31 -109 53 -23 22 -24 22 -13 1 6 -12 34 -36 62 -54 34 -22 47
-36 39 -40 -8 -6 -10 -21 -5 -50 l7 -42 -33 20 c-18 11 -79 34 -134 51 -56 17
-114 41 -130 52 -23 17 -22 14 6 -12 19 -19 46 -41 60 -51 l25 -16 -40 -17
c-23 -10 -52 -15 -72 -12 -27 5 -31 3 -20 -7 7 -7 29 -16 48 -20 44 -8 129
-63 129 -83 0 -8 -3 -13 -7 -11 -232 119 -313 130 -503 69 l-65 -21 116 6
c113 5 117 5 145 -20 16 -13 27 -27 24 -29 -3 -3 -52 -15 -108 -27 -187 -38
-261 -79 -307 -170 -28 -56 -54 -69 -93 -45 l-27 16 26 -24 26 -23 -58 -23
c-125 -48 -207 -119 -224 -196 -4 -16 -14 -41 -23 -55 -15 -25 -15 -25 5 -7
27 24 33 22 33 -12 0 -32 -32 -78 -64 -91 -20 -8 -20 -9 3 -9 16 -1 39 14 67
44 48 49 58 48 40 -5 -8 -26 -27 -45 -76 -77 -54 -36 -65 -48 -66 -72 -1 -18
-23 -59 -61 -112 -33 -46 -89 -140 -124 -209 -101 -198 -172 -255 -270 -217
-52 21 -50 11 4 -13 61 -28 99 -25 174 15 91 48 97 47 89 -16 -7 -55 -34 -141
-46 -149 -4 -3 -26 -35 -49 -72 -72 -114 -125 -141 -204 -102 l-32 15 25 -20
c29 -24 85 -42 106 -34 16 6 19 -12 4 -22 -25 -16 -8 -27 31 -21 35 6 40 4 37
-11 -8 -40 -116 -37 -215 7 -53 23 -55 19 -6 -15 32 -21 34 -25 15 -25 -42 0
-22 -18 51 -45 39 -15 76 -31 80 -35 8 -7 -66 -75 -133 -123 -37 -26 50 17
133 66 37 22 70 37 74 34 3 -4 -8 -22 -26 -42 -17 -20 -31 -41 -31 -48 0 -7
-16 -23 -35 -36 -50 -34 -35 -38 21 -7 26 14 49 25 50 23 5 -5 -122 -157 -159
-190 l-32 -28 50 24 c105 52 175 80 182 74 3 -4 1 -18 -5 -32 -6 -13 -7 -27
-2 -30 4 -3 10 0 12 7 7 21 28 -3 28 -32 0 -97 -75 -162 -228 -199 -75 -18
-76 -19 -32 -21 152 -6 234 11 320 65 23 14 43 25 45 23 11 -11 46 -117 59
-181 18 -88 21 -224 5 -282 -6 -22 -22 -55 -35 -72 -32 -42 -21 -41 46 2 30
19 60 35 66 35 20 0 37 -76 32 -142 -6 -69 -25 -116 -67 -162 l-26 -29 34 23
c19 13 48 46 64 73 29 45 32 47 39 26 5 -12 4 -56 -2 -98 -5 -42 -11 -91 -12
-109 l-3 -33 -156 133 c-85 73 -225 192 -310 265 -85 72 -226 204 -314 293
-147 150 -166 165 -241 200 -45 21 -99 53 -120 72 -75 66 -96 78 -135 78 -28
0 -47 -8 -72 -30 -19 -16 -39 -30 -44 -30 -5 0 -24 15 -42 34 l-33 34 152 249
c183 296 417 653 561 853 57 80 149 215 203 300 302 473 310 484 516 655 238
197 648 472 1370 920 551 341 787 529 1058 845 154 180 202 252 304 458 45 89
84 159 88 155 4 -4 49 -100 100 -213z m30671 -971 c55 -11 62 -15 84 -54 14
-23 25 -46 25 -52 0 -25 -336 65 -347 93 -2 7 5 23 16 35 12 13 21 26 21 30 0
4 32 -3 71 -16 38 -13 97 -30 130 -36z m-10891 -206 c18 -54 64 -178 102 -276
39 -98 68 -181 65 -183 -3 -3 -23 4 -46 16 -56 28 -51 18 10 -24 l52 -35 -34
-3 -34 -3 49 -25 c40 -21 51 -33 66 -72 l18 -47 -27 -24 c-14 -13 -39 -32 -54
-42 -45 -29 -23 -29 33 0 57 29 66 26 76 -22 6 -29 3 -33 -32 -52 -45 -23 -39
-27 11 -7 38 16 45 13 45 -21 0 -17 -25 -50 -84 -109 -78 -77 -82 -90 -14 -42
34 24 120 50 130 40 5 -5 18 -52 30 -106 l23 -98 -29 -23 c-32 -26 -110 -53
-201 -70 l-60 -12 49 -8 c48 -7 185 -1 237 11 23 5 27 2 33 -28 4 -18 36 -190
71 -383 36 -192 68 -361 71 -374 4 -17 -34 10 -153 110 -277 233 -375 323
-532 488 -150 158 -154 161 -254 209 -56 27 -113 58 -127 70 l-24 20 59 66
c211 235 249 320 314 696 31 180 107 460 125 460 2 0 19 -44 36 -97z m-2781
-524 c81 -122 209 -284 384 -489 l116 -134 -52 -16 c-136 -43 -281 -140 -579
-387 -231 -191 -562 -419 -640 -438 -34 -9 -54 19 -70 98 -16 73 -5 87 68 87
42 0 59 5 76 22 l21 21 -26 23 c-25 22 -28 54 -5 54 5 0 -11 23 -36 52 -47 53
-106 154 -106 181 0 35 24 36 97 0 65 -32 80 -35 155 -34 46 0 97 4 113 10 28
9 27 9 -18 10 -66 1 -107 21 -150 71 -33 38 -76 135 -65 146 3 2 44 -17 92
-42 49 -24 94 -43 100 -41 6 2 10 16 8 31 -3 28 15 35 36 14 9 -9 12 -2 12 32
0 65 9 74 53 55 54 -22 56 -18 6 13 -76 49 -127 121 -103 145 4 4 30 -14 58
-40 52 -47 111 -81 122 -71 3 4 -10 30 -30 60 -20 29 -36 56 -36 60 0 5 23 8
51 8 43 0 50 3 47 17 -2 10 -25 34 -52 53 -66 47 -132 107 -125 114 3 3 21 1
40 -4 34 -10 128 -13 99 -3 -8 2 -22 7 -30 10 -13 4 -12 6 3 17 15 12 12 14
-28 18 -107 12 -135 86 -94 241 9 35 12 37 51 37 37 0 287 77 328 101 8 4 20
8 25 8 6 0 43 -49 84 -110z m-6871 -526 c65 -159 167 -331 257 -431 100 -111
293 -242 415 -281 24 -7 44 -24 63 -55 15 -23 27 -46 27 -50 0 -4 -32 -41 -71
-82 -71 -75 -71 -76 -66 -122 2 -26 8 -55 12 -65 7 -16 3 -16 -46 3 -267 104
-520 348 -672 648 -54 105 -127 288 -127 314 1 7 16 -23 34 -67 78 -191 146
-306 255 -430 111 -128 271 -254 408 -324 90 -45 88 -38 -5 18 -152 91 -313
240 -415 382 -65 92 -147 268 -202 432 -42 124 -45 141 -35 172 6 19 15 35 19
35 4 0 22 -42 40 -92 47 -132 139 -321 199 -410 54 -81 142 -175 232 -248 42
-34 34 -23 -32 42 -143 142 -215 255 -294 458 -47 123 -106 320 -106 357 0 68
16 54 52 -48 20 -57 47 -127 58 -156z m295 -197 c156 -183 286 -346 358 -449
l41 -58 -36 15 c-169 71 -379 272 -474 455 -45 86 -123 277 -122 298 1 10 44
-38 233 -261z m-20694 -92 c31 -2 81 1 111 6 30 5 64 11 75 12 18 3 21 -9 37
-141 10 -79 17 -146 14 -148 -8 -9 -143 54 -203 95 -34 23 -99 78 -145 122
l-83 80 50 -21 c52 -22 165 -49 200 -48 11 0 -12 9 -51 19 -65 17 -174 64
-174 75 0 2 25 -8 56 -22 33 -15 80 -27 113 -29z m-58 -523 c106 -56 199 -87
288 -97 34 -3 62 -11 62 -15 1 -5 2 -12 3 -16 7 -27 22 -119 33 -199 l5 -42
-44 8 c-81 16 -126 40 -170 93 -29 35 -37 48 -23 43 46 -20 152 -46 180 -45
25 1 22 3 -20 14 -27 8 -93 35 -145 61 -74 37 -109 61 -158 112 -34 36 -60 67
-58 69 2 3 27 -7 55 -21 80 -41 74 -30 -9 15 -67 36 -114 69 -99 69 4 0 48
-22 100 -49z m26490 -138 c32 -29 91 -53 130 -53 l32 0 -59 -46 c-82 -64 -96
-70 -127 -49 -51 33 -69 108 -45 186 l11 39 17 -27 c10 -16 28 -38 41 -50z
m-34660 -139 c24 -12 29 -19 23 -37 -3 -12 -12 -27 -20 -33 -8 -6 -14 -24 -14
-40 0 -49 -9 -54 -65 -36 -44 15 -50 21 -53 47 -4 44 23 103 50 108 42 8 49 7
79 -9z m-109 -828 c10 -15 1 -43 -33 -96 -47 -75 -98 -117 -149 -123 l-45 -6
28 21 c41 30 64 80 91 201 6 27 8 28 54 21 26 -4 50 -12 54 -18z m3583 -72
c66 -20 131 -39 145 -43 16 -4 -1 -8 -50 -12 l-75 -5 95 -3 c102 -3 256 -41
215 -54 -92 -29 -231 -33 -364 -12 -103 17 -133 14 -49 -5 92 -21 273 -24 373
-7 49 9 91 14 93 12 10 -9 -155 -38 -246 -43 -119 -5 -226 9 -327 45 -79 29
-95 39 -95 61 0 9 -10 27 -22 40 -21 23 -21 25 -3 17 30 -13 103 -18 123 -9 9
4 24 7 32 6 10 -1 11 0 3 4 -14 6 -17 36 -6 47 4 4 14 5 22 2 9 -2 70 -21 136
-41z m-232 -131 c18 -9 63 -26 101 -38 38 -13 63 -25 55 -28 -8 -3 0 -6 16 -7
206 -10 270 -10 360 4 55 8 101 13 103 11 5 -4 -132 -35 -156 -35 -10 0 -22
-3 -25 -7 -4 -3 -39 -6 -79 -5 -40 1 -93 -3 -118 -8 -40 -8 -36 -9 30 -6 41 2
84 0 95 -5 30 -12 -151 -11 -221 2 -32 5 -89 20 -126 32 -62 19 -68 23 -68 48
0 15 -3 34 -6 43 -8 20 -1 20 39 -1z m907 -133 c-38 -30 -186 -89 -276 -111
-124 -29 -264 -40 -384 -30 -58 5 -106 8 -108 6 -4 -4 34 -10 153 -24 49 -6
58 -9 30 -10 -57 -1 -196 16 -288 35 -69 15 -78 19 -75 38 4 25 10 25 143 -4
117 -26 339 -32 445 -11 91 18 235 66 300 100 64 34 97 40 60 11z m104 -45
c-70 -53 -343 -165 -403 -165 -12 0 -20 -4 -17 -8 3 -5 -9 -7 -27 -5 l-32 3
35 -15 35 -15 -35 6 c-19 3 -53 7 -75 9 l-40 4 44 -9 c61 -13 66 -24 7 -17
-33 3 -44 2 -35 -5 9 -6 -49 -8 -164 -5 -98 2 -182 8 -188 14 -16 16 10 76 30
68 8 -3 100 -10 202 -15 150 -7 199 -6 255 6 108 22 211 60 319 118 95 50 131
63 89 31z m116 -33 c0 -15 -88 -73 -194 -128 -55 -30 -98 -54 -93 -54 14 0
172 83 241 127 73 47 107 51 85 11 -37 -70 -83 -129 -130 -169 -135 -115 -249
-184 -359 -220 -49 -16 -51 -18 -22 -18 42 -1 135 30 223 75 38 19 71 34 74
34 30 0 -73 -157 -108 -165 -12 -2 -67 -11 -122 -20 -55 -9 -136 -25 -180 -36
-44 -12 -87 -22 -94 -22 -33 -4 -101 181 -101 275 0 21 -5 38 -10 38 -11 0
-10 -22 6 -175 3 -27 15 -76 28 -107 32 -78 13 -74 -25 5 -24 49 -29 55 -24
27 4 -19 14 -48 22 -63 8 -16 13 -30 11 -32 -2 -2 -39 -17 -83 -34 -90 -34
-220 -100 -320 -160 -37 -23 -71 -41 -75 -41 -5 0 -6 15 -3 34 3 19 0 42 -6
52 -9 17 -10 15 -11 -11 0 -49 -40 -117 -81 -139 -37 -20 -69 -18 -103 7 -19
14 -19 15 3 45 33 47 44 127 28 206 -15 73 -6 87 18 29 20 -47 29 -53 88 -53
100 0 178 56 176 127 -1 28 -1 28 -10 -5 -18 -63 -124 -96 -164 -52 -20 22
-18 59 10 153 14 47 20 57 39 57 12 0 47 12 77 28 49 25 107 87 154 166 9 15
21 16 138 4 121 -11 227 -7 392 17 17 2 8 -2 -20 -9 -27 -8 -41 -15 -30 -15
31 -1 198 46 282 79 70 28 184 90 228 124 22 17 45 21 45 8z m-1144 -158 l85
-27 -43 -44 c-24 -25 -62 -56 -85 -69 l-42 -25 -20 20 c-12 12 -25 21 -31 21
-11 0 -50 73 -50 94 0 19 70 67 87 61 7 -2 51 -16 99 -31z m5537 -399 c-4 -39
-5 -155 0 -260 11 -274 10 -1165 -1 -1195 -8 -22 -21 0 -124 205 -73 147 -129
275 -155 355 l-41 125 5 209 c6 207 6 210 35 269 18 35 38 61 50 65 14 3 16 7
7 12 -9 6 -5 20 16 53 27 41 34 46 89 58 33 7 55 14 49 16 -5 2 -29 0 -52 -6
-22 -5 -41 -6 -41 -4 0 3 37 66 83 139 l82 133 3 -53 c2 -28 -1 -83 -5 -121z
m9210 43 c12 -7 42 -15 67 -18 l45 -5 -67 -48 c-76 -54 -92 -53 -128 6 -23 36
-25 70 -9 116 l11 33 30 -36 c16 -20 39 -42 51 -48z m-13799 -1415 c-20 -32
-55 -83 -77 -113 -45 -61 -196 -220 -209 -220 -20 0 -6 69 23 114 29 43 274
275 292 276 4 0 -9 -26 -29 -57z"/>
</g>
</svg>
