<svg width="901" height="576" viewBox="0 0 901 576" fill="none" xmlns="http://www.w3.org/2000/svg">
<path d="M3.58049 226.5L71.4784 157.5H300.353L373.234 226.5H3.58049Z" fill="#A29473" stroke="black" stroke-width="3"/>
<path d="M527.58 329.5L595.478 260.5H824.353L897.234 329.5H527.58Z" fill="#6F5E33" stroke="black" stroke-width="3"/>
<rect x="301.5" y="71.5" width="297" height="503" fill="#EFE94F" stroke="black" stroke-width="3"/>
<rect x="1.5" y="225.5" width="297" height="349" fill="#868585" stroke="black" stroke-width="3"/>
<rect x="601.5" y="329.5" width="297" height="245" fill="#A7662A" stroke="black" stroke-width="3"/>
<g clip-path="url(#clip0_2_110)">
<path d="M354.138 226.096L275 321.688L349.821 308.449L356.445 373.165L428.971 284.736" fill="#E04F5F"/>
<path d="M546.862 226.096L626 321.688L551.179 308.449L544.555 373.165L472.029 284.736" fill="#E04F5F"/>
<path d="M448.998 294.23C507.117 294.23 554.231 252.504 554.231 201.032C554.231 149.561 507.117 107.835 448.998 107.835C390.879 107.835 343.764 149.561 343.764 201.032C343.764 252.504 390.879 294.23 448.998 294.23Z" fill="#F2B851"/>
<path d="M448.998 260.822C486.282 260.822 516.508 234.053 516.508 201.032C516.508 168.011 486.282 141.242 448.998 141.242C411.713 141.242 381.488 168.011 381.488 201.032C381.488 234.053 411.713 260.822 448.998 260.822Z" fill="#D89D3D"/>
<path d="M436.328 232.773H422.796V187.319C417.863 191.443 412.031 194.492 405.324 196.454V185.515C408.849 184.481 412.682 182.53 416.834 179.65C420.974 176.781 423.813 173.416 425.351 169.587H436.328V232.773Z" fill="white"/>
<path d="M448.666 193.363L453.848 192.92C454.155 194.471 454.794 195.61 455.752 196.338C456.699 197.066 457.988 197.435 459.609 197.435C461.336 197.435 462.625 197.108 463.489 196.465C464.352 195.821 464.79 195.062 464.79 194.197C464.79 193.638 464.601 193.163 464.234 192.773C463.879 192.382 463.228 192.045 462.318 191.749C461.691 191.559 460.271 191.211 458.059 190.726C455.208 190.093 453.197 189.313 452.038 188.395C450.417 187.097 449.613 185.526 449.613 183.659C449.613 182.456 449.991 181.338 450.76 180.293C451.529 179.249 452.617 178.458 454.049 177.909C455.48 177.361 457.219 177.087 459.242 177.087C462.554 177.087 465.05 177.741 466.718 179.028C468.398 180.325 469.285 182.055 469.368 184.218L464.033 184.429C463.808 183.215 463.311 182.35 462.566 181.813C461.821 181.275 460.697 181.021 459.195 181.021C457.645 181.021 456.438 181.306 455.551 181.876C454.983 182.245 454.711 182.73 454.711 183.342C454.711 183.901 454.971 184.376 455.504 184.766C456.178 185.272 457.799 185.8 460.401 186.338C462.992 186.886 464.908 187.445 466.15 188.026C467.38 188.616 468.362 189.408 469.06 190.42C469.758 191.433 470.113 192.678 470.113 194.165C470.113 195.515 469.699 196.781 468.859 197.952C468.019 199.123 466.836 199.998 465.299 200.579C463.761 201.159 461.844 201.444 459.549 201.444C456.214 201.444 453.658 200.758 451.872 199.376C450.086 198.005 449.01 196 448.666 193.363Z" fill="white"/>
<path d="M480.558 201.022V181.464H472.727V177.488H493.689V181.464H485.882V201.022H480.558Z" fill="white"/>
</g>
<g clip-path="url(#clip1_2_110)">
<path d="M150.5 474C103.243 474 64.5777 434.024 64.5777 385.165C64.5777 336.306 103.243 296.33 150.5 296.33C197.757 296.33 236.422 336.306 236.422 385.165C236.422 434.024 197.757 474 150.5 474Z" fill="#90AEAF"/>
<path d="M150.5 463.044C194.948 463.044 230.981 425.79 230.981 379.835C230.981 333.88 194.948 296.626 150.5 296.626C106.052 296.626 70.0194 333.88 70.0194 379.835C70.0194 425.79 106.052 463.044 150.5 463.044Z" fill="#7D979E"/>
<path d="M79.4709 389.903C79.4709 344.005 115.558 306.694 159.951 306.694C179.714 306.694 197.757 314.097 211.791 326.238C197.184 308.175 175.131 296.626 150.5 296.626C106.107 296.626 70.0194 333.937 70.0194 379.835C70.0194 405.301 81.1893 428.102 98.6602 443.5C86.6311 428.99 79.4709 410.335 79.4709 389.903Z" fill="#688389"/>
<path d="M207.495 321.204C239 353.777 239 406.485 207.495 439.058C175.99 471.631 125.01 471.631 93.5049 439.058" fill="#688389"/>
<path d="M150.5 468.67C103.243 468.67 64.5777 428.694 64.5777 379.835C64.5777 330.976 103.243 291 150.5 291C197.757 291 236.422 330.976 236.422 379.835C236.422 428.694 197.757 468.67 150.5 468.67ZM150.5 302.252C108.971 302.252 75.4612 337.194 75.4612 379.835C75.4612 422.772 109.257 457.417 150.5 457.417C191.743 457.417 225.539 422.476 225.539 379.835C225.539 337.194 192.029 302.252 150.5 302.252Z" fill="#B6CBCE"/>
<path d="M236.422 379.835C236.422 357.33 228.403 336.898 215.228 321.5C200.049 307.879 180.286 299.587 158.519 299.587C143.913 299.587 130.451 303.437 118.422 309.951C128.16 304.917 139.044 302.252 150.5 302.252C173.126 302.252 193.748 312.913 207.495 329.495C223.534 343.709 233.558 364.733 233.558 388.422C233.558 400.267 230.981 411.519 226.398 421.587C232.699 409.15 236.422 394.937 236.422 379.835Z" fill="#A3BFC1"/>
<path d="M72.5971 388.422C72.5971 410.927 80.6165 431.359 93.7913 446.757C108.971 460.379 128.733 468.67 150.214 468.67C164.82 468.67 178.282 464.82 190.311 458.306C180.573 463.044 169.689 465.709 158.233 465.709C135.607 465.709 114.985 455.049 101.238 438.466C85.199 424.252 74.8883 403.228 74.8883 379.539C74.8883 367.694 77.466 356.442 82.0485 346.374C76.3204 359.107 72.5971 373.32 72.5971 388.422Z" fill="#A3BFC1"/>
<path d="M151.073 299.291C151.073 299.587 150.786 299.883 150.5 299.883C150.214 299.883 149.927 299.587 149.927 299.291V293.665C149.927 293.369 150.214 293.073 150.5 293.073C150.786 293.073 151.073 293.369 151.073 293.665V299.291Z" fill="#C7E0E2"/>
<path d="M151.073 466.301C151.073 466.597 150.786 466.893 150.5 466.893C150.214 466.893 149.927 466.597 149.927 466.301V460.675C149.927 460.379 150.214 460.083 150.5 460.083C150.786 460.083 151.073 460.379 151.073 460.675V466.301Z" fill="#C7E0E2"/>
<path d="M206.063 323.573C205.777 323.869 205.49 323.869 205.204 323.573C204.917 323.277 204.917 322.981 205.204 322.684L209.214 318.539C209.5 318.243 209.786 318.243 210.073 318.539C210.359 318.835 210.359 319.131 210.073 319.427L206.063 323.573Z" fill="#C7E0E2"/>
<path d="M92.0728 441.427C91.7864 441.723 91.5 441.723 91.2136 441.427C90.9272 441.131 90.9272 440.835 91.2136 440.539L95.2233 436.393C95.5097 436.097 95.7961 436.097 96.0825 436.393C96.3689 436.689 96.3689 436.985 96.0825 437.282L92.0728 441.427Z" fill="#C7E0E2"/>
<path d="M228.403 380.723C228.116 380.723 227.83 380.427 227.83 380.131C227.83 379.835 228.116 379.539 228.403 379.539H233.845C234.131 379.539 234.417 379.835 234.417 380.131C234.417 380.427 234.131 380.723 233.845 380.723H228.403Z" fill="#C7E0E2"/>
<path d="M67.1553 380.723C66.8689 380.723 66.5825 380.427 66.5825 380.131C66.5825 379.835 66.8689 379.539 67.1553 379.539H72.5971C72.8835 379.243 73.1699 379.539 73.1699 379.835C73.1699 380.131 72.8835 380.427 72.5971 380.427H67.1553V380.723Z" fill="#C7E0E2"/>
<path d="M205.204 437.578C204.917 437.282 204.917 436.985 205.204 436.689C205.49 436.393 205.777 436.393 206.063 436.689L210.073 440.835C210.359 441.131 210.359 441.427 210.073 441.723C209.786 442.019 209.5 442.019 209.214 441.723L205.204 437.578Z" fill="#C7E0E2"/>
<path d="M90.9272 319.427C90.6408 319.131 90.6408 318.835 90.9272 318.539C91.2136 318.243 91.5 318.243 91.7864 318.539L95.7961 322.684C96.0825 322.981 96.0825 323.277 95.7961 323.573C95.5097 323.869 95.2233 323.869 94.9369 323.573L90.9272 319.427Z" fill="#C7E0E2"/>
<path d="M112.121 309.951C112.408 310.248 112.121 310.84 111.835 310.84C111.549 311.136 110.976 310.84 110.976 310.544L108.112 305.51C107.825 305.214 108.112 304.621 108.398 304.621C108.684 304.325 109.257 304.621 109.257 304.917L112.121 309.951Z" fill="#C7E0E2"/>
<path d="M192.888 454.456C193.175 454.752 192.888 455.345 192.602 455.345C192.316 455.641 191.743 455.345 191.743 455.049L188.879 450.015C188.592 449.718 188.879 449.126 189.165 449.126C189.451 448.83 190.024 449.126 190.024 449.422L192.888 454.456Z" fill="#C7E0E2"/>
<path d="M171.408 302.252C171.408 302.549 170.835 302.845 170.549 302.845C170.262 302.845 169.976 302.252 169.976 301.956L171.408 296.33C171.408 296.034 171.981 295.738 172.267 295.738C172.553 295.738 172.84 296.33 172.84 296.626L171.408 302.252Z" fill="#C7E0E2"/>
<path d="M129.592 463.34C129.592 463.636 129.019 463.932 128.733 463.932C128.447 463.932 128.16 463.34 128.16 463.044L129.592 457.417C129.592 457.121 130.165 456.825 130.451 456.825C130.738 456.825 131.024 457.417 131.024 457.714L129.592 463.34Z" fill="#C7E0E2"/>
<path d="M218.379 340.155C218.092 340.451 217.519 340.155 217.519 339.859C217.233 339.563 217.519 338.971 217.806 338.971L222.675 336.01C222.961 335.714 223.534 336.01 223.534 336.306C223.82 336.602 223.534 337.194 223.248 337.194L218.379 340.155Z" fill="#C7E0E2"/>
<path d="M78.6116 423.66C78.3252 423.956 77.7524 423.66 77.7524 423.364C77.466 423.068 77.7524 422.476 78.0388 422.476L82.9078 419.515C83.1942 419.218 83.767 419.515 83.767 419.811C84.0534 420.107 83.767 420.699 83.4806 420.699L78.6116 423.66Z" fill="#C7E0E2"/>
<path d="M225.539 401.451C225.252 401.451 224.966 400.859 224.966 400.563C224.966 400.267 225.539 399.971 225.825 399.971L231.267 401.451C231.553 401.451 231.84 402.044 231.84 402.34C231.84 402.636 231.267 402.932 230.981 402.932L225.539 401.451Z" fill="#C7E0E2"/>
<path d="M69.733 358.218C69.4466 358.218 69.1602 357.626 69.1602 357.33C69.1602 357.034 69.733 356.738 70.0194 356.738L75.4612 358.218C75.7476 358.218 76.034 358.811 76.034 359.107C76.034 359.403 75.4612 359.699 75.1747 359.699L69.733 358.218Z" fill="#C7E0E2"/>
<path d="M83.4806 338.971C83.767 339.267 84.0534 339.563 83.767 339.859C83.4806 340.155 83.1942 340.451 82.9078 340.155L78.0388 337.194C77.7524 336.898 77.466 336.602 77.7524 336.306C78.0388 336.01 78.3252 335.714 78.6116 336.01L83.4806 338.971Z" fill="#C7E0E2"/>
<path d="M223.248 422.476C223.534 422.772 223.82 423.068 223.534 423.364C223.248 423.66 222.961 423.956 222.675 423.66L217.806 420.699C217.519 420.403 217.233 420.107 217.519 419.811C217.806 419.515 218.092 419.218 218.379 419.515L223.248 422.476Z" fill="#C7E0E2"/>
<path d="M131.024 301.956C131.024 302.252 131.024 302.845 130.451 302.845C130.165 302.845 129.592 302.845 129.592 302.252L128.16 296.626C128.16 296.33 128.16 295.738 128.733 295.738C129.019 295.738 129.592 295.738 129.592 296.33L131.024 301.956Z" fill="#C7E0E2"/>
<path d="M172.84 463.044C172.84 463.34 172.84 463.932 172.267 463.932C171.981 463.932 171.408 463.932 171.408 463.34L169.976 457.714C169.976 457.417 169.976 456.825 170.549 456.825C170.835 456.825 171.408 456.825 171.408 457.417L172.84 463.044Z" fill="#C7E0E2"/>
<path d="M190.024 310.544C189.738 310.84 189.451 311.136 189.165 310.84C188.879 310.544 188.592 310.248 188.879 309.951L191.743 304.917C192.029 304.621 192.316 304.325 192.602 304.621C192.888 304.917 193.175 305.214 192.888 305.51L190.024 310.544Z" fill="#C7E0E2"/>
<path d="M109.257 455.049C108.971 455.345 108.684 455.641 108.398 455.345C108.112 455.049 107.825 454.752 108.112 454.456L110.976 449.422C111.262 449.126 111.549 448.83 111.835 449.126C112.121 449.422 112.408 449.718 112.121 450.015L109.257 455.049Z" fill="#C7E0E2"/>
<path d="M225.825 359.699C225.539 359.699 224.966 359.699 224.966 359.107C224.966 358.811 224.966 358.218 225.539 358.218L230.981 356.738C231.267 356.738 231.84 356.738 231.84 357.33C231.84 357.626 231.84 358.218 231.267 358.218L225.825 359.699Z" fill="#C7E0E2"/>
<path d="M70.0194 402.932C69.733 402.932 69.1602 402.932 69.1602 402.34C69.1602 402.044 69.1602 401.451 69.733 401.451L75.1747 399.971C75.4612 399.971 76.034 399.971 76.034 400.563C76.034 400.859 76.034 401.451 75.4612 401.451L70.0194 402.932Z" fill="#C7E0E2"/>
<path d="M171.981 407.67H155.083C167.112 395.233 175.99 383.981 175.99 370.063C175.99 357.33 167.684 343.709 149.641 343.709C141.049 343.709 133.029 346.67 126.728 352.296C124.723 354.073 124.15 356.738 125.296 359.107L128.16 365.917C128.733 367.398 130.165 368.879 131.883 369.175C133.602 369.471 135.32 369.175 136.752 367.99C138.757 366.214 142.767 363.252 147.636 363.252C153.364 363.252 155.655 365.621 155.655 371.248C155.655 379.539 148.495 387.83 131.883 404.117L124.723 411.519C123.578 412.704 123.005 414.184 123.005 415.665V421.587C123.005 424.845 125.583 427.214 128.447 427.214H171.981C175.131 427.214 177.422 424.549 177.422 421.587V413.592C177.422 410.039 174.845 407.67 171.981 407.67Z" fill="#C7E0E2"/>
<path d="M131.597 403.82L124.437 411.223C123.291 412.408 122.718 413.888 122.718 415.369V421.291C122.718 424.549 125.296 426.917 128.16 426.917H171.694C174.845 426.917 177.136 424.252 177.136 421.291V413.296C177.136 410.039 174.558 407.67 171.694 407.67H154.796C166.825 395.233 175.704 383.981 175.704 370.063C175.704 365.621 174.558 361.18 172.553 357.33L154.51 375.985C152.505 382.5 145.345 390.495 131.597 403.82Z" fill="#B6CBCE"/>
<path d="M145.345 323.869C145.345 326.534 143.053 330.976 140.476 330.976C137.898 330.976 135.607 326.534 135.607 323.869C135.607 321.204 137.898 318.835 140.476 318.835C143.053 318.835 145.345 321.204 145.345 323.869Z" fill="#688389"/>
<path d="M140.476 328.903C143.165 328.903 145.345 326.649 145.345 323.869C145.345 321.089 143.165 318.835 140.476 318.835C137.787 318.835 135.607 321.089 135.607 323.869C135.607 326.649 137.787 328.903 140.476 328.903Z" fill="#B6CBCE"/>
<path d="M143.913 320.316C145.917 322.388 145.917 325.35 143.913 327.422C141.908 329.495 139.044 329.495 137.039 327.422" fill="#A3BFC1"/>
<path d="M165.393 323.869C165.393 326.534 163.102 330.976 160.524 330.976C157.947 330.976 155.655 326.534 155.655 323.869C155.655 321.204 157.947 318.835 160.524 318.835C163.102 318.835 165.393 321.204 165.393 323.869Z" fill="#688389"/>
<path d="M160.524 328.903C163.213 328.903 165.393 326.649 165.393 323.869C165.393 321.089 163.213 318.835 160.524 318.835C157.835 318.835 155.655 321.089 155.655 323.869C155.655 326.649 157.835 328.903 160.524 328.903Z" fill="#B6CBCE"/>
<path d="M163.961 320.316C165.966 322.388 165.966 325.35 163.961 327.422C161.956 329.495 159.092 329.495 157.087 327.422" fill="#A3BFC1"/>
</g>
<path d="M749.5 531C708.65 531 675.228 496.485 675.228 454.301C675.228 412.117 708.65 377.602 749.5 377.602C790.35 377.602 823.772 412.117 823.772 454.301C823.772 496.485 790.35 531 749.5 531Z" fill="#D89E77"/>
<path d="M749.5 521.54C787.921 521.54 819.068 489.376 819.068 449.699C819.068 410.022 787.921 377.858 749.5 377.858C711.079 377.858 679.932 410.022 679.932 449.699C679.932 489.376 711.079 521.54 749.5 521.54Z" fill="#D88B56"/>
<path d="M688.102 458.392C688.102 418.764 719.296 386.55 757.67 386.55C774.752 386.55 790.35 392.942 802.481 403.424C789.854 387.828 770.791 377.858 749.5 377.858C711.126 377.858 679.932 410.071 679.932 449.699C679.932 471.686 689.587 491.372 704.689 504.667C694.291 492.139 688.102 476.032 688.102 458.392Z" fill="#CC7E48"/>
<path d="M798.767 399.078C826 427.201 826 472.709 798.767 500.832C771.534 528.955 727.466 528.955 700.233 500.832" fill="#CC7E48"/>
<path d="M749.5 526.398C708.65 526.398 675.228 491.883 675.228 449.699C675.228 407.515 708.65 373 749.5 373C790.35 373 823.772 407.515 823.772 449.699C823.772 491.883 790.35 526.398 749.5 526.398ZM749.5 382.715C713.602 382.715 684.636 412.883 684.636 449.699C684.636 486.77 713.85 516.683 749.5 516.683C785.15 516.683 814.364 486.515 814.364 449.699C814.364 412.883 785.398 382.715 749.5 382.715Z" fill="#F7C6A4"/>
<path d="M823.772 449.699C823.772 430.269 816.84 412.628 805.451 399.333C792.33 387.573 775.248 380.414 756.432 380.414C743.806 380.414 732.17 383.738 721.772 389.362C730.189 385.016 739.597 382.715 749.5 382.715C769.058 382.715 786.883 391.919 798.767 406.236C812.631 418.508 821.296 436.66 821.296 457.113C821.296 467.34 819.068 477.055 815.107 485.748C820.553 475.01 823.772 462.738 823.772 449.699Z" fill="#E8B18B"/>
<path d="M682.16 457.113C682.16 476.544 689.092 494.184 700.481 507.479C713.602 519.24 730.684 526.398 749.252 526.398C761.879 526.398 773.515 523.074 783.913 517.45C775.495 521.54 766.087 523.841 756.184 523.841C736.626 523.841 718.801 514.638 706.917 500.32C693.053 488.049 684.141 469.896 684.141 449.443C684.141 439.217 686.369 429.502 690.33 420.809C685.379 431.803 682.16 444.074 682.16 457.113Z" fill="#E8B18B"/>
<path d="M749.995 380.159C749.995 380.414 749.748 380.67 749.5 380.67C749.252 380.67 749.005 380.414 749.005 380.159V375.301C749.005 375.045 749.252 374.79 749.5 374.79C749.748 374.79 749.995 375.045 749.995 375.301V380.159Z" fill="#FFDCC5"/>
<path d="M749.995 524.353C749.995 524.608 749.748 524.864 749.5 524.864C749.252 524.864 749.005 524.608 749.005 524.353V519.495C749.005 519.239 749.252 518.984 749.5 518.984C749.748 518.984 749.995 519.239 749.995 519.495V524.353Z" fill="#FFDCC5"/>
<path d="M797.529 401.123C797.282 401.379 797.034 401.379 796.786 401.123C796.539 400.867 796.539 400.612 796.786 400.356L800.252 396.777C800.5 396.521 800.748 396.521 800.995 396.777C801.243 397.032 801.243 397.288 800.995 397.544L797.529 401.123Z" fill="#FFDCC5"/>
<path d="M698.995 502.877C698.748 503.133 698.5 503.133 698.252 502.877C698.005 502.621 698.005 502.366 698.252 502.11L701.718 498.531C701.966 498.275 702.214 498.275 702.461 498.531C702.709 498.786 702.709 499.042 702.461 499.298L698.995 502.877Z" fill="#FFDCC5"/>
<path d="M816.84 450.466C816.592 450.466 816.345 450.21 816.345 449.955C816.345 449.699 816.592 449.443 816.84 449.443H821.544C821.791 449.443 822.039 449.699 822.039 449.955C822.039 450.21 821.791 450.466 821.544 450.466H816.84Z" fill="#FFDCC5"/>
<path d="M677.456 450.466C677.209 450.466 676.961 450.21 676.961 449.955C676.961 449.699 677.209 449.443 677.456 449.443H682.16C682.408 449.188 682.655 449.443 682.655 449.699C682.655 449.955 682.408 450.21 682.16 450.21H677.456V450.466Z" fill="#FFDCC5"/>
<path d="M796.786 499.553C796.539 499.298 796.539 499.042 796.786 498.786C797.034 498.531 797.282 498.531 797.529 498.786L800.995 502.366C801.243 502.621 801.243 502.877 800.995 503.133C800.748 503.388 800.5 503.388 800.252 503.133L796.786 499.553Z" fill="#FFDCC5"/>
<path d="M698.005 397.544C697.757 397.288 697.757 397.032 698.005 396.777C698.252 396.521 698.5 396.521 698.748 396.777L702.214 400.356C702.461 400.612 702.461 400.867 702.214 401.123C701.966 401.379 701.718 401.379 701.471 401.123L698.005 397.544Z" fill="#FFDCC5"/>
<path d="M716.325 389.362C716.573 389.618 716.325 390.129 716.078 390.129C715.83 390.385 715.335 390.129 715.335 389.874L712.859 385.528C712.612 385.272 712.859 384.761 713.107 384.761C713.354 384.505 713.85 384.761 713.85 385.016L716.325 389.362Z" fill="#FFDCC5"/>
<path d="M786.141 514.126C786.388 514.382 786.141 514.893 785.893 514.893C785.646 515.149 785.15 514.893 785.15 514.638L782.675 510.291C782.427 510.036 782.675 509.524 782.922 509.524C783.17 509.269 783.665 509.524 783.665 509.78L786.141 514.126Z" fill="#FFDCC5"/>
<path d="M767.573 382.715C767.573 382.971 767.078 383.227 766.83 383.227C766.583 383.227 766.335 382.715 766.335 382.46L767.573 377.602C767.573 377.346 768.068 377.091 768.316 377.091C768.563 377.091 768.811 377.602 768.811 377.858L767.573 382.715Z" fill="#FFDCC5"/>
<path d="M731.427 521.796C731.427 522.052 730.932 522.307 730.684 522.307C730.437 522.307 730.189 521.796 730.189 521.54L731.427 516.683C731.427 516.427 731.922 516.172 732.17 516.172C732.417 516.172 732.665 516.683 732.665 516.938L731.427 521.796Z" fill="#FFDCC5"/>
<path d="M808.175 415.44C807.927 415.696 807.432 415.44 807.432 415.184C807.184 414.929 807.432 414.417 807.68 414.417L811.888 411.861C812.136 411.605 812.631 411.861 812.631 412.117C812.879 412.372 812.631 412.883 812.384 412.883L808.175 415.44Z" fill="#FFDCC5"/>
<path d="M687.359 487.537C687.112 487.793 686.617 487.537 686.617 487.282C686.369 487.026 686.617 486.515 686.864 486.515L691.073 483.958C691.32 483.702 691.816 483.958 691.816 484.214C692.063 484.469 691.816 484.981 691.568 484.981L687.359 487.537Z" fill="#FFDCC5"/>
<path d="M814.364 468.362C814.116 468.362 813.869 467.851 813.869 467.595C813.869 467.34 814.364 467.084 814.612 467.084L819.316 468.362C819.563 468.362 819.811 468.874 819.811 469.129C819.811 469.385 819.316 469.641 819.068 469.641L814.364 468.362Z" fill="#FFDCC5"/>
<path d="M679.684 431.036C679.437 431.036 679.189 430.524 679.189 430.269C679.189 430.013 679.684 429.757 679.932 429.757L684.636 431.036C684.883 431.036 685.131 431.547 685.131 431.803C685.131 432.058 684.636 432.314 684.388 432.314L679.684 431.036Z" fill="#FFDCC5"/>
<path d="M691.568 414.417C691.816 414.673 692.063 414.929 691.816 415.184C691.568 415.44 691.32 415.696 691.073 415.44L686.864 412.883C686.617 412.628 686.369 412.372 686.617 412.117C686.864 411.861 687.112 411.605 687.359 411.861L691.568 414.417Z" fill="#FFDCC5"/>
<path d="M812.384 486.515C812.631 486.77 812.879 487.026 812.631 487.282C812.384 487.537 812.136 487.793 811.888 487.537L807.68 484.981C807.432 484.725 807.184 484.469 807.432 484.214C807.68 483.958 807.927 483.702 808.175 483.958L812.384 486.515Z" fill="#FFDCC5"/>
<path d="M732.665 382.46C732.665 382.715 732.665 383.227 732.17 383.227C731.922 383.227 731.427 383.227 731.427 382.715L730.189 377.858C730.189 377.602 730.189 377.091 730.684 377.091C730.932 377.091 731.427 377.091 731.427 377.602L732.665 382.46Z" fill="#FFDCC5"/>
<path d="M768.811 521.54C768.811 521.796 768.811 522.307 768.316 522.307C768.068 522.307 767.573 522.307 767.573 521.796L766.335 516.938C766.335 516.683 766.335 516.172 766.83 516.172C767.078 516.172 767.573 516.172 767.573 516.683L768.811 521.54Z" fill="#FFDCC5"/>
<path d="M783.665 389.874C783.417 390.129 783.17 390.385 782.922 390.129C782.675 389.874 782.427 389.618 782.675 389.362L785.15 385.016C785.398 384.761 785.646 384.505 785.893 384.761C786.141 385.016 786.388 385.272 786.141 385.528L783.665 389.874Z" fill="#FFDCC5"/>
<path d="M713.85 514.638C713.602 514.893 713.354 515.149 713.107 514.893C712.859 514.638 712.612 514.382 712.859 514.126L715.335 509.78C715.583 509.524 715.83 509.269 716.078 509.524C716.325 509.78 716.573 510.036 716.325 510.291L713.85 514.638Z" fill="#FFDCC5"/>
<path d="M814.612 432.314C814.364 432.314 813.869 432.314 813.869 431.803C813.869 431.547 813.869 431.036 814.364 431.036L819.068 429.757C819.316 429.757 819.811 429.757 819.811 430.269C819.811 430.524 819.811 431.036 819.316 431.036L814.612 432.314Z" fill="#FFDCC5"/>
<path d="M679.932 469.641C679.684 469.641 679.189 469.641 679.189 469.129C679.189 468.874 679.189 468.362 679.684 468.362L684.388 467.084C684.636 467.084 685.131 467.084 685.131 467.595C685.131 467.851 685.131 468.362 684.636 468.362L679.932 469.641Z" fill="#FFDCC5"/>
<path d="M763.612 451.744C767.325 448.165 769.306 443.307 769.306 437.939C769.306 428.479 762.621 418.508 747.767 418.508C739.845 418.508 732.913 421.576 729.447 424.133C727.714 425.411 726.971 427.712 727.714 429.757L729.694 435.638C730.189 437.172 731.427 438.194 732.665 438.706C734.15 439.217 735.636 438.961 736.874 437.939C738.854 436.405 742.568 434.871 745.786 434.871C751.233 434.871 751.233 437.939 751.233 439.217C751.233 443.563 745.044 444.586 742.816 444.586H738.359C735.636 444.586 733.655 446.887 733.655 449.443V455.579C733.655 458.392 735.883 460.437 738.359 460.437H742.816C745.291 460.437 753.214 460.948 753.214 467.851C753.214 468.618 753.214 470.663 751.481 472.453C749.748 474.243 746.777 474.754 744.549 474.754C740.34 474.754 735.883 472.964 734.15 471.686C732.913 470.919 731.427 470.663 729.942 471.175C728.456 471.686 727.466 472.709 726.971 474.243L724.743 480.634C724 482.68 724.743 485.236 726.723 486.515C730.189 488.816 736.874 491.372 744.549 491.372C762.621 491.372 770.791 479.356 770.791 468.107C771.534 461.46 768.563 455.579 763.612 451.744Z" fill="#FFDCC5"/>
<path d="M738.854 460.693H743.311C745.786 460.693 753.709 461.204 753.709 468.107C753.709 468.874 753.709 470.919 751.976 472.709C750.243 474.498 747.272 475.01 745.044 475.01C740.835 475.01 736.379 473.22 734.646 471.942C733.408 471.175 731.922 470.919 730.437 471.43C728.951 471.942 727.961 472.964 727.466 474.498L725.238 480.89C724.495 482.935 725.238 485.492 727.218 486.77C730.684 489.071 737.369 491.628 745.044 491.628C763.117 491.628 771.286 479.612 771.286 468.362C771.286 461.715 768.316 455.835 763.364 452C767.078 448.421 769.058 443.563 769.058 438.194C769.058 435.638 768.563 433.337 767.573 431.036L738.854 460.693Z" fill="#F7C6A4"/>
<path d="M740.587 401.379C740.587 403.68 738.607 407.515 736.379 407.515C734.15 407.515 732.17 403.68 732.17 401.379C732.17 399.078 734.15 397.032 736.379 397.032C738.607 397.032 740.587 399.078 740.587 401.379Z" fill="#CC7E48"/>
<path d="M736.379 405.725C738.703 405.725 740.587 403.779 740.587 401.379C740.587 398.978 738.703 397.032 736.379 397.032C734.054 397.032 732.17 398.978 732.17 401.379C732.17 403.779 734.054 405.725 736.379 405.725Z" fill="#F7C6A4"/>
<path d="M739.35 398.311C741.083 400.1 741.083 402.657 739.35 404.447C737.617 406.236 735.141 406.236 733.408 404.447" fill="#E8B18B"/>
<path d="M753.709 401.379C753.709 403.68 751.728 407.515 749.5 407.515C747.272 407.515 745.291 403.68 745.291 401.379C745.291 399.078 747.272 397.032 749.5 397.032C751.728 397.032 753.709 399.078 753.709 401.379Z" fill="#CC7E48"/>
<path d="M749.5 405.725C751.824 405.725 753.709 403.779 753.709 401.379C753.709 398.978 751.824 397.032 749.5 397.032C747.176 397.032 745.291 398.978 745.291 401.379C745.291 403.779 747.176 405.725 749.5 405.725Z" fill="#F7C6A4"/>
<path d="M752.471 398.311C754.204 400.1 754.204 402.657 752.471 404.447C750.738 406.236 748.262 406.236 746.529 404.447" fill="#E8B18B"/>
<path d="M766.83 401.379C766.83 403.68 764.85 407.515 762.621 407.515C760.393 407.515 758.413 403.68 758.413 401.379C758.413 399.078 760.393 397.032 762.621 397.032C764.85 397.032 766.83 399.078 766.83 401.379Z" fill="#CC7E48"/>
<path d="M762.621 405.725C764.946 405.725 766.83 403.779 766.83 401.379C766.83 398.978 764.946 397.032 762.621 397.032C760.297 397.032 758.413 398.978 758.413 401.379C758.413 403.779 760.297 405.725 762.621 405.725Z" fill="#F7C6A4"/>
<path d="M765.592 398.311C767.325 400.1 767.325 402.657 765.592 404.447C763.859 406.236 761.383 406.236 759.65 404.447" fill="#E8B18B"/>
<path d="M303.08 70.5L357.11 1.5H538.784L596.78 70.5H303.08Z" fill="#927C45" stroke="black" stroke-width="3"/>
<defs>
<clipPath id="clip0_2_110">
<rect width="351" height="313" fill="white" transform="translate(275 84)"/>
</clipPath>
<clipPath id="clip1_2_110">
<rect width="177" height="183" fill="white" transform="translate(62 291)"/>
</clipPath>
</defs>
</svg>
