<?xml version="1.0" encoding="utf-8"?>
<!-- Generator: Adobe Illustrator 26.0.1, SVG Export Plug-In . SVG Version: 6.00 Build 0)  -->
<svg version="1.1" id="Layer_1" xmlns="http://www.w3.org/2000/svg" xmlns:xlink="http://www.w3.org/1999/xlink" x="0px" y="0px"
	 viewBox="0 0 1080 1080" style="enable-background:new 0 0 1080 1080;" xml:space="preserve">
<style type="text/css">
	.st0{fill:#8A3B1E;}
	.st1{fill:#030204;}
	.st2{fill:#FFFFFF;}
	.st3{fill:#B82025;}
	.st4{fill:#212020;}
	.st5{fill:#6D2612;}
	.st6{fill:#F26346;}
	.st7{fill:#CB1C60;}
	.st8{fill:#B82126;}
</style>
<g>
	<path class="st0" d="M285.84,682.67l-11.55-18.49c-31.59-50.54-8.61-117.33,47.38-137.75l35.23-12.84l0,0
		c-39.91-37.23-18.58-110.05,36.41-139.3l47.76-25.77c0,0-36.44-37.53,22.23-102.76c0,0,6.56-37.17-13.85-50.29
		c0,0,63.77-20.77,73.97,18.58c0,0,149.4,40.81,128.27,187.3c0,0,115.15,4.37,88.18,123.16c0,0,110.77,3.64,77.98,147.94
		c0,0,82.35,26.24,90.37,103.49s-46.64,121.71-194.58,112.96c-122.14-7.22-253.71-13.45-295.89-15.4c-8.61-0.4-17.2,0.5-25.55,2.64
		c-34.91,8.98-139.25,29.92-194.53-22.96C130.61,789.07,201.31,669.55,285.84,682.67z"/>
	<g>
		<g>
			<circle class="st1" cx="479.33" cy="656.68" r="65.17"/>
		</g>
		<g>
			
				<ellipse transform="matrix(0.9849 -0.1734 0.1734 0.9849 -102.7265 95.266)" class="st2" cx="493.89" cy="635.59" rx="24.92" ry="24.92"/>
		</g>
		<g>
			<circle class="st1" cx="617.21" cy="657.65" r="65.17"/>
		</g>
		<g>
			
				<ellipse transform="matrix(0.2564 -0.9666 0.9666 0.2564 -167.1795 1055.8092)" class="st2" cx="602.64" cy="636.56" rx="24.92" ry="24.92"/>
		</g>
		<g>
			<ellipse class="st3" cx="474.47" cy="740.23" rx="30.03" ry="17.66"/>
		</g>
		<g>
			<ellipse class="st3" cx="621.05" cy="740.23" rx="30.03" ry="17.66"/>
		</g>
		<g>
			<path class="st4" d="M432.93,576.86c-3.53,0-6.69-2.47-7.43-6.06c-0.85-4.11,1.79-8.12,5.9-8.97
				c31.52-6.51,49.37-34.28,49.55-34.56c2.23-3.54,6.92-4.61,10.46-2.38c3.54,2.23,4.62,6.9,2.4,10.45
				c-0.85,1.36-21.33,33.51-59.34,41.37C433.96,576.81,433.44,576.86,432.93,576.86z"/>
		</g>
		<g>
			<path class="st4" d="M664.95,576.86c-0.51,0-1.02-0.05-1.54-0.16c-38.01-7.85-58.49-40-59.34-41.37
				c-2.22-3.56-1.14-8.24,2.41-10.46c3.55-2.22,8.23-1.14,10.45,2.4l0,0c0.18,0.28,18.03,28.05,49.55,34.56
				c4.11,0.85,6.75,4.86,5.9,8.97C671.64,574.39,668.48,576.86,664.95,576.86z"/>
		</g>
		<g>
			<path class="st4" d="M591.02,795.96c-4.19,0-7.59-3.4-7.59-7.59c0-13.89-15.11-25.19-33.68-25.19
				c-18.57,0-33.68,11.3-33.68,25.19c0,4.19-3.4,7.59-7.59,7.59s-7.59-3.4-7.59-7.59c0-22.26,21.92-40.37,48.87-40.37
				c26.95,0,48.87,18.11,48.87,40.37C598.61,792.56,595.21,795.96,591.02,795.96z"/>
		</g>
	</g>
</g>
</svg>
