<?xml version="1.0" standalone="no"?>
<!DOCTYPE svg PUBLIC "-//W3C//DTD SVG 20010904//EN"
 "http://www.w3.org/TR/2001/REC-SVG-20010904/DTD/svg10.dtd">
<svg version="1.0" xmlns="http://www.w3.org/2000/svg"
 width="700.000000pt" height="700.000000pt" viewBox="0 0 700.000000 700.000000"
 preserveAspectRatio="xMidYMid meet">
<metadata>
Created by potrace 1.14, written by Peter Selinger 2001-2017
</metadata>
<g transform="translate(0.000000,700.000000) scale(0.100000,-0.100000)"
fill="#000000" stroke="none">
<path d="M3320 6874 c-609 -53 -1091 -207 -1568 -501 -1446 -890 -2006 -2719
-1311 -4277 380 -850 1126 -1526 2013 -1822 391 -130 748 -182 1175 -171 394
10 731 75 1089 208 1219 453 2075 1576 2192 2877 18 191 8 597 -19 772 -109
730 -421 1369 -919 1882 -552 569 -1255 919 -2042 1014 -120 14 -516 26 -610
18z m645 -99 c932 -129 1748 -626 2288 -1392 457 -649 664 -1476 572 -2279
-113 -969 -646 -1835 -1465 -2379 -448 -299 -952 -478 -1505 -536 -163 -17
-524 -14 -690 6 -766 90 -1438 416 -1980 959 -520 521 -841 1176 -940 1916
-23 168 -30 496 -16 675 60 737 350 1411 850 1970 129 144 300 298 477 431
483 360 1060 584 1664 643 146 15 603 6 745 -14z"/>
<path d="M1824 5494 c-69 -179 -76 -218 -81 -447 -10 -402 28 -573 158 -711
l56 -60 -40 -90 c-64 -148 -87 -256 -87 -411 0 -164 26 -278 98 -430 112 -232
258 -388 460 -490 111 -56 216 -79 332 -72 114 5 184 30 269 92 82 60 126 126
126 187 0 31 -6 53 -16 64 -16 15 -20 12 -57 -43 -22 -32 -57 -76 -78 -97 -40
-39 -134 -90 -189 -101 -25 -5 -22 -3 12 14 58 27 140 106 168 161 72 141 80
493 19 773 -9 39 12 36 106 -15 46 -25 83 -39 93 -35 20 7 23 56 5 61 -7 2
-28 8 -46 12 l-33 9 46 60 c25 33 59 96 75 140 40 104 54 133 85 172 l26 31
-56 -2 c-51 -3 -58 -6 -71 -32 -8 -16 -34 -48 -56 -71 l-41 -42 -50 72 c-135
194 -303 372 -446 473 -39 27 -69 54 -68 59 4 17 187 102 302 139 251 82 463
111 750 103 205 -6 313 -21 482 -67 127 -34 127 -34 26 -110 -184 -136 -432
-370 -546 -513 l-46 -58 -60 103 c-33 57 -67 114 -77 127 l-17 24 -9 -23 c-12
-31 7 -195 33 -292 12 -43 36 -103 55 -134 19 -31 34 -59 33 -63 0 -3 -28 -28
-62 -56 -67 -55 -77 -71 -50 -77 33 -8 73 10 125 56 29 25 56 46 59 46 4 0 9
-102 11 -227 5 -254 17 -327 73 -448 64 -140 168 -248 293 -308 156 -73 392
-36 583 94 144 97 315 308 407 501 88 185 125 373 103 519 -15 98 -50 208 -94
296 l-34 66 43 39 c55 50 111 159 169 328 108 315 139 502 115 698 l-12 102
-44 0 c-41 0 -44 -2 -62 -42 -18 -41 -136 -221 -171 -262 -28 -33 -311 -256
-395 -311 -45 -30 -94 -67 -110 -84 -36 -37 -52 -39 -60 -7 -5 19 -24 32 -92
60 -317 133 -759 161 -1176 75 -155 -31 -366 -103 -500 -171 l-119 -59 -127
119 c-195 184 -295 292 -316 342 -11 25 -35 80 -54 124 -19 43 -39 109 -45
147 -10 66 -12 69 -38 69 -25 0 -30 -7 -65 -96z m2565 -749 c33 -20 61 -39 61
-43 0 -5 -21 -18 -47 -31 -138 -67 -446 -290 -679 -491 -178 -153 -204 -160
-112 -29 68 98 359 388 528 528 153 127 148 125 249 66z m-1899 -132 c72 -48
234 -205 328 -318 80 -95 202 -274 202 -296 0 -15 -29 -49 -42 -49 -28 0 -450
348 -687 566 -11 10 -3 22 50 73 35 33 71 61 79 61 8 0 40 -17 70 -37z m2122
-41 c130 -137 219 -290 259 -452 26 -104 22 -244 -11 -360 -62 -219 -262 -504
-438 -624 -63 -44 -182 -100 -191 -91 -2 3 12 22 32 44 96 107 171 355 192
636 8 110 -8 275 -36 376 -22 81 -88 227 -144 318 -19 32 -35 61 -35 64 0 11
271 166 291 167 4 0 40 -35 81 -78z m-2312 -158 l49 -46 -43 -57 c-67 -87 -94
-141 -116 -227 -52 -201 -28 -541 56 -799 29 -87 93 -223 124 -263 36 -45 12
-36 -58 21 -106 87 -195 202 -265 342 -139 280 -127 565 37 858 43 78 144 217
157 217 5 0 32 -21 59 -46z m1833 -355 c35 -19 56 -51 77 -118 25 -78 26 -145
2 -191 -36 -73 -98 -40 -140 73 -32 83 -32 197 -2 227 23 23 33 24 63 9z
m-1306 -91 c47 -51 90 -192 78 -252 -24 -111 -100 -96 -156 29 -27 60 -33 200
-10 228 19 24 64 21 88 -5z"/>
<path d="M3412 3708 c-30 -38 -111 -313 -162 -554 -31 -149 -80 -471 -80 -529
0 -41 -10 -43 -53 -11 -55 42 -118 66 -177 66 -107 0 -103 -28 12 -86 l68 -34
-32 -45 c-62 -87 -38 -147 83 -207 72 -36 187 -73 198 -63 9 9 -48 60 -106 95
-107 62 -122 89 -83 140 l19 25 47 -23 c25 -13 48 -21 51 -18 3 2 9 53 14 113
13 148 54 430 85 577 33 157 84 359 94 369 10 12 18 -42 25 -183 8 -147 30
-318 56 -440 25 -114 73 -257 95 -281 14 -16 12 -21 -21 -68 -21 -29 -35 -58
-31 -66 12 -34 37 -27 97 25 67 58 68 58 164 15 48 -21 55 -27 55 -52 -1 -37
-20 -70 -55 -93 -25 -17 -27 -20 -11 -26 28 -11 97 15 133 51 48 48 46 95 -6
145 -22 21 -57 42 -85 50 -25 7 -46 15 -46 19 0 3 32 33 70 66 39 33 70 65 70
72 0 15 -34 34 -52 29 -7 -2 -25 -7 -40 -10 -14 -3 -56 -31 -93 -61 -37 -30
-71 -55 -76 -55 -4 0 -16 24 -27 53 -57 152 -90 333 -122 673 -11 117 -25 234
-31 262 -12 57 -30 80 -47 60z"/>
<path d="M4407 2758 c5 -62 4 -64 -53 -158 -149 -247 -329 -437 -504 -532
-152 -84 -335 -123 -530 -115 -330 13 -551 149 -732 449 -27 46 -52 95 -55
111 -8 40 -21 43 -54 11 -39 -37 -38 -76 7 -254 118 -470 316 -822 556 -987
185 -127 369 -185 588 -185 145 1 244 22 355 77 99 48 162 109 245 232 125
187 200 375 242 599 20 107 22 153 22 461 1 374 5 353 -59 353 l-33 0 5 -62z
m-27 -405 c0 -102 -22 -272 -51 -392 -16 -70 -33 -132 -37 -139 -7 -9 -25 -8
-87 8 -182 46 -445 9 -697 -100 -181 -78 -285 -159 -395 -306 l-21 -29 -79 80
c-123 125 -213 272 -303 497 -27 69 -53 141 -57 160 l-6 33 49 -45 c61 -57
121 -98 202 -139 35 -18 67 -41 72 -54 6 -12 33 -98 61 -192 28 -93 55 -177
59 -185 12 -20 23 10 68 185 l37 140 205 6 c174 6 219 10 301 32 164 43 279
99 411 200 l37 29 46 -94 c25 -51 54 -101 65 -112 18 -18 18 -16 25 70 4 48 5
133 2 187 l-5 99 41 54 c23 30 45 54 50 54 4 0 7 -21 7 -47z m-132 -210 l-3
-68 -31 51 -32 51 26 32 c21 28 26 31 34 17 5 -9 8 -46 6 -83z m-1151 -234
c43 -11 45 -13 40 -43 -11 -71 -39 -149 -48 -135 -8 13 -59 170 -59 183 0 9
15 7 67 -5z m1113 -175 c22 -9 40 -21 40 -28 -1 -48 -132 -256 -224 -353 -93
-99 -153 -125 -304 -131 -126 -5 -223 7 -345 44 -85 25 -217 82 -217 94 0 12
142 135 205 177 144 97 394 191 570 213 92 12 225 4 275 -16z"/>
</g>
</svg>
