<svg width="1440" height="1024" viewBox="0 0 1440 1024" fill="none" xmlns="http://www.w3.org/2000/svg">
<g clip-path="url(#clip0_0_1)">
<rect width="1440" height="1024" fill="white"/>
<path d="M1449.39 0.140656H-2.41522V1024.78H1449.39V0.140656Z" fill="#000820" stroke="#000820" stroke-width="2.5218"/>
<path d="M130.818 901.962L124.834 921.439L112.135 905.504L91.7626 905.831L102.993 888.829L96.3866 869.554L116.027 874.981L132.317 862.741L133.224 883.097L149.898 894.808L130.818 901.962Z" fill="#FFFF00" stroke="#000820" stroke-width="0.299052"/>
<path d="M1214.07 139.357L1207.6 160.402L1193.88 143.184L1171.87 143.537L1184 125.167L1176.87 104.34L1198.09 110.205L1215.69 96.9795L1216.67 118.973L1234.68 131.627L1214.07 139.357Z" fill="#FFFF00" stroke="#000820" stroke-width="0.32312"/>
<path d="M331.347 302.149L325.363 321.627L312.664 305.692L292.291 306.019L303.522 289.017L296.915 269.741L316.556 275.169L332.846 262.929L333.753 283.285L350.427 294.995L331.347 302.149Z" fill="#FFFF00" stroke="#000820" stroke-width="0.299052"/>
<path d="M1037.77 416.652L1031.78 436.13L1019.09 420.195L998.714 420.522L1009.94 403.52L1003.34 384.244L1022.98 389.672L1039.27 377.432L1040.18 397.787L1056.85 409.498L1037.77 416.652Z" fill="#FFFF00" stroke="#000820" stroke-width="0.299052"/>
<path d="M826.514 235.15L822.456 248.357L813.845 237.552L800.031 237.774L807.646 226.245L803.167 213.175L816.484 216.855L827.53 208.556L828.145 222.358L839.452 230.299L826.514 235.15Z" fill="#FFFF00" stroke="#000820" stroke-width="0.20278"/>
<path d="M734.385 883L728.4 902.477L715.701 886.542L695.329 886.869L706.559 869.867L699.953 850.591L719.593 856.019L735.883 843.779L736.79 864.135L753.465 875.846L734.385 883Z" fill="#FFFF00" stroke="#000820" stroke-width="0.299052"/>
<path d="M119.464 80.8426L116.85 89.3471L111.306 82.3892L102.411 82.532L107.314 75.1084L104.43 66.6921L113.005 69.0619L120.118 63.7176L120.514 72.6055L127.795 77.7189L119.464 80.8426Z" fill="#FFFF00" stroke="#000820" stroke-width="0.130576"/>
<path d="M155.901 574.784L149.916 594.262L137.217 578.327L116.845 578.654L128.076 561.652L121.469 542.376L141.109 547.804L157.399 535.564L158.307 555.919L174.981 567.63L155.901 574.784Z" fill="#FFFF00" stroke="#000820" stroke-width="0.299052"/>
<path d="M1039.67 967.798L1037.06 976.303L1031.51 969.345L1022.62 969.488L1027.52 962.064L1024.64 953.648L1033.21 956.018L1040.33 950.673L1040.72 959.561L1048 964.675L1039.67 967.798Z" fill="#FFFF00" stroke="#000820" stroke-width="0.130576"/>
<path d="M179.285 46.4264C166.648 44.668 154.219 44.7408 142.195 46.416C194.954 69.6315 228.205 125.247 219.964 184.484C211.722 243.715 164.564 288.016 107.478 295.95C118.592 300.848 130.52 304.307 143.162 306.067C215.773 316.17 282.763 266.298 292.737 194.608C302.711 122.919 251.896 56.53 179.285 46.4264Z" fill="#FFDC18" stroke="#F1DD0D" stroke-width="6.0472"/>
<path d="M798.703 68.1414L795.905 77.2467L789.969 69.7973L780.445 69.9502L785.695 62.0022L782.607 52.9913L791.788 55.5286L799.403 49.8067L799.828 59.3225L807.622 64.7971L798.703 68.1414Z" fill="#FFFF00" stroke="#000820" stroke-width="0.1398"/>
<path d="M558.847 208.229L557.18 213.653L553.643 209.215L547.969 209.306L551.097 204.571L549.257 199.203L554.727 200.714L559.264 197.306L559.517 202.975L564.16 206.236L558.847 208.229Z" fill="#FFFF00" stroke="#000820" stroke-width="0.083288"/>
<path d="M420.991 338.999C417.941 362.599 367.589 369.989 308.525 355.503C249.462 341.018 204.054 310.144 207.104 286.543C210.154 262.943 260.506 255.553 319.57 270.039C378.633 284.524 424.041 315.398 420.991 338.999Z" fill="#AB37C8" stroke="black" stroke-width="0.800477"/>
<path d="M459.49 333.596C446.586 354.621 376.427 348.687 300.047 324.258C223.666 299.83 167.763 267.109 180.667 246.084C193.572 225.059 267.856 224.327 344.237 248.755C420.617 273.183 472.392 312.57 459.488 333.595L459.49 333.596Z" fill="#800080" stroke="black" stroke-width="0.542843"/>
<path d="M326.48 219.293C326.48 225.686 331.663 230.869 338.056 230.869C344.45 230.869 349.632 225.686 349.632 219.293C349.632 212.899 344.449 207.716 338.056 207.716C331.663 207.716 326.48 212.899 326.48 219.293Z" fill="#FF0000" stroke="#FF4500" stroke-width="2.44007" stroke-linecap="round" stroke-linejoin="round"/>
<path d="M328.255 219.298C328.255 224.713 332.645 229.102 338.059 229.102C343.474 229.102 347.863 224.713 347.863 219.298C347.863 213.883 343.473 209.494 338.059 209.494C332.645 209.494 328.255 213.883 328.255 219.298Z" fill="white" stroke="white" stroke-width="2.06646" stroke-linecap="round" stroke-linejoin="round"/>
<path d="M330.855 219.295C330.855 223.274 334.081 226.499 338.059 226.499C342.038 226.499 345.263 223.274 345.263 219.295C345.263 215.316 342.038 212.091 338.059 212.091C334.081 212.091 330.855 215.316 330.855 219.295Z" fill="#7CFC00" stroke="#7CFC00" stroke-width="1.51848" stroke-linecap="round" stroke-linejoin="round"/>
<path d="M333.214 219.293C333.214 221.966 335.381 224.134 338.054 224.134C340.728 224.134 342.895 221.966 342.895 219.293C342.895 216.619 340.728 214.452 338.054 214.452C335.381 214.452 333.214 216.619 333.214 219.293Z" fill="black" stroke="black" stroke-width="1.02032" stroke-linecap="round" stroke-linejoin="round"/>
<path d="M333.416 222.517C333.416 223.205 333.973 223.762 334.66 223.762C335.348 223.762 335.905 223.205 335.905 222.517C335.905 221.83 335.348 221.272 334.66 221.272C333.973 221.272 333.416 221.83 333.416 222.517Z" fill="white" stroke="white" stroke-width="0.262366" stroke-linecap="round" stroke-linejoin="round"/>
<path d="M338.902 215.441C338.902 216.259 339.565 216.922 340.383 216.922C341.201 216.922 341.865 216.259 341.865 215.441C341.865 214.623 341.201 213.96 340.383 213.96C339.565 213.96 338.902 214.623 338.902 215.441Z" fill="white" stroke="white" stroke-width="0.312181" stroke-linecap="round" stroke-linejoin="round"/>
<path d="M330.885 250.529C332.09 237.576 335.855 233.962 335.855 233.962L331.638 232.757C331.638 232.757 331.789 240.739 325.764 248.722L330.885 250.529Z" fill="#FF4500" stroke="#FF4500" stroke-width="0.338378"/>
<path d="M348.953 278.239C348.953 278.239 355.73 278.691 362.508 275.227C362.508 275.227 369.586 280.95 367.929 273.871C367.929 273.871 375.008 268.449 367.026 268.901C367.026 268.901 365.369 262.124 362.959 268.148C362.959 268.148 354.525 266.642 360.851 271.462V273.57C360.851 273.57 355.278 275.528 347.748 271.311L348.953 278.239Z" fill="#FF4500" stroke="#FF4500" stroke-width="0.338378"/>
<path d="M295.393 271.329C294.711 276.336 296.928 279.888 301.459 282.479C305.99 285.07 313.136 285.946 320.503 287.708C327.87 289.471 332.482 292.087 336.477 291.656C340.473 291.224 343.851 287.745 344.534 282.739C345.217 277.733 345.409 271.545 342.535 265.866C339.661 260.187 333.72 255.019 326.352 253.256C318.984 251.494 311.812 253.396 306.009 257.14C300.207 260.885 296.076 266.323 295.393 271.329Z" fill="#FF4500" stroke="#FF4500" stroke-width="3.95699" stroke-linecap="round" stroke-linejoin="round"/>
<path d="M294.133 266.491C294.133 266.491 288.259 265.135 284.193 269.503L287.507 273.117C287.507 273.117 290.519 277.335 284.796 276.883C284.796 276.883 281.784 281.552 279.976 276.883C279.976 276.883 273.048 274.624 278.771 272.214C278.771 272.214 286.001 258.96 295.941 259.863L294.133 266.491Z" fill="#FF4500" stroke="#FF4500" stroke-width="0.338378"/>
<path d="M336.305 262.119C336.305 262.119 324.709 264.83 316.274 255.793C316.274 255.793 314.316 259.709 315.22 263.324C315.22 263.324 302.569 268.746 316.877 268.746C316.877 268.746 329.377 278.837 336.305 262.119Z" fill="black" stroke="black" stroke-width="0.338378"/>
<path d="M330.92 262.445C330.92 262.445 325.253 272.423 325.705 261.579L326.396 261.781L328.29 262.137L329.896 262.367L330.92 262.445Z" fill="white" stroke="white" stroke-width="0.338378"/>
<path opacity="0.6" d="M400.854 283.743C392.814 306.158 355.069 306.059 315.374 294.095C275.68 282.131 245.256 261.562 253.297 239.148C261.337 216.733 305.748 194.292 345.442 206.256C385.137 218.22 408.892 261.329 400.854 283.743Z" fill="#53CAF5" stroke="#53CAF5" stroke-width="1.45498"/>
<path d="M344.151 202.972L352.011 171.954L355.445 173.566L350.814 205.173C349.065 204.359 346.904 203.91 344.151 202.972Z" fill="#800080" stroke="#800080" stroke-width="0.716015"/>
<path opacity="0.5" d="M274.842 274.766C274.842 274.766 250.081 254.766 254.525 242.068C254.525 242.068 289.445 196.353 342.459 207.465C342.459 207.465 346.268 210.639 342.141 211.275C342.141 211.275 263.413 205.241 274.842 274.766Z" fill="white" stroke="white" stroke-width="0.91664"/>
<path d="M364.003 165.306C364.003 170.211 360.027 174.188 355.122 174.188C350.217 174.188 346.241 170.211 346.241 165.306C346.241 160.4 350.217 156.424 355.122 156.424C360.027 156.424 364.003 160.4 364.003 165.306Z" fill="#FFFF00" stroke="#FFFF00" stroke-width="0.51332"/>
<path d="M355.993 158.634C355.993 158.634 341.7 158.212 352.636 172.255C352.636 172.255 344.911 162.256 355.993 158.634Z" fill="white" stroke="white" stroke-width="0.848946" stroke-linecap="round" stroke-linejoin="round"/>
<path d="M228.709 256.095C228.709 259.721 223.694 262.66 217.509 262.66C211.324 262.66 206.31 259.721 206.31 256.095C206.31 252.469 211.324 249.53 217.509 249.53C223.694 249.53 228.709 252.469 228.709 256.095Z" fill="white" stroke="white" stroke-width="0.45832" stroke-linecap="round" stroke-linejoin="round"/>
<path d="M431.461 315.579C431.461 319.205 426.447 322.145 420.262 322.145C414.077 322.145 409.063 319.205 409.063 315.579C409.063 311.953 414.077 309.014 420.262 309.014C426.447 309.014 431.461 311.953 431.461 315.579Z" fill="white" stroke="white" stroke-width="0.45832" stroke-linecap="round" stroke-linejoin="round"/>
<path d="M313.137 308.629C313.137 312.255 308.123 315.194 301.938 315.194C295.753 315.194 290.739 312.255 290.739 308.629C290.739 305.003 295.753 302.064 301.938 302.064C308.123 302.064 313.137 305.003 313.137 308.629Z" fill="white" stroke="white" stroke-width="0.45832" stroke-linecap="round" stroke-linejoin="round"/>
<path d="M515.029 584.701C509.032 594.251 496.427 597.131 486.876 591.133C477.325 585.135 474.445 572.53 480.443 562.979C486.44 553.428 499.045 550.548 508.596 556.547C518.147 562.545 521.027 575.15 515.029 584.701Z" fill="#D7DD21" stroke="#D7DD21" stroke-width="4.30435" stroke-linecap="round" stroke-linejoin="round"/>
<path d="M512.38 583.03C507.301 591.119 496.626 593.558 488.538 588.478C480.449 583.398 478.01 572.723 483.089 564.635C488.169 556.546 498.843 554.107 506.932 559.187C515.02 564.267 517.459 574.942 512.38 583.03Z" fill="white" stroke="white" stroke-width="3.64529" stroke-linecap="round" stroke-linejoin="round"/>
<path d="M508.491 580.599C504.758 586.543 496.914 588.335 490.97 584.602C485.027 580.869 483.234 573.025 486.967 567.082C490.699 561.138 498.543 559.346 504.487 563.079C510.431 566.811 512.223 574.656 508.491 580.599Z" fill="#FF0066" stroke="#FF0066" stroke-width="2.67865" stroke-linecap="round" stroke-linejoin="round"/>
<path d="M504.969 578.384C502.461 582.377 497.191 583.582 493.197 581.073C489.203 578.565 487.999 573.294 490.507 569.301C493.015 565.307 498.285 564.103 502.279 566.611C506.273 569.119 507.477 574.39 504.969 578.384Z" fill="black" stroke="black" stroke-width="1.79987" stroke-linecap="round" stroke-linejoin="round"/>
<path d="M501.643 583.01C500.999 584.037 499.644 584.346 498.617 583.702C497.59 583.057 497.28 581.702 497.925 580.675C498.57 579.648 499.925 579.339 500.952 579.983C501.978 580.628 502.288 581.983 501.643 583.01Z" fill="white" stroke="white" stroke-width="0.462821" stroke-linecap="round" stroke-linejoin="round"/>
<path d="M500.084 567.291C499.317 568.513 497.704 568.881 496.483 568.114C495.261 567.347 494.893 565.734 495.66 564.513C496.427 563.291 498.039 562.923 499.261 563.69C500.483 564.457 500.851 566.07 500.084 567.291Z" fill="white" stroke="white" stroke-width="0.550696" stroke-linecap="round" stroke-linejoin="round"/>
<path d="M479.157 627.219C489.508 606.739 487.274 597.806 487.274 597.806L494.704 599.963C494.704 599.963 486.991 611.746 488.502 629.324L479.157 627.219Z" fill="#D7DD21" stroke="#D7DD21" stroke-width="0.596908"/>
<path d="M426.155 651.667C426.155 651.667 415.606 645.984 408.731 634.451C408.731 634.451 392.787 636.359 401.903 627.339C401.903 627.339 396.415 612.599 407.915 620.762C407.915 620.762 416.748 612.192 414.697 623.452C414.697 623.452 428.709 629.115 414.738 630.38L412.76 633.53C412.76 633.53 419.248 641.683 434.454 642.448L426.155 651.667Z" fill="#D7DD21" stroke="#D7DD21" stroke-width="0.596908"/>
<path d="M512.664 691.597C508.987 699.716 502.343 702.943 493.143 702.562C483.944 702.181 472.447 696.786 459.788 692.507C447.129 688.229 437.785 687.81 432.221 683.418C426.657 679.025 424.874 670.658 428.55 662.539C432.227 654.42 437.744 644.995 447.365 639.209C456.986 633.423 470.71 631.275 483.37 635.555C496.03 639.833 504.96 649.403 510.115 660.442C515.271 671.48 516.341 683.479 512.664 691.597Z" fill="#D7DD21" stroke="#D7DD21" stroke-width="6.98025" stroke-linecap="round" stroke-linejoin="round"/>
<path d="M519.088 685.547C519.088 685.547 529.134 689.033 531.111 699.372L522.77 701.664C522.77 701.664 514.315 705.137 523.288 709.832C523.288 709.832 523.408 719.632 530.488 714.353C530.488 714.353 542.956 717.478 536.667 708.509C536.667 708.509 538.301 681.927 522.605 673.951L519.088 685.547Z" fill="#D7DD21" stroke="#D7DD21" stroke-width="0.596908"/>
<path d="M460.182 639.462C460.182 639.462 474.962 654.391 496.04 648.805C496.04 648.805 495.291 656.491 490.55 661.043C490.55 661.043 504.363 681.011 482.989 667.589C482.989 667.589 454.848 670.935 460.182 639.462Z" fill="#FF0000" stroke="#FF0000" stroke-width="0.596908"/>
<path d="M467.928 644.988C467.928 644.988 467.034 665.211 476.532 648.587L475.309 648.241L472.146 646.995L469.531 645.833L467.928 644.988Z" fill="white" stroke="white" stroke-width="0.596908"/>
<path d="M716.148 641.94C716.148 641.94 695.312 637.279 676.394 670.181C676.394 670.181 664.604 684.438 678.039 680.874C678.039 680.874 683.555 682.69 685.351 678.498C685.351 678.498 694.333 664.127 705.411 661.133L714.393 661.433C714.393 661.433 714.393 683.29 732.356 691.672L733.853 705.145C733.853 705.145 704.812 713.529 717.387 729.697L754.512 717.122L750.62 690.475C750.62 690.475 756.607 690.774 762.596 686.283L779.661 704.846L811.995 683.887C811.995 683.887 804.809 664.725 781.756 681.791L775.768 674.905C775.768 674.905 782.654 655.144 762.595 639.275C762.595 639.275 771.577 626.101 789.54 628.197C789.54 628.197 798.522 630.892 799.121 624.604C799.121 624.604 811.995 615.921 790.139 616.82C790.139 616.82 762.296 609.933 746.129 626.999C746.129 626.999 721.497 627.539 716.148 641.94Z" fill="white" stroke="white" stroke-width="0.45251"/>
<path d="M716.431 643.166C716.431 643.166 723.656 626.65 744.558 627.941C744.558 627.941 759.524 614.522 754.621 588.718C754.621 588.718 747.912 564.719 726.237 558.526C726.237 558.526 704.562 551.301 687.015 565.752C687.015 565.752 668.952 578.138 671.016 602.394C671.016 602.394 668.952 637.746 716.43 643.165L716.431 643.166Z" fill="white" stroke="#E6E6E6" stroke-width="0.45251"/>
<path opacity="0.2694" d="M708.815 614.147C708.815 614.432 708.585 614.663 708.3 614.663C708.016 614.663 707.785 614.432 707.785 614.147C707.785 614.033 707.823 613.922 707.892 613.832L708.3 614.147H708.815Z" stroke="#784421" stroke-width="3.48433"/>
<path d="M685.988 610.411C685.988 610.411 685.165 619.185 693.39 617.814C693.39 617.814 699.696 629.055 719.71 622.201C719.71 622.201 734.789 616.717 740.821 606.846C740.821 606.846 743.837 599.718 741.095 592.864L743.014 590.67L736.709 577.236L706.002 578.881L684.891 606.025L685.988 610.411Z" fill="#FCDCAB" stroke="#FCDCAB" stroke-width="0.45251"/>
<path d="M685.976 611.684L691.137 608.587V603.684L692.685 602.91L693.201 604.717C693.201 604.717 696.813 601.878 698.104 595.943H699.91L699.394 600.846C699.394 600.846 706.361 595.427 709.199 587.17L710.747 587.428L709.199 593.879C709.199 593.879 714.876 592.589 716.94 580.718C716.94 580.718 721.069 581.492 720.037 587.427L724.681 579.428L730.874 586.653L732.164 582.008L735.519 586.395L736.035 582.008L739.906 586.137C739.906 586.137 738.615 573.751 730.1 568.847C730.1 568.847 713.586 567.557 706.361 572.202C706.361 572.202 685.202 578.395 678.75 591.297C678.75 591.297 675.654 600.846 685.976 611.684Z" fill="#784421" stroke="#784421" stroke-width="0.45251"/>
<path opacity="0.4" d="M694.356 580.556C694.356 580.556 677.827 587.479 686.281 611.863L689.282 610.057C689.282 610.057 683.174 586.276 694.356 580.556Z" fill="white" stroke="white" stroke-width="0.472918"/>
<path d="M698.057 633.171L748.504 608.769C748.504 608.769 740.279 569.562 728.215 568.465C728.215 568.465 691.476 567.368 677.495 595.883C677.495 595.883 678.043 610.14 698.057 633.171Z" stroke="#D5F6FF" stroke-width="1.81004"/>
<path d="M755.726 645.12L751.615 644.18L748.36 646.862L747.984 642.662L744.428 640.395L748.306 638.739L749.363 634.657L752.136 637.834L756.345 637.577L754.181 641.196L755.726 645.12Z" fill="#FFFF00" stroke="black" stroke-width="0.292712"/>
<path d="M727.143 597.592C727.143 598.458 726.388 599.161 725.456 599.161C724.524 599.161 723.769 598.458 723.769 597.592C723.769 596.726 724.524 596.024 725.456 596.024C726.388 596.024 727.143 596.726 727.143 597.592Z" fill="black" stroke="black" stroke-width="0.320906"/>
<path d="M710.939 610.411C710.939 610.411 718.89 616.443 719.164 606.298" stroke="black" stroke-width="0.45251"/>
<path d="M703.158 609.508C703.158 610.375 702.403 611.077 701.471 611.077C700.539 611.077 699.784 610.375 699.784 609.508C699.784 608.642 700.539 607.94 701.471 607.94C702.403 607.94 703.158 608.642 703.158 609.508Z" fill="black" stroke="black" stroke-width="0.320906"/>
<path d="M765.602 659.891C769.122 656.932 773.229 654.375 777.604 652.879C778.867 652.448 780.177 652.17 781.464 651.815C782.937 651.599 784.401 651.309 785.883 651.167C789.963 650.777 794.02 650.895 798.113 651.043C803.775 651.247 809.412 651.794 815.04 652.411C823.993 653.557 832.635 656.198 841.31 658.585C848.008 660.528 854.486 663.648 859.131 669.007C859.854 669.842 860.438 670.787 861.092 671.676C863.644 675.409 863.622 679.856 864.4 684.12C865.357 688.537 865.594 693.043 865.271 697.539C864.559 702.428 861.845 706.62 860.405 711.275C859.367 715.449 858.507 719.67 858.013 723.944C857.588 727.722 859.327 731.172 860.67 734.597C861.967 737.299 862.78 740.239 864.17 742.897C864.903 744.299 865.461 745.014 866.373 746.332C870.745 751.114 875.709 755.268 880.179 759.954C881.922 761.739 883.663 763.628 885.704 765.09C887.892 766.657 890.468 767.752 892.889 768.884C898.243 771.132 903.711 773.238 909.542 773.687C912.832 773.479 915.814 772.023 918.829 770.803C923.62 768.589 928.851 767.079 933.251 764.079C933.915 763.626 934.518 763.088 935.152 762.593C937.908 760.058 940.627 757.4 944.086 755.827C946.349 754.797 947.722 754.614 950.115 754.074C958.118 753.025 966.24 753.87 974.214 754.808C976.121 755.199 978.3 755.023 979.972 756.188C980.867 756.812 981.599 757.641 982.413 758.368C987.135 761.458 992.048 764.271 996.646 767.544C998.93 769.029 1000.07 771.434 1001.56 773.599C1002.93 775.587 1002.65 775.15 1004.33 776.994C1006.72 779.59 1009.46 781.808 1012.21 784.006C1018.82 787.614 1026.05 789.976 1033.11 792.55C1038.2 794.28 1043.2 796.526 1048.55 797.311C1048.71 797.334 1048.22 797.299 1048.1 797.206C1048.04 797.162 1048.24 797.152 1048.3 797.125C1048.18 797.203 1048.06 797.427 1047.93 797.36C1047.74 797.26 1047.58 795.725 1047.57 795.538C1047.38 793.344 1047.61 792.699 1048.51 790.678C1051.18 787.365 1055.51 786.632 1059.48 785.877C1061.32 785.653 1062.79 785.183 1064.06 783.827C1064.98 782.938 1065.32 781.663 1066.04 780.644C1066.83 779.527 1067.06 779.394 1067.99 778.545C1069.42 777.62 1070.92 776.644 1072.52 776.023C1072.58 775.981 1072.64 775.939 1072.7 775.896C1072.95 775.624 1076.8 779.156 1076.55 779.429C1076.3 779.648 1076.04 779.867 1075.78 780.086C1073.49 781.53 1076.08 779.998 1074.69 780.629C1073.78 781.043 1073.04 781.808 1072.04 782.063C1071.68 782.361 1071.21 782.547 1070.92 782.909C1069.92 784.116 1069.64 785.861 1068.42 786.921C1066.59 788.993 1064.51 790.395 1061.76 790.952C1058.95 791.584 1056.13 792.198 1053.37 792.991C1053.27 793.019 1053.11 792.978 1053.06 793.073C1052.59 794.031 1053.48 797.369 1053.09 798.825C1052.88 799.614 1052.4 800.3 1052.05 801.038C1051.46 801.469 1050.98 802.105 1050.29 802.33C1044.13 804.329 1035.1 800.299 1029.41 798.437C1022.1 795.465 1014.55 792.476 1008.18 787.727C1005.23 785.285 1001.85 783.316 999.455 780.229C997.692 777.982 997.915 778.405 996.517 776.139C995.343 774.237 994.887 772.877 992.743 771.872C987.603 768.874 982.428 765.794 978.026 761.751C977.693 761.368 977.35 760.994 977.026 760.604C976.972 760.539 976.81 760.403 976.893 760.388C977.01 760.366 977.306 760.524 977.198 760.573C976.207 761.014 973.177 760.337 972.274 760.595C968.466 760.385 964.674 760.082 960.871 759.799C959.028 759.661 957.188 759.434 955.339 759.417C954.401 759.407 953.463 759.48 952.525 759.512C950.091 759.925 947.624 760.303 945.437 761.546C943.162 762.84 941.439 764.925 939.481 766.606C938.722 767.239 937.994 767.912 937.204 768.507C932.636 771.945 927.275 773.998 921.929 775.878C917.296 777.432 912.754 779.426 907.768 779.152C901.278 778.682 895.095 776.666 889.285 773.754C884.129 771.077 879.382 767.878 875.34 763.657C870.517 758.918 865.293 754.521 861.267 749.041C858.755 745.03 856.785 740.756 855.094 736.336C853.593 732.182 851.987 727.979 852.398 723.473C852.791 718.866 853.596 714.293 854.75 709.815C855.021 708.943 855.251 708.057 855.564 707.199C856.802 703.813 858.999 700.776 859.521 697.141C859.91 693.063 859.547 688.971 858.839 684.941C858.241 681.436 858.282 677.754 855.994 674.816C855.45 674.153 854.953 673.449 854.362 672.827C850.051 668.302 844.167 666.098 838.309 664.346C829.928 661.965 821.569 659.381 812.811 658.835C807.284 658.349 801.754 657.961 796.221 657.56C792.893 657.319 791.544 657.129 788.023 657.188C786.733 657.209 785.448 657.35 784.16 657.431C783.061 657.644 781.944 657.78 780.862 658.069C776.786 659.157 773.132 661.493 769.488 663.531C769.231 663.806 765.344 660.166 765.602 659.891Z" fill="white" stroke="white" stroke-width="0.226255"/>
<path d="M1132.34 816.035L1156.91 892.452L1275.34 945.205L1235.56 840.589L1132.34 816.035Z" fill="#FF0000" stroke="#FF0000" stroke-width="1.7936"/>
<path d="M1194.95 644.41L1261.72 601.93L1396.49 634.312L1281.23 687.383L1194.95 644.41Z" fill="#FF0000" stroke="#FF0000" stroke-width="1.7936"/>
<path d="M1334.87 834.267C1371.86 882.327 1403.14 869.34 1403.14 869.34C1374.57 854.427 1380.95 831.915 1380.95 831.915C1418.94 842.723 1439.82 834.288 1439.82 834.288C1439.82 834.288 1421.74 809.361 1391.08 803.198C1391.08 803.198 1389.52 785.991 1436.64 793.066C1436.64 793.066 1412.14 753.17 1359.84 767.112L1334.87 834.267Z" fill="#FFFF00" stroke="black" stroke-width="1.7936"/>
<path d="M1258.79 805.512L1283.39 733.457L1379.77 740.727L1334.33 864.828L1258.79 805.512Z" fill="#FF0000" stroke="#FF0000" stroke-width="1.7936"/>
<path d="M928.319 642.066C928.319 642.066 1120.89 590.383 1302.78 679.365L1241.73 852.836C1241.73 852.836 1056.39 819.817 928.319 642.066Z" fill="#0088AA" stroke="#0088AA" stroke-width="1.7936"/>
<path d="M1096.75 665.448C1112.78 678.293 1115.36 701.697 1102.51 717.723C1089.67 733.749 1066.27 736.327 1050.24 723.483C1034.22 710.638 1031.64 687.233 1044.48 671.208C1057.32 655.182 1080.73 652.603 1096.75 665.448Z" fill="white" stroke="#FF0000" stroke-width="3.11523"/>
<g clip-path="url(#clip1_0_1)">
<mask id="mask0_0_1" style="mask-type:luminance" maskUnits="userSpaceOnUse" x="1172" y="159" width="282" height="278">
<path d="M1172 159H1454V437H1172V159Z" fill="white"/>
</mask>
<g mask="url(#mask0_0_1)">
<path d="M1313.1 165.651C1386.98 165.651 1446.87 224.442 1446.87 296.965C1446.87 331.792 1432.78 365.192 1407.69 389.818C1382.6 414.444 1348.58 428.279 1313.1 428.279C1239.22 428.279 1179.32 369.488 1179.32 296.965C1179.32 224.442 1239.22 165.651 1313.1 165.651Z" fill="#9900FF"/>
<path d="M1437.33 333.075C1430.74 328.046 1399.88 333.547 1389.47 327.418C1379.07 321.289 1386.52 304.316 1374.91 296.301C1363.29 288.286 1335.89 281.214 1319.76 279.328C1303.64 277.442 1289.42 286.243 1278.15 284.986C1266.87 283.728 1257.16 279.799 1252.13 271.785C1247.11 263.77 1254.04 245.068 1247.97 236.896C1241.9 228.724 1222.83 225.423 1215.72 222.752C1208.61 220.08 1208.96 218.194 1205.31 220.866C1201.67 223.538 1193.18 233.438 1193.87 238.782C1194.56 244.125 1205.49 244.282 1209.48 252.926C1213.46 261.569 1216.24 280.271 1217.8 290.643C1219.36 301.016 1211.9 310.602 1218.84 315.16C1225.78 319.717 1249.19 314.217 1259.42 317.988C1269.65 321.76 1270 336.061 1280.23 337.79C1290.46 339.519 1309.36 330.875 1320.8 328.361C1332.25 325.846 1342.31 317.36 1348.89 322.703C1355.48 328.046 1354.96 352.563 1360.34 360.421C1365.72 368.278 1373 370.164 1381.15 369.85C1389.3 369.536 1401.26 360.578 1409.24 358.535C1417.22 356.492 1424.33 361.835 1429.01 357.592C1433.69 353.349 1443.92 338.104 1437.33 333.075Z" fill="#9900FF"/>
<path d="M1422.95 358.14C1416.36 353.111 1385.5 358.611 1375.1 352.482C1364.69 346.353 1372.15 329.381 1360.53 321.365C1348.91 313.35 1321.51 306.277 1305.39 304.391C1289.26 302.505 1275.04 311.307 1263.77 310.049C1252.5 308.792 1242.79 304.862 1237.76 296.847C1232.73 288.832 1239.67 270.13 1233.6 261.958C1227.53 253.786 1208.46 250.485 1201.35 247.813C1194.24 245.141 1194 241.968 1190.94 245.927C1187.88 249.886 1182.29 266.226 1182.98 271.569C1183.68 276.913 1191.7 270.633 1195.11 277.989C1198.51 285.346 1201.87 305.335 1203.43 315.707C1204.99 326.08 1197.53 335.666 1204.47 340.223C1211.4 344.781 1234.81 339.28 1245.05 343.052C1255.28 346.824 1255.62 361.126 1265.85 362.855C1276.08 364.584 1294.98 355.94 1306.43 353.425C1317.87 350.911 1327.93 342.424 1334.52 347.767C1341.11 353.11 1340.59 377.627 1345.96 385.485C1351.34 393.343 1358.62 395.23 1366.77 394.915C1374.92 394.601 1386.89 385.642 1394.86 383.599C1402.84 381.556 1409.95 386.899 1414.63 382.656C1419.31 378.413 1429.54 363.169 1422.95 358.14Z" fill="#A4C2F4"/>
<path d="M1433.82 341.413C1427.23 336.384 1396.36 341.884 1385.96 335.754C1375.55 329.625 1383.01 312.653 1371.39 304.638C1359.77 296.622 1332.38 289.549 1316.25 287.663C1300.12 285.777 1285.91 294.579 1274.64 293.321C1263.36 292.064 1253.65 288.134 1248.63 280.119C1243.6 272.104 1250.53 253.403 1244.46 245.23C1238.39 237.058 1219.54 233.925 1212.21 231.085C1204.89 228.246 1204.15 225.521 1200.51 228.193C1196.87 230.865 1189.45 241.605 1190.36 247.116C1191.27 252.628 1201.98 252.618 1205.97 261.262C1209.96 269.905 1212.73 288.607 1214.29 298.979C1215.85 309.352 1208.4 318.938 1215.33 323.495C1222.27 328.053 1245.68 322.552 1255.91 326.324C1266.14 330.096 1266.48 344.399 1276.71 346.128C1286.95 347.856 1305.85 339.212 1317.29 336.697C1328.74 334.183 1338.79 325.696 1345.38 331.039C1351.97 336.383 1351.45 360.899 1356.83 368.757C1362.2 376.615 1369.49 378.502 1377.64 378.187C1385.79 377.873 1397.75 368.915 1405.72 366.871C1413.7 364.828 1420.81 370.171 1425.49 365.928C1430.18 361.685 1440.41 346.441 1433.82 341.413Z" fill="#D671D0"/>
</g>
</g>
<path d="M202.162 927.625C167.87 907.966 218.51 846.452 247.628 881.553C265.048 902.565 241.632 943.661 270.605 958.602C297.501 972.456 361.82 951.018 368.659 926.595C371.653 915.907 372.696 937.501 366.51 942.959C371.686 940.667 375.871 934.991 378.433 930.455C378.503 941.885 361.851 960.888 377.784 946.819C361.624 1009.93 338.727 1026.6 275.509 1023.97C245.531 1022.73 209.447 1025.4 194.41 1008.12C172.675 983.158 238.421 948.401 202.162 927.625Z" fill="#FFCC00" stroke="black" stroke-width="1.5"/>
<path d="M241.735 1020.24C269.018 1020.57 332.317 1031.48 352.592 996.656C326.693 1019.52 289.423 1018.05 241.735 1020.24Z" fill="#D4AA00"/>
<path d="M151.742 906.716C153.725 910.454 155.613 913.412 157.668 915.83C168.034 928.086 179.742 914.803 189.854 915.031C193.465 915.118 208.478 920.456 205.979 915.731C199.898 904.278 195.693 905.094 173.425 905.512C165.885 905.649 158.533 906.874 151.742 906.716Z" fill="#AA8800" stroke="black" stroke-width="1.5"/>
<path d="M204.253 918.102L203.009 901.329C192.721 901.543 184.941 901.691 174.772 901.904C168.043 902.035 160.396 895.992 154.28 896.72C148.864 897.364 144.352 901.942 146.963 906.876C154.248 920.691 176.501 909.723 190.824 911.885C196.26 912.711 201.086 916.971 204.253 918.102Z" fill="#AA8800" stroke="black" stroke-width="1.5"/>
<path d="M154.954 900.527C156.795 900.755 158.028 901.565 157.711 902.321C157.384 903.076 155.622 903.512 153.781 903.274C151.93 903.045 150.697 902.234 151.024 901.479C151.351 900.714 153.113 900.288 154.954 900.527Z" fill="#999999"/>
<path d="M243.919 888.126C247.849 881.731 241.32 876.992 233.976 874.727C225.67 872.178 213.277 876.565 219.854 877.814C220.045 877.853 221.836 879.642 224.221 878.857C230.867 876.646 242.905 881.152 243.919 888.126Z" fill="#FFD42A"/>
<path d="M210.656 882.901C215.361 882.212 219.809 884.985 220.584 889.09C221.359 893.185 218.173 897.075 213.468 897.754C208.772 898.433 204.324 895.661 203.549 891.565C202.774 887.47 205.96 883.58 210.656 882.901Z" fill="white" stroke="black"/>
<path d="M208.905 887.712C211.813 887.294 214.564 889.007 215.039 891.544C215.515 894.082 213.55 896.474 210.642 896.902C207.735 897.32 204.984 895.607 204.508 893.08C204.023 890.543 205.998 888.14 208.905 887.712Z" fill="black"/>
<path d="M202.52 896.612C200.806 897.593 200.722 900.083 200.739 902.863C200.757 905.723 199.609 909.27 200.348 912.376C200.728 914.023 202.45 916.003 203.33 917.517C204.088 918.813 204.807 920.308 205.176 921.866C205.433 922.935 205.093 924.467 205.649 925.433C206.781 927.366 208.461 927.396 209.287 925.211C210.055 923.156 209.949 920.716 210.156 918.465C210.876 910.421 210.472 898.443 202.52 896.612Z" fill="#FFCC00"/>
</g>
<defs>
<clipPath id="clip0_0_1">
<rect width="1440" height="1024" fill="white"/>
</clipPath>
<clipPath id="clip1_0_1">
<rect width="282" height="278" fill="white" transform="translate(1172 159)"/>
</clipPath>
</defs>
</svg>
