<svg width="100" height="50" viewBox="0 0 100 50" fill="none" xmlns="http://www.w3.org/2000/svg">
<g clip-path="url(#clip0_1_2)">
<path d="M1000.02 0H0V500.01H1000.02V0Z" fill="#000066"/>
<path d="M0 0V55.9028L888.218 500.012H1000.02V444.111L111.802 0.0016667L0 0ZM1000.02 0V55.9011L111.802 500.01H0V444.109L888.218 0H1000.02Z" fill="white"/>
<path d="M416.675 0V500.01H583.345V0H416.675ZM0 166.67V333.34H1000.02V166.67H0Z" fill="white"/>
<path d="M0 200.004V300.006H1000.02V200.004H0ZM450.009 0V500.01H550.011V0H450.009Z" fill="#CC0000"/>
<path d="M0 500.01L333.34 333.34H407.875L74.5348 500.01H0ZM0 0L333.34 166.67H258.805L0 37.2691L0 0ZM592.145 166.67L925.485 0H1000.02L666.68 166.67H592.145ZM1000.02 500.01L666.68 333.34H741.215L1000.02 462.743V500.01Z" fill="#CC0000"/>
</g>
<defs>
<clipPath id="clip0_1_2">
<rect width="1000" height="500" fill="white"/>
</clipPath>
</defs>
</svg>
